<svg width="783" height="561" viewBox="0 0 783 561" fill="none" xmlns="http://www.w3.org/2000/svg">
<path fill-rule="evenodd" clip-rule="evenodd" d="M771 361C770.332 241.598 769.666 122.098 769 2.50025C609 2.00025 449 1.83325 289 2.00025C289.111 1.38325 289.444 0.88325 290 0.50025C449.667 -0.16675 609.333 -0.16675 769 0.50025C769.5 1.00025 770 1.50025 770.5 2.00025C771 121.666 771.167 241.333 771 361Z" fill="#249F95"/>
<path d="M289 2.00002C449 1.83302 609 2.00002 769 2.50002C769.666 122.098 770.332 241.598 771 361C774.397 361.698 777.897 362.365 781.5 363C781.999 368.323 782.166 373.656 782 379C702.999 378.833 623.999 379 545 379.5C545.556 379.883 545.889 380.383 546 381C544.837 406.163 544.67 431.497 545.5 457C573.524 487.357 602.524 516.691 632.5 545C635.014 551.454 633.181 556.288 627 559.5C623.866 560.29 620.866 559.957 618 558.5C590.82 531.153 563.486 503.986 536 477C508.847 503.653 481.847 530.486 455 557.5C447.718 561.948 442.218 560.448 438.5 553C437.833 551 437.833 549 438.5 547C448.2 536.468 458.033 526.135 468 516C468.397 517.025 469.063 517.192 470 516.5C488.444 497.055 507.277 477.888 526.5 459C527.328 432.428 527.161 405.928 526 379.5C443.334 379 360.667 378.833 278 379C277.834 373.656 278.001 368.323 278.5 363C281.439 362.372 284.272 361.705 287 361C287.999 317.837 288.332 274.503 288 231C264.331 230.833 240.664 231 217 231.5C214.298 232.512 211.965 234.012 210 236C209.69 234.762 209.19 234.763 208.5 236C207.225 238.217 206.225 240.551 205.5 243C204.667 348.167 204.834 453.167 206 558C205.582 558.722 204.916 559.222 204 559.5C199.148 560.315 194.481 560.148 190 559C191.046 558.422 190.88 557.756 189.5 557C189.333 451.499 188.833 346.166 188 241C191.415 225.085 201.081 215.252 217 211.5C262.392 211.485 307.726 210.818 353 209.5C361.676 204.623 364.509 197.457 361.5 188C359.667 184.833 357.167 182.333 354 180.5C263.39 178.841 172.723 178.508 82 179.5C47.1602 181.808 26.3261 199.974 19.5 234C18.542 273.362 18.876 312.696 20.5 352C25.758 367.461 36.091 372.794 51.5 368C51.833 326.333 52.167 284.667 52.5 243C59.2288 236.214 65.5621 236.548 71.5 244C72 271.665 72.167 299.331 72 327C71.328 404.206 70.661 481.539 70 559C65.5191 560.148 60.8519 560.315 56 559.5C54.167 559 53 557.833 52.5 556C52 500.334 51.833 444.668 52 389C32.233 391.865 17.066 384.865 6.5 368C3.77104 363.311 1.93699 358.311 1 353C1.83299 311.835 2.333 270.502 2.5 229C2.94598 226.157 3.44603 223.324 4 220.5C3.97193 219.43 3.63888 218.597 3 218C11.4471 190.387 29.4472 172.22 57 163.5C62.2138 161.863 67.5472 160.863 73 160.5C122.666 160 172.332 159.833 222 160H289C289.324 153.146 288.991 146.479 288 140C287.668 93.8302 288.001 47.8299 289 2.00002ZM307.999 20V160C323.336 159.833 338.669 160 353.999 160.5C368.13 163.964 376.964 172.798 380.499 187C383.177 210.637 373.01 225.137 349.999 230.5C336.003 231 322.003 231.167 307.999 231C307.667 274.503 308 317.837 308.999 361H749.999C750.999 247.501 751.332 133.835 750.999 20H307.999Z" fill="#09AAA0"/>
<path d="M124.999 16.0003C160.382 15.5593 184.215 31.8924 196.499 65.0003C205.039 104.419 191.206 132.919 154.999 150.5C118.758 162.196 90.2581 152.03 69.4991 120C54.0773 86.7825 59.5774 57.6152 85.9991 32.5003C97.629 23.5744 110.629 18.0743 124.999 16.0003ZM179.499 78.0003C171.284 47.6353 151.45 33.6353 119.999 36.0003C113.452 38.1363 107.119 40.9693 100.999 44.5003C77.9693 64.1452 73.8033 87.3124 88.4991 114C101.254 130.625 118.087 137.791 138.999 135.5C167.658 127.153 181.158 107.986 179.499 78.0003Z" fill="#0AA99F"/>
<path fill-rule="evenodd" clip-rule="evenodd" d="M653.999 57.0003C641.93 57.6763 629.764 58.3423 617.499 59.0003C617.1 58.7723 616.934 58.4383 616.999 58.0003C629.154 57.0053 641.488 56.6713 653.999 57.0003Z" fill="#008F81"/>
<path d="M653.999 57.0002C655.612 57.4442 656.779 58.4443 657.499 60.0002C657.669 66.0282 658.169 72.0282 658.999 78.0002C664.158 80.4122 669.158 83.0792 673.999 86.0002C679.666 82.8332 685.332 79.6672 690.999 76.5002C693.595 76.0423 695.762 76.8753 697.499 79.0002C703.832 89.3332 710.166 99.6672 716.499 110C717.429 113.35 716.596 116.183 713.999 118.5C709.832 121.333 705.666 124.167 701.499 127C700.832 134 700.832 141 701.499 148C705.579 150.957 709.746 153.79 713.999 156.5C715.726 157.889 717.06 159.556 717.999 161.5C711.572 174.925 703.905 187.592 694.999 199.5C692.946 199.825 690.946 199.491 688.999 198.5C684.666 196 680.332 193.5 675.999 191C670.606 194.234 665.106 197.234 659.499 200C659.166 205 658.832 210 658.499 215C657.933 217.729 656.433 219.729 653.999 221C642.127 220.315 630.127 219.648 617.999 219C616.915 217.835 616.082 216.502 615.499 215C615.325 209.816 614.825 204.816 613.999 200C607.911 197.79 602.245 194.79 596.999 191C592.795 193.7 588.462 196.2 583.999 198.5C582.052 199.491 580.052 199.825 577.999 199.5C569.08 187.583 561.413 174.917 554.999 161.5C554.938 159.789 555.605 158.456 556.999 157.5C561.415 154.542 565.915 151.708 570.499 149C571.03 141.641 571.364 134.308 571.499 127C566.545 123.715 561.879 120.048 557.499 116C556.469 111.22 557.469 106.887 560.499 103C565.625 94.2452 571.125 85.7452 576.999 77.5002C578.999 76.8333 580.999 76.8332 582.999 77.5002C587.999 80.3332 592.999 83.1672 597.999 86.0002C602.84 83.0792 607.84 80.4122 612.999 78.0002C613.829 72.0282 614.329 66.0282 614.499 60.0002C614.916 58.7442 615.749 58.0772 616.999 58.0002C616.934 58.4382 617.1 58.7722 617.499 59.0002C629.764 58.3422 641.93 57.6762 653.999 57.0002ZM628.999 75.0002C629.165 80.3442 628.998 85.6772 628.499 91.0002L626.999 92.5002C621.919 94.3042 616.919 96.3043 611.999 98.5002C608.45 101.557 604.783 104.391 600.999 107C595.46 104.647 590.294 101.647 585.499 98.0002C583.397 102.429 580.897 106.595 577.999 110.5C581.74 113.232 585.74 115.566 589.999 117.5C591.479 118.799 592.145 120.466 591.999 122.5C590.522 127.742 589.522 133.075 588.999 138.5C589.891 144.334 590.391 150.168 590.499 156C586.05 159.467 581.55 162.8 576.999 166C579.249 170.168 581.749 174.168 584.499 178C589.064 175.054 593.731 172.387 598.499 170C600.126 170.125 601.626 170.625 602.999 171.5C609.983 178.494 618.317 183.161 627.999 185.5L629.499 187C629.998 191.989 630.165 196.989 629.999 202H642.999C642.833 196.989 643 191.989 643.499 187L644.999 185.5C655.193 183.072 663.86 178.072 670.999 170.5C672.999 169.833 674.999 169.833 676.999 170.5C680.587 172.877 684.087 175.377 687.499 178C690.209 173.747 693.042 169.58 695.999 165.5C690.755 163.297 685.921 160.464 681.499 157C682.366 151.433 682.866 145.766 682.999 140C683.262 133.789 682.262 127.789 679.999 122C680.028 120.471 680.695 119.304 681.999 118.5C686.165 115.583 690.498 112.916 694.999 110.5C692.689 106.367 690.023 102.534 686.999 99.0002C682.121 101.938 677.121 104.605 671.999 107C667.218 102.768 661.885 99.2682 655.999 96.5002C651.657 95.2443 647.491 93.7442 643.499 92.0002C643 86.3432 642.833 80.6762 642.999 75.0002H628.999Z" fill="#09A99F"/>
<path fill-rule="evenodd" clip-rule="evenodd" d="M628.999 112C648.831 109.856 660.165 118.522 662.999 138C662.751 150.747 656.751 159.58 644.999 164.5C620.676 168.18 608.842 157.68 609.499 133C612.449 122.555 618.949 115.555 628.999 112Z" fill="#08A99F"/>
<path fill-rule="evenodd" clip-rule="evenodd" d="M632.999 130C642.852 130.01 646.352 134.677 643.499 144C637.362 149.755 632.029 149.088 627.499 142C626.372 136.589 628.206 132.589 632.999 130Z" fill="#FBFDFC"/>
<path fill-rule="evenodd" clip-rule="evenodd" d="M525.999 153C536.926 153.431 540.426 158.764 536.499 169C515.462 191.702 494.795 214.702 474.499 238C463.97 251.01 450.803 260.176 434.999 265.5C412.043 271.989 389.043 278.322 365.999 284.5C354.975 287.474 350.141 283.308 351.499 272C352.332 269.833 353.832 268.333 355.999 267.5C379.999 260.833 403.999 254.167 427.999 247.5C433.566 245.717 438.9 243.383 443.999 240.5C450.468 235.032 456.635 229.199 462.499 223C483.19 199.146 504.357 175.813 525.999 153Z" fill="#09A99F"/>
<path fill-rule="evenodd" clip-rule="evenodd" d="M288 140C288.991 146.479 289.324 153.146 289 160C266.667 160 244.333 160 222 160C243.827 159.003 265.827 158.669 288 159C288 152.667 288 146.333 288 140Z" fill="#8FD8D4"/>
<path fill-rule="evenodd" clip-rule="evenodd" d="M613.999 200C614.825 204.816 615.325 209.816 615.499 215C616.082 216.502 616.915 217.835 617.999 219C630.127 219.648 642.127 220.315 653.999 221C641.233 221.461 628.566 220.961 615.999 219.5C615.373 218.75 614.873 217.916 614.499 217C614 211.343 613.833 205.676 613.999 200Z" fill="#0B938A"/>
<path fill-rule="evenodd" clip-rule="evenodd" d="M527.999 345C522.406 345.307 516.906 344.973 511.499 344C511.332 306.498 510.832 269.164 509.999 232C510.303 231.35 510.636 230.683 510.999 230C516.887 228.693 522.72 228.693 528.499 230C529.33 268.502 529.163 306.836 527.999 345Z" fill="#03A99F"/>
<path fill-rule="evenodd" clip-rule="evenodd" d="M509.999 232C510.832 269.164 511.332 306.498 511.499 344C516.906 344.973 522.406 345.307 527.999 345C522.265 346.325 516.431 346.325 510.499 345C509.999 307.335 509.832 269.668 509.999 232Z" fill="#008B80"/>
<path fill-rule="evenodd" clip-rule="evenodd" d="M445.999 283C450.666 281.667 455.332 281.667 459.999 283C458.952 283.578 459.119 284.244 460.499 285C460.999 304.997 461.166 324.997 460.999 345C455.737 345.305 450.571 344.971 445.499 344C444.832 324.333 444.832 304.667 445.499 285C446.879 284.244 447.046 283.578 445.999 283Z" fill="#03AAA1"/>
<path fill-rule="evenodd" clip-rule="evenodd" d="M459.999 283C460.616 283.111 461.116 283.444 461.499 284C462.328 304.504 462.162 324.837 460.999 345C461.166 324.997 460.999 304.997 460.499 285C459.119 284.244 458.952 283.578 459.999 283Z" fill="#008E82"/>
<path fill-rule="evenodd" clip-rule="evenodd" d="M2.99936 218C3.63836 218.597 3.97136 219.43 3.99936 220.5C3.44536 223.324 2.94536 226.157 2.49936 229C2.33236 270.502 1.83236 311.835 0.999362 353C-0.137638 313.018 -0.304638 273.018 0.499362 233C1.11936 227.944 1.95336 222.944 2.99936 218Z" fill="#35A49A"/>
<path fill-rule="evenodd" clip-rule="evenodd" d="M379.999 305C380.11 304.383 380.443 303.883 380.999 303.5C385.999 302.833 390.999 302.833 395.999 303.5C396.499 304 396.999 304.5 397.499 305C397.666 311.667 397.832 318.333 397.999 325C397.979 332.072 397.312 338.905 395.999 345.5C390.415 346.306 384.915 346.139 379.499 345C378.672 331.494 378.839 318.16 379.999 305Z" fill="#22A197"/>
<path fill-rule="evenodd" clip-rule="evenodd" d="M379.999 305C385.332 305 390.666 305 395.999 305C396.331 318.017 395.998 331.017 394.999 344C390.332 345.333 385.666 345.333 380.999 344C380 331.017 379.667 318.017 379.999 305Z" fill="#03ABA1"/>
<path fill-rule="evenodd" clip-rule="evenodd" d="M445.999 283C447.046 283.578 446.879 284.244 445.499 285C444.832 304.667 444.832 324.333 445.499 344C450.571 344.971 455.737 345.305 460.999 345C455.598 346.325 450.098 346.325 444.499 345C443.832 324.667 443.832 304.333 444.499 284C444.882 283.444 445.382 283.111 445.999 283Z" fill="#008F85"/>
<path fill-rule="evenodd" clip-rule="evenodd" d="M309 361C456 361 603 361 750 361C704.931 361.669 659.764 362.336 614.5 363C512.569 362.334 410.736 361.668 309 361Z" fill="#009C91"/>
<path fill-rule="evenodd" clip-rule="evenodd" d="M137.999 559C137.657 559.838 136.991 560.172 135.999 560C132.858 559.179 129.524 558.679 125.999 558.5C124.568 558.035 123.402 557.201 122.499 556C121.832 496.667 121.832 437.333 122.499 378C125.04 373.431 128.874 371.931 133.999 373.5C135.785 374.285 137.285 375.451 138.499 377C139.166 437 139.166 497 138.499 557C137.119 557.756 136.952 558.422 137.999 559Z" fill="#03ABA1"/>
<path fill-rule="evenodd" clip-rule="evenodd" d="M286.999 361C284.271 361.705 281.438 362.372 278.499 363C278 368.323 277.833 373.656 277.999 379C360.666 378.833 443.333 379 525.999 379.5C527.16 405.928 527.327 432.428 526.499 459C507.276 477.888 488.443 497.055 469.999 516.5C469.062 517.192 468.396 517.025 467.999 516C486.937 496.562 506.103 477.228 525.499 458C525.999 432.335 526.166 406.669 525.999 381C443.332 381.167 360.665 381 277.999 380.5C276.857 374.416 276.69 368.249 277.499 362C280.556 361.049 283.722 360.716 286.999 361Z" fill="#05A095"/>
<path fill-rule="evenodd" clip-rule="evenodd" d="M770.999 361C774.936 360.707 778.769 361.04 782.499 362C783.308 368.249 783.141 374.416 781.999 380.5C703.333 381 624.666 381.167 545.999 381C545.888 380.383 545.555 379.883 544.999 379.5C623.998 379 702.998 378.833 781.999 379C782.165 373.656 781.998 368.323 781.499 363C777.896 362.365 774.396 361.698 770.999 361Z" fill="#04A398"/>
<path fill-rule="evenodd" clip-rule="evenodd" d="M187.999 241C188.832 346.166 189.332 451.499 189.499 557C190.879 557.756 191.046 558.422 189.999 559C189.382 558.889 188.882 558.556 188.499 558C187.999 452.334 187.832 346.667 187.999 241Z" fill="#008D81"/>
<path fill-rule="evenodd" clip-rule="evenodd" d="M137.999 559C136.952 558.422 137.119 557.756 138.499 557C139.166 497 139.166 437 138.499 377C137.285 375.451 135.785 374.285 133.999 373.5C128.874 371.931 125.04 373.431 122.499 378C121.832 437.333 121.832 496.667 122.499 556C123.402 557.201 124.568 558.035 125.999 558.5C129.524 558.679 132.858 559.179 135.999 560C131.985 560.166 127.985 559.999 123.999 559.5C123.166 558.667 122.332 557.833 121.499 557C120.832 497 120.832 437 121.499 377C125.583 371.084 130.75 369.917 136.999 373.5C138.548 374.714 139.714 376.214 140.499 378C141.166 437.667 141.166 497.333 140.499 557C139.791 557.881 138.957 558.547 137.999 559Z" fill="#159E92"/>
<path fill-rule="evenodd" clip-rule="evenodd" d="M209.999 236C209.179 237.64 208.346 239.307 207.499 241C207.33 346.736 206.83 452.403 205.999 558C204.833 453.167 204.666 348.167 205.499 243C206.224 240.551 207.224 238.217 208.499 236C209.189 234.762 209.689 234.762 209.999 236Z" fill="#05A499"/>
<path fill-rule="evenodd" clip-rule="evenodd" d="M71.9995 327C72.6935 403.333 72.8605 479.666 72.4995 556C72.1225 557.442 71.2895 558.442 69.9995 559C70.6605 481.539 71.3275 404.206 71.9995 327Z" fill="#32A398"/>
</svg>
