<svg width="1254" height="167" viewBox="0 0 1254 167" fill="none" xmlns="http://www.w3.org/2000/svg">
<g clip-path="url(#clip0_3_15)">
<rect width="1254" height="166" transform="translate(0 0.200012)" fill="#005392"/>
<path d="M97.6953 163.288C41.314 163.288 0 127.855 0 81.7439C0 34.662 41.314 3.1123 97.6953 3.1123H212.888L177.407 49.7088H97.6953C71.9349 49.7088 55.4093 57.9602 55.4093 81.7439C55.4093 105.527 71.9349 117.177 97.6953 117.177H212.888L177.407 163.288H97.6953Z" fill="white"/>
<path d="M387.865 163.288L357.244 123.487H285.309V163.288H229.9V79.317H374.742C387.865 79.317 395.156 74.9486 395.156 64.2702C395.156 54.0772 387.865 49.7088 374.742 49.7088H230.386L266.353 3.1123H367.937C403.905 3.1123 452.995 13.7907 452.995 61.3579C452.995 85.1415 438.9 106.498 414.112 112.323C418.486 115.235 429.179 124.943 451.051 150.182L462.716 163.288H387.865Z" fill="white"/>
<path d="M480.7 163.288V3.1123H670.258L634.291 49.7088H536.109V63.2994H660.051L628.944 102.13H535.623V117.177H669.772L634.291 163.288H480.7Z" fill="white"/>
<path d="M919.6 163.288L903.075 100.188C900.644 89.51 898.7 77.8608 898.7 71.5509C893.84 81.2585 888.979 90.9661 875.856 113.294L856.9 146.299C847.179 163.773 838.916 166.2 825.307 166.2C811.212 166.2 803.435 163.773 793.228 146.299L771.842 107.954C759.691 86.5977 755.802 79.317 752.4 72.0363C751.428 79.8024 749.484 89.51 746.568 99.2176L730.528 163.773H676.091L714.975 25.9252C719.835 8.93686 731.986 1.17078 746.081 1.17078C760.177 1.17078 769.412 8.45148 776.216 20.1006L802.463 64.2702C817.53 89.0246 822.391 97.7614 826.279 105.528C830.168 97.7614 835.028 89.0246 849.609 64.7556L875.856 20.586C882.174 9.42224 891.895 1.65616 906.477 1.65616C920.086 1.65616 932.723 9.90762 937.584 26.4105C950.221 72.5217 962.372 118.633 975.009 164.258H919.6V163.288Z" fill="white"/>
<path d="M1064.93 163.288L1098.47 117.177H1134.43C1142.21 117.177 1151.44 117.177 1156.3 117.662C1153.87 115.235 1148.53 107.469 1145.13 102.615L1118.39 63.7848L1046.94 163.288H981.328L1083.88 20.586C1091.66 9.90761 1102.35 0.200012 1119.37 0.200012C1136.38 0.200012 1147.07 8.93685 1154.85 20.586L1254 163.288H1064.93Z" fill="white"/>
</g>
<defs>
<clipPath id="clip0_3_15">
<rect width="1254" height="166" fill="white" transform="translate(0 0.200012)"/>
</clipPath>
</defs>
</svg>
