<svg width="346" height="355" viewBox="0 0 346 355" fill="none" xmlns="http://www.w3.org/2000/svg">
<path fill-rule="evenodd" clip-rule="evenodd" d="M89 0.0626406C144.668 -0.104359 200.334 0.0626406 256 0.562641C282.051 5.61364 297.885 21.1136 303.5 47.0626C304.167 101.73 304.167 156.396 303.5 211.063C297.706 235.524 282.539 250.69 258 256.563C200 257.23 142 257.23 84 256.563C58.736 249.966 43.903 233.799 39.5 208.063C38.833 155.063 38.833 102.063 39.5 49.0626C45.293 21.7696 61.793 5.43564 89 0.0626406Z" fill="#0DB6AC"/>
<path fill-rule="evenodd" clip-rule="evenodd" d="M86 14.0626C143.334 13.8956 200.668 14.0626 258 14.5626C276.579 19.8096 287.413 31.9766 290.5 51.0626C291.167 103.396 291.167 155.73 290.5 208.063C286.589 228.307 274.422 240.14 254 243.563C198.667 244.23 143.333 244.23 88 243.563C69.154 239.384 57.654 227.884 53.5 209.063C52.833 155.063 52.833 101.063 53.5 47.0626C58.191 29.8726 69.024 18.8726 86 14.0626Z" fill="#FBFCFD"/>
<path fill-rule="evenodd" clip-rule="evenodd" d="M164 40.0626C185.843 38.4146 197.01 48.4146 197.5 70.0626C193.433 86.4516 182.933 93.9516 166 92.5626C147.239 85.2026 141.406 72.0356 148.5 53.0626C152.345 47.0416 157.512 42.7086 164 40.0626Z" fill="#0DB7AB"/>
<path fill-rule="evenodd" clip-rule="evenodd" d="M98.9999 89.0626C120.85 90.0636 129.017 101.064 123.5 122.063C114.91 133.773 104.077 136.273 90.9999 129.563C78.6989 116.899 79.0329 104.566 91.9999 92.5626C94.4249 91.3496 96.7589 90.1836 98.9999 89.0626Z" fill="#0CB6AB"/>
<path fill-rule="evenodd" clip-rule="evenodd" d="M234 89.0626C249.626 88.3616 258.626 95.6956 261 111.063C258.419 127.701 248.752 134.535 232 131.563C217.836 124.405 214.003 113.572 220.5 99.0626C224.079 94.2936 228.579 90.9596 234 89.0626Z" fill="#0FB6AB"/>
<path fill-rule="evenodd" clip-rule="evenodd" d="M151 105.063C166.058 104.629 181.058 105.129 196 106.563C208.197 112.456 212.697 121.956 209.5 135.063C198 145.896 186.5 156.73 175 167.563C172.667 168.23 170.333 168.23 168 167.563C156.142 156.705 144.642 145.538 133.5 134.063C130.614 119.173 136.447 109.506 151 105.063Z" fill="#09B6AB"/>
<path fill-rule="evenodd" clip-rule="evenodd" d="M86 142.063C98.005 141.896 110.005 142.063 122 142.563C135.912 146.859 141.912 156.359 140 171.063C116 171.063 92 171.063 68 171.063C66.685 156.668 72.6851 147.001 86 142.063Z" fill="#0AB6AB"/>
<path fill-rule="evenodd" clip-rule="evenodd" d="M220 142.063C231.671 141.896 243.338 142.063 255 142.563C269.649 146.33 275.983 155.83 274 171.063C250.667 171.063 227.333 171.063 204 171.063C201.843 157.028 207.177 147.361 220 142.063Z" fill="#09B6AB"/>
<path fill-rule="evenodd" clip-rule="evenodd" d="M120 184.063C123.963 183.652 127.63 184.485 131 186.563C144.271 194.782 157.771 202.615 171.5 210.063C186.732 201.697 201.898 193.197 217 184.563C225.242 183.131 228.075 186.298 225.5 194.063C223.942 195.922 222.109 197.422 220 198.563C208.171 204.977 196.504 211.643 185 218.563C180.754 221.105 176.254 222.939 171.5 224.063C168.768 223.948 166.268 223.115 164 221.563C149.667 213.23 135.333 204.896 121 196.563C116.233 192.617 115.9 188.45 120 184.063Z" fill="#10B6AB"/>
<path fill-rule="evenodd" clip-rule="evenodd" d="M0 282.063C11.667 282.063 23.333 282.063 35 282.063C35 285.396 35 288.73 35 292.063C27.333 292.063 19.667 292.063 12 292.063C12 296.396 12 300.73 12 305.063C18.667 305.063 25.333 305.063 32 305.063C32 308.063 32 311.063 32 314.063C25.333 314.063 18.667 314.063 12 314.063C12 319.063 12 324.063 12 329.063C20.333 329.063 28.667 329.063 37 329.063C37 332.063 37 335.063 37 338.063C24.667 338.063 12.333 338.063 0 338.063C0 319.396 0 300.73 0 282.063Z" fill="#14B6AB"/>
<path fill-rule="evenodd" clip-rule="evenodd" d="M242 282.063C246 282.063 250 282.063 254 282.063C254 297.73 254 313.396 254 329.063C261.667 329.063 269.333 329.063 277 329.063C277 332.063 277 335.063 277 338.063C265.333 338.063 253.667 338.063 242 338.063C242 319.396 242 300.73 242 282.063Z" fill="#16B6AC"/>
<path fill-rule="evenodd" clip-rule="evenodd" d="M286 282.063C290.714 281.736 295.38 282.07 300 283.063C304.799 295.292 309.299 307.626 313.5 320.063C318.235 307.69 323.069 295.357 328 283.063C332.62 282.07 337.286 281.736 342 282.063C343.643 300.701 344.976 319.368 346 338.063C342 338.063 338 338.063 334 338.063C333.868 325.717 333.368 313.384 332.5 301.063C327.578 312.989 322.745 324.989 318 337.063C315.128 338.346 312.295 338.346 309.5 337.063C304.97 325.808 300.637 314.474 296.5 303.063C295.5 314.063 294.5 325.063 293.5 336.063C290.006 337.94 286.173 338.607 282 338.063C283.394 319.401 284.727 300.734 286 282.063Z" fill="#16B6AB"/>
<path fill-rule="evenodd" clip-rule="evenodd" d="M212 288.063C212 291.396 212 294.73 212 298.063C210 298.063 208 298.063 206 298.063C206 301.063 206 304.063 206 307.063C205.021 303.938 204.687 300.605 205 297.063C207 297.063 209 297.063 211 297.063C210.69 293.85 211.023 290.85 212 288.063Z" fill="#A3E1DD"/>
<path fill-rule="evenodd" clip-rule="evenodd" d="M212 288.063C215.333 288.063 218.667 288.063 222 288.063C222 291.396 222 294.73 222 298.063C225.667 298.063 229.333 298.063 233 298.063C233 301.063 233 304.063 233 307.063C229.333 307.063 225.667 307.063 222 307.063C221.834 313.738 222 320.405 222.5 327.063C222.874 327.979 223.374 328.813 224 329.563C226.982 330.061 229.982 330.228 233 330.063C233.163 332.42 232.997 334.753 232.5 337.063C224.733 340.798 218.066 339.465 212.5 333.063C212 324.403 211.834 315.736 212 307.063C210 307.063 208 307.063 206 307.063C206 304.063 206 301.063 206 298.063C208 298.063 210 298.063 212 298.063C212 294.73 212 291.396 212 288.063Z" fill="#0FB5AB"/>
<path fill-rule="evenodd" clip-rule="evenodd" d="M41 298.063C45.014 297.897 49.014 298.064 53 298.563C55.626 302.647 58.126 306.813 60.5 311.063C62.602 306.634 65.102 302.468 68 298.563C72.041 297.736 76.041 297.903 80 299.063C75.735 305.266 71.735 311.599 68 318.063C71.86 324.608 75.86 331.108 80 337.563C76 338.23 72 338.23 68 337.563C65.136 333.53 62.469 329.364 60 325.063C57.531 329.364 54.864 333.53 52 337.563C48 338.23 44 338.23 40 337.563C44.742 331.156 49.076 324.489 53 317.563C48.859 311.107 44.859 304.607 41 298.063Z" fill="#12B5AA"/>
<path fill-rule="evenodd" clip-rule="evenodd" d="M104 297.063C121.063 297.307 128.229 305.973 125.5 323.063C120.855 338.647 111.689 342.314 98 334.063C97.003 340.697 96.67 347.363 97 354.063C93.667 354.063 90.333 354.063 87 354.063C87 335.396 87 316.73 87 298.063C90.333 298.063 93.667 298.063 97 298.063C96.843 299.436 97.01 300.77 97.5 302.063C99.465 300.013 101.632 298.346 104 297.063Z" fill="#12B5AB"/>
<path fill-rule="evenodd" clip-rule="evenodd" d="M145 297.063C162.667 295.396 170.667 303.396 169 321.063C160 321.063 151 321.063 142 321.063C142.32 325.55 144.653 328.383 149 329.563C155.075 330.049 161.075 329.549 167 328.063C167.313 330.81 166.98 333.477 166 336.063C154.82 341.266 144.654 339.933 135.5 332.063C127.024 317.016 130.19 305.349 145 297.063Z" fill="#16B6AC"/>
<path fill-rule="evenodd" clip-rule="evenodd" d="M102 307.063C113.48 306.282 117.646 311.615 114.5 323.063C112.146 328.658 107.979 330.491 102 328.563C100.5 327.063 99.0001 325.563 97.5001 324.063C96.6721 319.361 96.8381 314.694 98.0001 310.063C99.4011 309.042 100.735 308.042 102 307.063Z" fill="#F7FBFC"/>
<path fill-rule="evenodd" clip-rule="evenodd" d="M148 305.063C154.168 304.454 157.502 307.12 158 313.063C152.625 313.391 147.292 313.058 142 312.063C143.333 309.07 145.333 306.736 148 305.063Z" fill="#F6FCFC"/>
<path fill-rule="evenodd" clip-rule="evenodd" d="M196 297.063C198.292 296.807 200.459 297.14 202.5 298.063C202.998 301.045 203.165 304.045 203 307.063C197.6 306.348 193.1 308.015 189.5 312.063C189 320.723 188.834 329.39 189 338.063C185.333 338.063 181.667 338.063 178 338.063C178 324.73 178 311.396 178 298.063C181.667 298.063 185.333 298.063 189 298.063C188.84 299.762 189.006 301.429 189.5 303.063C190.994 300.249 193.16 298.249 196 297.063Z" fill="#1DB6AC"/>
</svg>
