<svg width="265" height="258" viewBox="0 0 265 258" fill="none" xmlns="http://www.w3.org/2000/svg">
<path fill-rule="evenodd" clip-rule="evenodd" d="M50.0003 0.0626406C105.668 -0.104359 161.334 0.0626406 217 0.562641C243.051 5.61364 258.885 21.1136 264.5 47.0626C265.167 101.73 265.167 156.396 264.5 211.063C258.706 235.524 243.539 250.69 219 256.563C161 257.23 103 257.23 45.0003 256.563C19.7363 249.966 4.90325 233.799 0.50025 208.063C-0.16675 155.063 -0.16675 102.063 0.50025 49.0626C6.29325 21.7696 22.7933 5.43564 50.0003 0.0626406Z" fill="#0DB6AC"/>
<path fill-rule="evenodd" clip-rule="evenodd" d="M47.0003 14.0626C104.334 13.8956 161.668 14.0626 219 14.5626C237.579 19.8096 248.413 31.9766 251.5 51.0626C252.167 103.396 252.167 155.73 251.5 208.063C247.589 228.307 235.422 240.14 215 243.563C159.667 244.23 104.333 244.23 49.0003 243.563C30.1543 239.384 18.6542 227.884 14.5002 209.063C13.8332 155.063 13.8332 101.063 14.5002 47.0626C19.1912 29.8726 30.0243 18.8726 47.0003 14.0626Z" fill="#FBFCFD"/>
<path fill-rule="evenodd" clip-rule="evenodd" d="M125 40.0626C146.843 38.4146 158.01 48.4146 158.5 70.0626C154.433 86.4516 143.933 93.9516 127 92.5626C108.239 85.2026 102.406 72.0356 109.5 53.0626C113.345 47.0416 118.512 42.7086 125 40.0626Z" fill="#0DB7AB"/>
<path fill-rule="evenodd" clip-rule="evenodd" d="M60.0002 89.0626C81.8502 90.0636 90.0172 101.064 84.5002 122.063C75.9102 133.773 65.0772 136.273 52.0002 129.563C39.6992 116.899 40.0332 104.566 53.0002 92.5626C55.4252 91.3496 57.7592 90.1836 60.0002 89.0626Z" fill="#0CB6AB"/>
<path fill-rule="evenodd" clip-rule="evenodd" d="M195 89.0626C210.626 88.3616 219.626 95.6956 222 111.063C219.419 127.701 209.752 134.535 193 131.563C178.836 124.405 175.003 113.572 181.5 99.0626C185.079 94.2936 189.579 90.9596 195 89.0626Z" fill="#0FB6AB"/>
<path fill-rule="evenodd" clip-rule="evenodd" d="M112 105.063C127.058 104.629 142.058 105.129 157 106.563C169.197 112.456 173.697 121.956 170.5 135.063C159 145.896 147.5 156.73 136 167.563C133.667 168.23 131.333 168.23 129 167.563C117.142 156.705 105.642 145.538 94.5003 134.063C91.6143 119.173 97.4473 109.506 112 105.063Z" fill="#09B6AB"/>
<path fill-rule="evenodd" clip-rule="evenodd" d="M47.0003 142.063C59.0053 141.896 71.0053 142.063 83.0003 142.563C96.9123 146.859 102.912 156.359 101 171.063C77.0003 171.063 53.0003 171.063 29.0003 171.063C27.6853 156.668 33.6853 147.001 47.0003 142.063Z" fill="#0AB6AB"/>
<path fill-rule="evenodd" clip-rule="evenodd" d="M181 142.063C192.671 141.896 204.338 142.063 216 142.563C230.649 146.33 236.983 155.83 235 171.063C211.667 171.063 188.333 171.063 165 171.063C162.843 157.028 168.177 147.361 181 142.063Z" fill="#09B6AB"/>
<path fill-rule="evenodd" clip-rule="evenodd" d="M81.0003 184.063C84.9633 183.652 88.6303 184.485 92.0003 186.563C105.271 194.782 118.771 202.615 132.5 210.063C147.732 201.697 162.898 193.197 178 184.563C186.242 183.131 189.075 186.298 186.5 194.063C184.942 195.922 183.109 197.422 181 198.563C169.171 204.977 157.504 211.643 146 218.563C141.754 221.105 137.254 222.939 132.5 224.063C129.768 223.948 127.268 223.115 125 221.563C110.667 213.23 96.3333 204.896 82.0003 196.563C77.2333 192.617 76.9003 188.45 81.0003 184.063Z" fill="#10B6AB"/>
</svg>
