<svg width="208" height="186" viewBox="0 0 208 186" fill="none" xmlns="http://www.w3.org/2000/svg">
<path fill-rule="evenodd" clip-rule="evenodd" d="M97.0003 1.06263C118.843 -0.58537 130.01 9.41463 130.5 31.0626C126.433 47.4516 115.933 54.9516 99.0003 53.5626C80.2393 46.2026 74.4063 33.0356 81.5003 14.0626C85.3453 8.04163 90.5123 3.70863 97.0003 1.06263Z" fill="#0DB7AB"/>
<path fill-rule="evenodd" clip-rule="evenodd" d="M32.0002 50.0626C53.8502 51.0636 62.0172 62.0636 56.5002 83.0626C47.9102 94.7726 37.0772 97.2726 24.0002 90.5626C11.6992 77.8986 12.0332 65.5656 25.0002 53.5626C27.4252 52.3496 29.7592 51.1836 32.0002 50.0626Z" fill="#0CB6AB"/>
<path fill-rule="evenodd" clip-rule="evenodd" d="M167 50.0626C182.626 49.3616 191.626 56.6956 194 72.0626C191.419 88.7006 181.752 95.5346 165 92.5626C150.836 85.4046 147.003 74.5716 153.5 60.0626C157.079 55.2936 161.579 51.9596 167 50.0626Z" fill="#0FB6AB"/>
<path fill-rule="evenodd" clip-rule="evenodd" d="M84.0003 66.0626C99.0583 65.6286 114.058 66.1286 129 67.5626C141.197 73.4556 145.697 82.9556 142.5 96.0626C131 106.896 119.5 117.73 108 128.563C105.667 129.23 103.333 129.23 101 128.563C89.1423 117.705 77.6423 106.538 66.5003 95.0626C63.6143 80.1726 69.4473 70.5056 84.0003 66.0626Z" fill="#09B6AB"/>
<path fill-rule="evenodd" clip-rule="evenodd" d="M19.0003 103.063C31.0053 102.896 43.0053 103.063 55.0003 103.563C68.9123 107.859 74.9123 117.359 73.0003 132.063C49.0003 132.063 25.0003 132.063 1.00029 132.063C-0.314706 117.668 5.68529 108.001 19.0003 103.063Z" fill="#0AB6AB"/>
<path fill-rule="evenodd" clip-rule="evenodd" d="M153 103.063C164.671 102.896 176.338 103.063 188 103.563C202.649 107.33 208.983 116.83 207 132.063C183.667 132.063 160.333 132.063 137 132.063C134.843 118.028 140.177 108.361 153 103.063Z" fill="#09B6AB"/>
<path fill-rule="evenodd" clip-rule="evenodd" d="M53.0003 145.063C56.9633 144.652 60.6303 145.485 64.0003 147.563C77.2713 155.782 90.7713 163.615 104.5 171.063C119.732 162.697 134.898 154.197 150 145.563C158.242 144.131 161.075 147.298 158.5 155.063C156.942 156.922 155.109 158.422 153 159.563C141.171 165.977 129.504 172.643 118 179.563C113.754 182.105 109.254 183.939 104.5 185.063C101.768 184.948 99.2683 184.115 97.0003 182.563C82.6673 174.23 68.3333 165.896 54.0003 157.563C49.2333 153.617 48.9003 149.45 53.0003 145.063Z" fill="#10B6AB"/>
</svg>
