<svg width="301" height="348" viewBox="0 0 301 348" fill="none" xmlns="http://www.w3.org/2000/svg">
<path opacity="0.01" fill-rule="evenodd" clip-rule="evenodd" d="M155 0C156.333 0.667 156.333 0.667 155 0Z" fill="#3FA4AD"/>
<path opacity="0.01" fill-rule="evenodd" clip-rule="evenodd" d="M121 1C122.333 1.667 122.333 1.667 121 1Z" fill="#42A6AD"/>
<path opacity="0.012" fill-rule="evenodd" clip-rule="evenodd" d="M108 4C109.333 4.667 109.333 4.667 108 4Z" fill="#40A5AE"/>
<path opacity="0.01" fill-rule="evenodd" clip-rule="evenodd" d="M92 13C91.333 11.667 91.333 11.667 92 13Z" fill="#3FA3AD"/>
<path opacity="0.01" fill-rule="evenodd" clip-rule="evenodd" d="M200 15C201.333 15.667 201.333 15.667 200 15Z" fill="#3FA7AF"/>
<path opacity="0.01" fill-rule="evenodd" clip-rule="evenodd" d="M205 18C206.333 18.667 206.333 18.667 205 18Z" fill="#40A6B1"/>
<path opacity="0.01" fill-rule="evenodd" clip-rule="evenodd" d="M207 20C208.333 20.667 208.333 20.667 207 20Z" fill="#40A2AC"/>
<path opacity="0.01" fill-rule="evenodd" clip-rule="evenodd" d="M64 29C65.333 29.667 65.333 29.667 64 29Z" fill="#3C9CA6"/>
<path opacity="0.01" fill-rule="evenodd" clip-rule="evenodd" d="M70 30C69.333 28.667 69.333 28.667 70 30Z" fill="#40A0AB"/>
<path opacity="0.01" fill-rule="evenodd" clip-rule="evenodd" d="M67 30C68.333 30.667 68.333 30.667 67 30Z" fill="#3E9FA9"/>
<path opacity="0.993" fill-rule="evenodd" clip-rule="evenodd" d="M182 38C186.695 43.026 191.361 48.026 196 53C208.12 73.55 211.62 95.55 206.5 119C203.755 131.904 199.421 144.237 193.5 156C185.073 169.181 177.407 182.848 170.5 197C167.214 206.478 164.714 216.144 163 226C161.212 230.453 159.712 235.12 158.5 240C157.855 241.146 157.022 242.146 156 243C154.422 243.572 152.922 243.906 151.5 244C148.967 243.55 146.8 242.55 145 241C147.913 234.022 149.913 226.689 151 219C153.356 210.754 155.856 202.421 158.5 194C161.559 185.551 165.392 177.551 170 170C181.136 155.391 188.802 139.057 193 121C195.4 113.826 196.4 106.326 196 98.5C195.833 94.333 195.667 90.167 195.5 86C195.29 84.442 194.79 83.109 194 82C193.292 75.269 190.959 69.269 187 64C187.073 62.473 186.406 61.473 185 61C183.743 58.073 181.743 55.739 179 54C175.724 50.029 171.724 47.029 167 45C147.123 33.96 127.123 34.46 107 46.5C104.145 48.531 101.478 50.697 99 53C87.706 63.161 80.873 75.827 78.5 91C76.138 106.47 78.471 121.137 85.5 135C90.779 143.11 96.946 150.443 104 157C115.484 171.25 120.317 187.583 118.5 206C117.385 218.341 114.051 230.007 108.5 241C107.421 242.894 106.087 243.227 104.5 242C103.5 242 104 242 103.5 242C102.19 242 101.761 242.259 100.5 242C98.936 242.489 97.436 242.822 96 243C95.359 242.018 95.193 242.518 94.5 241.5C94.846 240.304 95.5 240 95.5 240C100.129 230.757 103.462 221.424 105.5 212C105.89 207.986 106.39 203.986 107 200C106.316 197.543 105.983 195.209 106 193C105.922 184.316 103.255 176.649 98 170C98.073 168.473 97.406 167.473 96 167C95.081 164.411 93.414 162.411 91 161C90.333 159.667 89.333 158.667 88 158C75.188 144.044 67.521 127.711 65 109C65.168 101.874 65.501 94.541 66 87C68.567 75.977 72.9 65.644 79 56C87.979 44.02 99.312 35.02 113 29C137.944 21.173 160.944 24.173 182 38Z" fill="#269DAA"/>
<path opacity="0.01" fill-rule="evenodd" clip-rule="evenodd" d="M224 37C223.333 35.667 223.333 35.667 224 37Z" fill="#3FA5AD"/>
<path opacity="0.01" fill-rule="evenodd" clip-rule="evenodd" d="M224 37C225.333 37.667 225.333 37.667 224 37Z" fill="#40A4AB"/>
<path opacity="0.01" fill-rule="evenodd" clip-rule="evenodd" d="M226 38C227.333 38.667 227.333 38.667 226 38Z" fill="#3FA2AB"/>
<path opacity="0.995" fill-rule="evenodd" clip-rule="evenodd" d="M200 16C202.031 18.022 204.365 19.689 207 21C212.667 26 218 31.333 223 37C235.414 56.652 240.247 77.985 237.5 101C241.77 108.93 246.436 116.597 251.5 124C254.505 129.008 256.672 134.341 258 140C257.232 146.601 254.399 150.435 248.5 153.5C248.833 153.833 246.667 154.167 247 154.5C245.951 154.992 247 154.5 246 155C244.204 155.898 242.684 156.315 242 158C241.049 159.419 240.716 161.085 241 163C242 163.5 241.5 163.5 242 164.5C239.718 170.08 239.385 174.747 237 180.5C241.467 191.778 240.633 202.611 234.5 213C229.314 218.34 223.147 221.673 216 223C206.267 222.609 196.6 223.109 187 224.5C182.194 229.43 179.861 235.264 180 242C176.333 242 172.667 242 169 242C169 239.333 169 236.667 169 234C169.587 226.493 172.587 220.16 178 215C181.644 212.683 185.644 211.183 190 210.5C199 210.167 208 209.833 217 209.5C224.448 207.545 227.782 202.712 227 195C226.316 190.111 225.316 185.277 224 180.5C225.865 175.604 227.865 170.771 230 166C225.449 152.381 229.782 144.381 243 142C243.667 142 244 141.667 244 141C244.597 140.765 244.93 140.265 245 139.5C242.628 133.585 239.628 128.085 236 123C235.474 121.27 234.474 119.936 233 119C232.193 116.158 230.693 113.158 228.5 110C226.073 107.003 224.573 103.17 224 98.5C226.102 85.352 224.935 72.519 220.5 60C219.892 58.434 219.058 57.1 218 56C214.824 47.295 209.491 40.295 202 35C202 34.333 201.667 34 201 34C198.225 30.895 194.892 28.562 191 27C188.609 25.138 185.942 23.804 183 23C178.415 20.36 173.415 18.694 168 18C163.268 16.1 158.268 15.267 153 15.5C155.528 14.502 155.528 16.169 153 15.5C152.114 14.675 151.781 16.175 152 15C147.047 14.171 142.047 13.837 137 14C137.149 15.052 134.983 14.052 134.5 15C133.32 13.816 132.82 15.149 131 15C124.686 15.49 119.686 16.823 114 19C91.251 25.089 74.917 38.756 65 60C60.172 68.96 57.339 78.627 56.5 89C54.266 109.164 57.933 128.164 67.5 146C69.87 150.097 72.703 153.764 76 157C92.316 174.944 97.982 195.611 93 219C90.086 226.835 86.586 234.502 82.5 242C78.386 242.893 74.386 243.227 70.5 243C70.519 240.256 71.186 237.589 72.5 235C82.642 218.287 84.642 200.621 78.5 182C77.892 180.434 77.058 179.1 76 178C75.025 175.705 73.692 173.705 72 172C66.636 164.976 61.302 157.976 56 151C53.553 145.187 51.22 139.854 49 135C39.897 104.132 42.73 74.466 57.5 46C61.434 40.455 65.601 35.122 70 30C76.738 23.599 84.071 17.932 92 13C127.508 -3.84697 163.508 -2.84697 200 16Z" fill="#269CA9"/>
<path opacity="0.01" fill-rule="evenodd" clip-rule="evenodd" d="M151 40C152.333 40.667 152.333 40.667 151 40Z" fill="#41B3BD"/>
<path opacity="0.01" fill-rule="evenodd" clip-rule="evenodd" d="M144 39C145.333 39.667 145.333 39.667 144 39Z" fill="#3FB3BD"/>
<path opacity="0.01" fill-rule="evenodd" clip-rule="evenodd" d="M80 39C81.333 39.667 81.333 39.667 80 39Z" fill="#41B0B9"/>
<path opacity="0.01" fill-rule="evenodd" clip-rule="evenodd" d="M182 37C183.333 37.667 183.333 37.667 182 37Z" fill="#40ACB7"/>
<path opacity="0.01" fill-rule="evenodd" clip-rule="evenodd" d="M201 34C201.667 34 202 34.333 202 35C201.94 35.543 201.607 35.876 201 36C199.727 35.243 199.727 34.577 201 34Z" fill="#43B1BD"/>
<path opacity="0.01" fill-rule="evenodd" clip-rule="evenodd" d="M113 29C112.261 29.131 111.594 28.964 111 28.5C111.937 27.808 112.603 27.975 113 29Z" fill="#43B1BD"/>
<path opacity="0.01" fill-rule="evenodd" clip-rule="evenodd" d="M191 27C190.333 27.667 190.333 27.667 191 27Z" fill="#48B3BF"/>
<path opacity="0.01" fill-rule="evenodd" clip-rule="evenodd" d="M185 25C186.333 25.667 186.333 25.667 185 25Z" fill="#43B2BE"/>
<path opacity="0.016" fill-rule="evenodd" clip-rule="evenodd" d="M183 24C184.333 24.667 184.333 24.667 183 24Z" fill="#42AFBC"/>
<path opacity="0.012" fill-rule="evenodd" clip-rule="evenodd" d="M183 23C183 23.333 183 23.667 183 24C182.33 23.519 182.33 23.185 183 23Z" fill="#43B0BA"/>
<path opacity="0.01" fill-rule="evenodd" clip-rule="evenodd" d="M168 19C169.333 19.667 169.333 19.667 168 19Z" fill="#44B3BD"/>
<path opacity="0.01" fill-rule="evenodd" clip-rule="evenodd" d="M155 19C156.333 19.667 156.333 19.667 155 19Z" fill="#40AFBA"/>
<path opacity="0.012" fill-rule="evenodd" clip-rule="evenodd" d="M114 19C114.739 18.869 115.406 19.036 116 19.5C115.063 20.192 114.397 20.025 114 19Z" fill="#41AFBC"/>
<path opacity="0.01" fill-rule="evenodd" clip-rule="evenodd" d="M168 18C168 18.333 168 18.667 168 19C167.33 18.519 167.33 18.185 168 18Z" fill="#41B0BB"/>
<path opacity="0.01" fill-rule="evenodd" clip-rule="evenodd" d="M165 18C166.333 18.667 166.333 18.667 165 18Z" fill="#43B1BD"/>
<path opacity="0.01" fill-rule="evenodd" clip-rule="evenodd" d="M162 18C163.333 18.667 163.333 18.667 162 18Z" fill="#42B2BE"/>
<path opacity="0.01" fill-rule="evenodd" clip-rule="evenodd" d="M119 18C120.333 18.667 120.333 18.667 119 18Z" fill="#43B4BF"/>
<path opacity="0.01" fill-rule="evenodd" clip-rule="evenodd" d="M162 18C161.333 16.667 161.333 16.667 162 18Z" fill="#43B2BB"/>
<path opacity="0.01" fill-rule="evenodd" clip-rule="evenodd" d="M126 18C126.397 16.975 127.063 16.808 128 17.5C127.406 17.964 126.739 18.131 126 18Z" fill="#40B1BD"/>
<path opacity="0.01" fill-rule="evenodd" clip-rule="evenodd" d="M156 16C157.333 16.667 157.333 16.667 156 16Z" fill="#40B1BA"/>
<path opacity="0.01" fill-rule="evenodd" clip-rule="evenodd" d="M138 16C139.333 16.667 139.333 16.667 138 16Z" fill="#40B1BB"/>
<path opacity="0.01" fill-rule="evenodd" clip-rule="evenodd" d="M131 16C132.333 16.667 132.333 16.667 131 16Z" fill="#42B1BB"/>
<path opacity="0.01" fill-rule="evenodd" clip-rule="evenodd" d="M144 15C145.333 15.667 145.333 15.667 144 15Z" fill="#40B0B8"/>
<path opacity="0.01" fill-rule="evenodd" clip-rule="evenodd" d="M140 16C140.397 14.975 141.063 14.808 142 15.5C141.406 15.964 140.739 16.131 140 16Z" fill="#40B0B7"/>
<path opacity="0.01" fill-rule="evenodd" clip-rule="evenodd" d="M153 41C154.025 41.397 154.192 42.063 153.5 43C153.036 42.406 152.869 41.739 153 41Z" fill="#43B1BE"/>
<path opacity="0.01" fill-rule="evenodd" clip-rule="evenodd" d="M158 43C159.333 43.667 159.333 43.667 158 43Z" fill="#41B4BF"/>
<path opacity="0.01" fill-rule="evenodd" clip-rule="evenodd" d="M161 43C162.333 43.667 162.333 43.667 161 43Z" fill="#41B4BE"/>
<path opacity="0.01" fill-rule="evenodd" clip-rule="evenodd" d="M76 44C77.333 44.667 77.333 44.667 76 44Z" fill="#41B1BB"/>
<path opacity="0.01" fill-rule="evenodd" clip-rule="evenodd" d="M167 45C166.333 45.667 166.333 45.667 167 45Z" fill="#44B4BD"/>
<path opacity="0.01" fill-rule="evenodd" clip-rule="evenodd" d="M126 47C127.333 47.667 127.333 47.667 126 47Z" fill="#45B5BF"/>
<path opacity="0.01" fill-rule="evenodd" clip-rule="evenodd" d="M52 52C53.333 52.667 53.333 52.667 52 52Z" fill="#3FA3AC"/>
<path opacity="0.01" fill-rule="evenodd" clip-rule="evenodd" d="M196 52C197.333 52.667 197.333 52.667 196 52Z" fill="#42B0BA"/>
<path opacity="0.01" fill-rule="evenodd" clip-rule="evenodd" d="M69 53C70.333 53.667 70.333 53.667 69 53Z" fill="#41B0BA"/>
<path opacity="0.01" fill-rule="evenodd" clip-rule="evenodd" d="M99 53C100.333 53.667 100.333 53.667 99 53Z" fill="#45B4BD"/>
<path opacity="0.012" fill-rule="evenodd" clip-rule="evenodd" d="M163 53C164.333 53.667 164.333 53.667 163 53Z" fill="#42B2BD"/>
<path opacity="0.01" fill-rule="evenodd" clip-rule="evenodd" d="M214 53C215.333 53.667 215.333 53.667 214 53Z" fill="#3EB0BD"/>
<path opacity="0.01" fill-rule="evenodd" clip-rule="evenodd" d="M179 54C178.333 54.667 178.333 54.667 179 54Z" fill="#40B2BC"/>
<path opacity="0.01" fill-rule="evenodd" clip-rule="evenodd" d="M79 56C78.333 54.667 78.333 54.667 79 56Z" fill="#42B3BD"/>
<path opacity="0.016" fill-rule="evenodd" clip-rule="evenodd" d="M217 56C216.333 54.667 216.333 54.667 217 56Z" fill="#41AEB9"/>
<path opacity="0.01" fill-rule="evenodd" clip-rule="evenodd" d="M50 56C51.333 56.667 51.333 56.667 50 56Z" fill="#40A0AC"/>
<path opacity="0.01" fill-rule="evenodd" clip-rule="evenodd" d="M101 57C102.333 57.667 102.333 57.667 101 57Z" fill="#41B4BE"/>
<path opacity="0.01" fill-rule="evenodd" clip-rule="evenodd" d="M217 56C217.333 56 217.667 56 218 56C217.667 58.667 217.333 58.667 217 56Z" fill="#3FAFBB"/>
<path opacity="0.01" fill-rule="evenodd" clip-rule="evenodd" d="M65 60C66.333 60.667 66.333 60.667 65 60Z" fill="#42B1BA"/>
<path opacity="0.01" fill-rule="evenodd" clip-rule="evenodd" d="M235 60C236.333 60.667 236.333 60.667 235 60Z" fill="#3DA6AF"/>
<path opacity="0.01" fill-rule="evenodd" clip-rule="evenodd" d="M183 62C183.342 61.162 184.008 60.828 185 61C184.658 61.838 183.992 62.172 183 62Z" fill="#41B2BC"/>
<path opacity="0.01" fill-rule="evenodd" clip-rule="evenodd" d="M183 62C183.131 62.739 182.964 63.406 182.5 64C181.808 63.063 181.975 62.397 183 62Z" fill="#42B2BF"/>
<path opacity="0.01" fill-rule="evenodd" clip-rule="evenodd" d="M184 64C185.333 64.667 185.333 64.667 184 64Z" fill="#42B4BB"/>
<path opacity="0.01" fill-rule="evenodd" clip-rule="evenodd" d="M187 64C186.333 64.667 186.333 64.667 187 64Z" fill="#44B3BC"/>
<path opacity="0.01" fill-rule="evenodd" clip-rule="evenodd" d="M182 65C183.333 65.667 183.333 65.667 182 65Z" fill="#42B3BE"/>
<path opacity="0.01" fill-rule="evenodd" clip-rule="evenodd" d="M191 76C192.333 76.667 192.333 76.667 191 76Z" fill="#42B3BE"/>
<path opacity="0.012" fill-rule="evenodd" clip-rule="evenodd" d="M67 77C68.333 77.667 68.333 77.667 67 77Z" fill="#41AFB8"/>
<path opacity="0.01" fill-rule="evenodd" clip-rule="evenodd" d="M192 79C193.333 79.667 193.333 79.667 192 79Z" fill="#42B3BA"/>
<path opacity="0.01" fill-rule="evenodd" clip-rule="evenodd" d="M208 79C209.333 79.667 209.333 79.667 208 79Z" fill="#42B3BB"/>
<path opacity="0.01" fill-rule="evenodd" clip-rule="evenodd" d="M223 79C224.333 79.667 224.333 79.667 223 79Z" fill="#43B0BA"/>
<path opacity="0.01" fill-rule="evenodd" clip-rule="evenodd" d="M194 82C193.333 82.667 193.333 82.667 194 82Z" fill="#40B2BD"/>
<path opacity="0.01" fill-rule="evenodd" clip-rule="evenodd" d="M185 84C186.333 84.667 186.333 84.667 185 84Z" fill="#40B2BD"/>
<path opacity="0.01" fill-rule="evenodd" clip-rule="evenodd" d="M66 87C65.333 85.667 65.333 85.667 66 87Z" fill="#3EAFB9"/>
<path opacity="0.01" fill-rule="evenodd" clip-rule="evenodd" d="M192 87C193.333 87.667 193.333 87.667 192 87Z" fill="#43B4BE"/>
<path opacity="0.01" fill-rule="evenodd" clip-rule="evenodd" d="M64 88C65.333 88.667 65.333 88.667 64 88Z" fill="#40AFBB"/>
<path opacity="0.01" fill-rule="evenodd" clip-rule="evenodd" d="M42 90C43.025 90.397 43.192 91.063 42.5 92C42.036 91.406 41.869 90.739 42 90Z" fill="#3EA5AE"/>
<path opacity="0.01" fill-rule="evenodd" clip-rule="evenodd" d="M57 97C58.333 97.667 58.333 97.667 57 97Z" fill="#43AFB9"/>
<path opacity="0.01" fill-rule="evenodd" clip-rule="evenodd" d="M42 98C43.333 98.667 43.333 98.667 42 98Z" fill="#3EA1AC"/>
<path opacity="0.01" fill-rule="evenodd" clip-rule="evenodd" d="M223 103C224.333 103.667 224.333 103.667 223 103Z" fill="#41B2BD"/>
<path opacity="0.01" fill-rule="evenodd" clip-rule="evenodd" d="M42 106C43.025 106.397 43.192 107.063 42.5 108C42.036 107.406 41.869 106.739 42 106Z" fill="#3DA2AC"/>
<path opacity="0.01" fill-rule="evenodd" clip-rule="evenodd" d="M65 109C64.333 109.667 64.333 109.667 65 109Z" fill="#3FA9B4"/>
<path opacity="0.01" fill-rule="evenodd" clip-rule="evenodd" d="M64 111C65.025 111.397 65.192 112.063 64.5 113C64.036 112.406 63.869 111.739 64 111Z" fill="#41AFB9"/>
<path opacity="0.01" fill-rule="evenodd" clip-rule="evenodd" d="M86 113C87.333 113.667 87.333 113.667 86 113Z" fill="#44B2BB"/>
<path opacity="0.01" fill-rule="evenodd" clip-rule="evenodd" d="M193 113C194.333 113.667 194.333 113.667 193 113Z" fill="#43B5BF"/>
<path opacity="0.01" fill-rule="evenodd" clip-rule="evenodd" d="M43 115C44.333 115.667 44.333 115.667 43 115Z" fill="#3EA2AB"/>
<path opacity="0.01" fill-rule="evenodd" clip-rule="evenodd" d="M88 120C86.975 119.603 86.808 118.937 87.5 118C87.964 118.594 88.131 119.261 88 120Z" fill="#41B2BC"/>
<path opacity="0.01" fill-rule="evenodd" clip-rule="evenodd" d="M233 119C232.333 119.667 232.333 119.667 233 119Z" fill="#3FAFB8"/>
<path opacity="0.01" fill-rule="evenodd" clip-rule="evenodd" d="M88 120C88.333 120 88.667 120 89 120C88.815 120.67 88.481 120.67 88 120Z" fill="#41B1BC"/>
<path opacity="0.01" fill-rule="evenodd" clip-rule="evenodd" d="M193 121C192.333 119.667 192.333 119.667 193 121Z" fill="#44B6BD"/>
<path opacity="0.01" fill-rule="evenodd" clip-rule="evenodd" d="M233 121C234.333 121.667 234.333 121.667 233 121Z" fill="#3FB0B9"/>
<path opacity="0.01" fill-rule="evenodd" clip-rule="evenodd" d="M236 123C235.333 123.667 235.333 123.667 236 123Z" fill="#40ACB7"/>
<path opacity="0.992" fill-rule="evenodd" clip-rule="evenodd" d="M163 54C178.726 65.286 186.392 80.786 186 100.5C185.93 117.566 179.93 132.066 168 144C166.066 144.61 164.399 145.61 163 147C154.89 149.715 147.39 149.048 140.5 145C140.117 145.556 138.617 143.889 138 144C132.061 138.071 126.728 134.404 120 129C108.223 114.995 106.223 99.661 114 83C115.656 81.04 117.323 79.04 119 77C133.284 66.764 146.45 68.097 158.5 81C164.553 91.86 166.053 103.194 163 115C161.605 117.642 160.105 120.309 158.5 123C156.497 125.422 153.997 126.255 151 125.5C145.452 122.997 144.952 119.164 149.5 114C151.727 108.172 152.393 102.172 151.5 96C151.126 94.009 150.293 92.342 149 91C148.144 87.122 145.811 84.622 142 83.5C128.226 81.769 121.559 87.936 122 102C121.914 106.99 123.081 111.656 125.5 116C131.534 124.703 139.367 131.203 149 135.5C152.428 136.201 155.762 135.868 159 134.5C162.254 131.753 164.92 128.586 167 125C171.804 117.128 174.137 108.461 174 99C173.608 95.651 173.108 92.317 172.5 89C169.791 85.075 167.791 80.408 166.5 75C163.721 71.047 160.221 68.047 156 66C154.677 63.818 153.01 62.151 151 63C149.966 61.813 148.633 61.98 147 61.5C143.943 61.244 140.943 60.744 138 60C134.723 60.754 131.39 61.254 128 61.5C126.009 61.874 124.342 62.707 123 64C112.103 69.067 104.937 77.401 101.5 89C96.978 106.02 100.145 120.854 111 133.5C140.145 157.187 149.645 187.354 139.5 224C137.769 230.538 135.269 236.705 132 242.5C128 243.167 124 243.167 120 242.5C118.902 241.73 118.902 240.897 120 240C131.67 217.685 133.837 194.685 126.5 171C123.628 164.307 119.461 158.64 114 154C114 152.667 113.333 152 112 152C110.739 148.916 109.906 147.082 106.5 146.5C106.833 146.167 105.667 145.833 106 145.5C103.766 143.437 101.766 141.271 100 139C95.547 133.09 91.88 126.756 89 120C83.457 95.985 89.457 75.485 107 58.5C124.778 46.292 143.445 44.792 163 54Z" fill="#269DAA"/>
<path opacity="0.01" fill-rule="evenodd" clip-rule="evenodd" d="M119 130C118.333 130.667 118.333 130.667 119 130Z" fill="#42B4BC"/>
<path opacity="0.01" fill-rule="evenodd" clip-rule="evenodd" d="M120 129C119.333 129.667 119.333 129.667 120 129Z" fill="#41B2BA"/>
<path opacity="0.016" fill-rule="evenodd" clip-rule="evenodd" d="M167 125C166.333 123.667 166.333 123.667 167 125Z" fill="#48B2BB"/>
<path opacity="0.01" fill-rule="evenodd" clip-rule="evenodd" d="M113 122C114.333 122.667 114.333 122.667 113 122Z" fill="#3FAFBD"/>
<path opacity="0.01" fill-rule="evenodd" clip-rule="evenodd" d="M142 119C143.333 119.667 143.333 119.667 142 119Z" fill="#40B1BB"/>
<path opacity="0.01" fill-rule="evenodd" clip-rule="evenodd" d="M111 119C112.333 119.667 112.333 119.667 111 119Z" fill="#3FB2BE"/>
<path opacity="0.01" fill-rule="evenodd" clip-rule="evenodd" d="M162 118C163.333 118.667 163.333 118.667 162 118Z" fill="#43B1BA"/>
<path opacity="0.01" fill-rule="evenodd" clip-rule="evenodd" d="M142 117C143.333 117.667 143.333 117.667 142 117Z" fill="#41B0BC"/>
<path opacity="0.01" fill-rule="evenodd" clip-rule="evenodd" d="M110 116C111.333 116.667 111.333 116.667 110 116Z" fill="#42B2BC"/>
<path opacity="0.01" fill-rule="evenodd" clip-rule="evenodd" d="M163 115C164.333 115.667 164.333 115.667 163 115Z" fill="#44B5BE"/>
<path opacity="0.01" fill-rule="evenodd" clip-rule="evenodd" d="M101 110C102.333 110.667 102.333 110.667 101 110Z" fill="#41B4BE"/>
<path opacity="0.01" fill-rule="evenodd" clip-rule="evenodd" d="M150 103C151.333 103.667 151.333 103.667 150 103Z" fill="#44B2BE"/>
<path opacity="0.01" fill-rule="evenodd" clip-rule="evenodd" d="M123 99C124.333 99.667 124.333 99.667 123 99Z" fill="#42B3BE"/>
<path opacity="0.01" fill-rule="evenodd" clip-rule="evenodd" d="M150 98C151.333 98.667 151.333 98.667 150 98Z" fill="#42B2BD"/>
<path opacity="0.01" fill-rule="evenodd" clip-rule="evenodd" d="M101 97C102.333 97.667 102.333 97.667 101 97Z" fill="#43B3BF"/>
<path opacity="0.01" fill-rule="evenodd" clip-rule="evenodd" d="M101 95C102.333 95.667 102.333 95.667 101 95Z" fill="#43B4BE"/>
<path opacity="0.01" fill-rule="evenodd" clip-rule="evenodd" d="M149 91C148.333 91.667 148.333 91.667 149 91Z" fill="#40B3BD"/>
<path opacity="0.01" fill-rule="evenodd" clip-rule="evenodd" d="M144 87C145.333 87.667 145.333 87.667 144 87Z" fill="#40B1BC"/>
<path opacity="0.01" fill-rule="evenodd" clip-rule="evenodd" d="M114 83C112.975 82.603 112.808 81.937 113.5 81C113.964 81.594 114.131 82.261 114 83Z" fill="#40B1BC"/>
<path opacity="0.01" fill-rule="evenodd" clip-rule="evenodd" d="M119 77C118.333 75.667 118.333 75.667 119 77Z" fill="#44B1BA"/>
<path opacity="0.01" fill-rule="evenodd" clip-rule="evenodd" d="M127 70C128.333 70.667 128.333 70.667 127 70Z" fill="#42B4BD"/>
<path opacity="0.01" fill-rule="evenodd" clip-rule="evenodd" d="M158 69C159.333 69.667 159.333 69.667 158 69Z" fill="#42B3BD"/>
<path opacity="0.01" fill-rule="evenodd" clip-rule="evenodd" d="M140 68C141.333 68.667 141.333 68.667 140 68Z" fill="#44B5BC"/>
<path opacity="0.01" fill-rule="evenodd" clip-rule="evenodd" d="M156 66C155.603 67.025 154.937 67.192 154 66.5C154.594 66.036 155.261 65.869 156 66Z" fill="#41B2BD"/>
<path opacity="0.01" fill-rule="evenodd" clip-rule="evenodd" d="M123 64C124.333 64.667 124.333 64.667 123 64Z" fill="#41B3BC"/>
<path opacity="0.01" fill-rule="evenodd" clip-rule="evenodd" d="M70 134C71.333 134.667 71.333 134.667 70 134Z" fill="#41ACB8"/>
<path opacity="0.01" fill-rule="evenodd" clip-rule="evenodd" d="M151 134C152.333 134.667 152.333 134.667 151 134Z" fill="#40B1BB"/>
<path opacity="0.01" fill-rule="evenodd" clip-rule="evenodd" d="M49 135C49.131 135.739 48.964 136.406 48.5 137C47.808 136.063 47.975 135.397 49 135Z" fill="#41A5AF"/>
<path opacity="0.01" fill-rule="evenodd" clip-rule="evenodd" d="M94 135C95.333 135.667 95.333 135.667 94 135Z" fill="#3FAFB8"/>
<path opacity="0.01" fill-rule="evenodd" clip-rule="evenodd" d="M72 138C73.333 138.667 73.333 138.667 72 138Z" fill="#43AFBB"/>
<path opacity="0.012" fill-rule="evenodd" clip-rule="evenodd" d="M100 139C99.333 139.667 99.333 139.667 100 139Z" fill="#3FADB8"/>
<path opacity="0.01" fill-rule="evenodd" clip-rule="evenodd" d="M185 140C186.333 140.667 186.333 140.667 185 140Z" fill="#43B3BE"/>
<path opacity="0.016" fill-rule="evenodd" clip-rule="evenodd" d="M244 141C243.333 141 243 141.333 243 142C241.787 141.003 241.954 140.003 243.5 139C243.964 139.594 244.131 140.261 244 141Z" fill="#41AFBA"/>
<path opacity="0.01" fill-rule="evenodd" clip-rule="evenodd" d="M168 144C169.333 144.667 169.333 144.667 168 144Z" fill="#42B3BC"/>
<path opacity="0.01" fill-rule="evenodd" clip-rule="evenodd" d="M134 145C135.333 145.667 135.333 145.667 134 145Z" fill="#40B3BE"/>
<path opacity="0.01" fill-rule="evenodd" clip-rule="evenodd" d="M139 146C138.333 146.667 138.333 146.667 139 146Z" fill="#40B2BC"/>
<path opacity="0.01" fill-rule="evenodd" clip-rule="evenodd" d="M163 147C164.333 147.667 164.333 147.667 163 147Z" fill="#45B2BD"/>
<path opacity="0.01" fill-rule="evenodd" clip-rule="evenodd" d="M197 150C198.333 150.667 198.333 150.667 197 150Z" fill="#42B3BC"/>
<path opacity="0.01" fill-rule="evenodd" clip-rule="evenodd" d="M56 151C55.333 151.667 55.333 151.667 56 151Z" fill="#3FA9B1"/>
<path opacity="0.01" fill-rule="evenodd" clip-rule="evenodd" d="M112 152C111.333 152.667 111.333 152.667 112 152Z" fill="#3EB0B9"/>
<path opacity="0.01" fill-rule="evenodd" clip-rule="evenodd" d="M196 152C197.333 152.667 197.333 152.667 196 152Z" fill="#42B3BC"/>
<path opacity="0.01" fill-rule="evenodd" clip-rule="evenodd" d="M54 153C55.333 153.667 55.333 153.667 54 153Z" fill="#40A6B0"/>
<path opacity="0.01" fill-rule="evenodd" clip-rule="evenodd" d="M114 154C113.333 154.667 113.333 154.667 114 154Z" fill="#3DAEB9"/>
<path opacity="0.012" fill-rule="evenodd" clip-rule="evenodd" d="M251 155C252.333 155.667 252.333 155.667 251 155Z" fill="#3FA6B0"/>
<path opacity="0.01" fill-rule="evenodd" clip-rule="evenodd" d="M76 156C77.333 156.667 77.333 156.667 76 156Z" fill="#43AFB8"/>
<path opacity="0.01" fill-rule="evenodd" clip-rule="evenodd" d="M104 156C105.333 156.667 105.333 156.667 104 156Z" fill="#41B4BB"/>
<path opacity="0.01" fill-rule="evenodd" clip-rule="evenodd" d="M195 157C196.333 157.667 196.333 157.667 195 157Z" fill="#42B6BD"/>
<path opacity="0.01" fill-rule="evenodd" clip-rule="evenodd" d="M88 158C87.333 158.667 87.333 158.667 88 158Z" fill="#3FAFB9"/>
<path opacity="0.012" fill-rule="evenodd" clip-rule="evenodd" d="M242 158C243.333 158.667 243.333 158.667 242 158Z" fill="#3FB0B9"/>
<path opacity="0.01" fill-rule="evenodd" clip-rule="evenodd" d="M91 161C90.333 161.667 90.333 161.667 91 161Z" fill="#3FACB8"/>
<path opacity="0.01" fill-rule="evenodd" clip-rule="evenodd" d="M242 161C243.333 161.667 243.333 161.667 242 161Z" fill="#3EADB7"/>
<path opacity="0.01" fill-rule="evenodd" clip-rule="evenodd" d="M120 163C119.333 161.667 119.333 161.667 120 163Z" fill="#42B2BD"/>
<path opacity="0.01" fill-rule="evenodd" clip-rule="evenodd" d="M120 163C121.333 163.667 121.333 163.667 120 163Z" fill="#43B3BC"/>
<path opacity="0.01" fill-rule="evenodd" clip-rule="evenodd" d="M111 164C112.333 164.667 112.333 164.667 111 164Z" fill="#43B2BB"/>
<path opacity="0.01" fill-rule="evenodd" clip-rule="evenodd" d="M85 167C86.333 167.667 86.333 167.667 85 167Z" fill="#40AFB7"/>
<path opacity="0.02" fill-rule="evenodd" clip-rule="evenodd" d="M96 167C95.333 167.667 95.333 167.667 96 167Z" fill="#3EB1B9"/>
<path opacity="0.01" fill-rule="evenodd" clip-rule="evenodd" d="M170 170C169.333 168.667 169.333 168.667 170 170Z" fill="#40B1BB"/>
<path opacity="0.01" fill-rule="evenodd" clip-rule="evenodd" d="M98 170C97.333 170.667 97.333 170.667 98 170Z" fill="#3EB0B9"/>
<path opacity="0.01" fill-rule="evenodd" clip-rule="evenodd" d="M72 172C71.333 172.667 71.333 172.667 72 172Z" fill="#3FAAB7"/>
<path opacity="0.01" fill-rule="evenodd" clip-rule="evenodd" d="M115 172C116.333 172.667 116.333 172.667 115 172Z" fill="#41B0BA"/>
<path opacity="0.01" fill-rule="evenodd" clip-rule="evenodd" d="M72 175C73.333 175.667 73.333 175.667 72 175Z" fill="#40ABB3"/>
<path opacity="0.01" fill-rule="evenodd" clip-rule="evenodd" d="M126 175C127.333 175.667 127.333 175.667 126 175Z" fill="#41B0BA"/>
<path opacity="0.01" fill-rule="evenodd" clip-rule="evenodd" d="M76 178C75.333 178.667 75.333 178.667 76 178Z" fill="#3CA9B4"/>
<path opacity="0.01" fill-rule="evenodd" clip-rule="evenodd" d="M127 180C128.333 180.667 128.333 180.667 127 180Z" fill="#3EB1BB"/>
<path opacity="0.01" fill-rule="evenodd" clip-rule="evenodd" d="M128 184C129.333 184.667 129.333 184.667 128 184Z" fill="#40B3BB"/>
<path opacity="0.01" fill-rule="evenodd" clip-rule="evenodd" d="M223 186C224.333 186.667 224.333 186.667 223 186Z" fill="#43B4BF"/>
<path opacity="0.01" fill-rule="evenodd" clip-rule="evenodd" d="M103 188C104.333 188.667 104.333 188.667 103 188Z" fill="#40B0BB"/>
<path opacity="0.01" fill-rule="evenodd" clip-rule="evenodd" d="M128 188C129.333 188.667 129.333 188.667 128 188Z" fill="#41B1BC"/>
<path opacity="0.01" fill-rule="evenodd" clip-rule="evenodd" d="M224 188C225.025 188.397 225.192 189.063 224.5 190C224.036 189.406 223.869 188.739 224 188Z" fill="#41B2BD"/>
<path opacity="0.01" fill-rule="evenodd" clip-rule="evenodd" d="M79 191C80.333 191.667 80.333 191.667 79 191Z" fill="#40AEB7"/>
<path opacity="0.01" fill-rule="evenodd" clip-rule="evenodd" d="M103 190C105.637 191.654 105.303 192.154 102 191.5C102.556 191.117 102.889 190.617 103 190Z" fill="#41B1BB"/>
<path opacity="0.01" fill-rule="evenodd" clip-rule="evenodd" d="M106 193C105.333 193.667 105.333 193.667 106 193Z" fill="#3EAFB7"/>
<path opacity="0.01" fill-rule="evenodd" clip-rule="evenodd" d="M129 193C130.025 193.397 130.192 194.063 129.5 195C129.036 194.406 128.869 193.739 129 193Z" fill="#3FAFBC"/>
<path opacity="0.01" fill-rule="evenodd" clip-rule="evenodd" d="M225 193C226.025 193.397 226.192 194.063 225.5 195C225.036 194.406 224.869 193.739 225 193Z" fill="#3EB2BE"/>
<path opacity="0.01" fill-rule="evenodd" clip-rule="evenodd" d="M80 195C81.025 195.397 81.192 196.063 80.5 197C80.036 196.406 79.869 195.739 80 195Z" fill="#3FACB8"/>
<path opacity="0.012" fill-rule="evenodd" clip-rule="evenodd" d="M172 196C173.333 196.667 173.333 196.667 172 196Z" fill="#43B2BE"/>
<path opacity="0.01" fill-rule="evenodd" clip-rule="evenodd" d="M78 199C79.333 199.667 79.333 199.667 78 199Z" fill="#40ACB8"/>
<path opacity="0.01" fill-rule="evenodd" clip-rule="evenodd" d="M79.9999 199C81.0979 200.101 81.2649 201.434 80.4999 203C80.0099 201.707 79.8429 200.373 79.9999 199Z" fill="#40ADB8"/>
<path opacity="0.01" fill-rule="evenodd" clip-rule="evenodd" d="M78 201C79.333 201.667 79.333 201.667 78 201Z" fill="#3EADB8"/>
<path opacity="0.01" fill-rule="evenodd" clip-rule="evenodd" d="M150 207C151.333 207.667 151.333 207.667 150 207Z" fill="#41B2BA"/>
<path opacity="0.01" fill-rule="evenodd" clip-rule="evenodd" d="M202 208C203.333 208.667 203.333 208.667 202 208Z" fill="#41B2BD"/>
<path opacity="0.01" fill-rule="evenodd" clip-rule="evenodd" d="M152 209C153.333 209.667 153.333 209.667 152 209Z" fill="#41B2BB"/>
<path opacity="0.01" fill-rule="evenodd" clip-rule="evenodd" d="M79 213C80.333 213.667 80.333 213.667 79 213Z" fill="#3FADB6"/>
<path opacity="0.01" fill-rule="evenodd" clip-rule="evenodd" d="M178 213C179.333 213.667 179.333 213.667 178 213Z" fill="#41B1BA"/>
<path opacity="0.01" fill-rule="evenodd" clip-rule="evenodd" d="M178 214C178 214.333 178 214.667 178 215C177.33 214.519 177.33 214.185 178 214Z" fill="#41B1BA"/>
<path opacity="0.01" fill-rule="evenodd" clip-rule="evenodd" d="M151 219C150.333 217.667 150.333 217.667 151 219Z" fill="#41B2BD"/>
<path opacity="0.01" fill-rule="evenodd" clip-rule="evenodd" d="M93 219C94.333 219.667 94.333 219.667 93 219Z" fill="#3EA9B3"/>
<path opacity="0.01" fill-rule="evenodd" clip-rule="evenodd" d="M216 223C217.333 223.667 217.333 223.667 216 223Z" fill="#40B1B9"/>
<path opacity="0.01" fill-rule="evenodd" clip-rule="evenodd" d="M192 224C193.333 224.667 193.333 224.667 192 224Z" fill="#41B2BC"/>
<path opacity="0.01" fill-rule="evenodd" clip-rule="evenodd" d="M208 224C209.333 224.667 209.333 224.667 208 224Z" fill="#41B5BC"/>
<path opacity="0.012" fill-rule="evenodd" clip-rule="evenodd" d="M169 225C170.333 225.667 170.333 225.667 169 225Z" fill="#41B0BB"/>
<path opacity="0.012" fill-rule="evenodd" clip-rule="evenodd" d="M115 227C116.333 227.667 116.333 227.667 115 227Z" fill="#40B3BB"/>
<path opacity="0.012" fill-rule="evenodd" clip-rule="evenodd" d="M163 226C164.025 226.397 164.192 227.063 163.5 228C163.036 227.406 162.869 226.739 163 226Z" fill="#3EB1BB"/>
<path opacity="0.01" fill-rule="evenodd" clip-rule="evenodd" d="M119 228C120.333 228.667 120.333 228.667 119 228Z" fill="#41B0BB"/>
<path opacity="0.012" fill-rule="evenodd" clip-rule="evenodd" d="M138 231C139.333 231.667 139.333 231.667 138 231Z" fill="#40AEB8"/>
<path opacity="0.01" fill-rule="evenodd" clip-rule="evenodd" d="M145 233C146.333 233.667 146.333 233.667 145 233Z" fill="#40B3BD"/>
<path opacity="0.01" fill-rule="evenodd" clip-rule="evenodd" d="M121 234C122.333 234.667 122.333 234.667 121 234Z" fill="#41B1BA"/>
<path opacity="0.012" fill-rule="evenodd" clip-rule="evenodd" d="M120 240C119.333 238.667 119.333 238.667 120 240Z" fill="#42B0BA"/>
<path opacity="0.012" fill-rule="evenodd" clip-rule="evenodd" d="M145 241C144.333 239.667 144.333 239.667 145 241Z" fill="#40B1BB"/>
<path opacity="0.01" fill-rule="evenodd" clip-rule="evenodd" d="M84 242C85.333 242.667 85.333 242.667 84 242Z" fill="#41ACB7"/>
<path opacity="0.01" fill-rule="evenodd" clip-rule="evenodd" d="M143 242C144.333 242.667 144.333 242.667 143 242Z" fill="#3DAFB8"/>
<path opacity="0.018" fill-rule="evenodd" clip-rule="evenodd" d="M169 234C169 236.667 169 239.333 169 242C172.667 242 176.333 242 180 242C180.03 242.997 179.53 243.664 178.5 244C175.273 242.896 171.94 242.896 168.5 244C166.656 242.329 165.99 240.329 166.5 238C166.833 239 167.167 240 167.5 241C167.686 238.464 168.186 236.131 169 234Z" fill="#4BB6C1"/>
<path opacity="0.01" fill-rule="evenodd" clip-rule="evenodd" d="M96 243C95.603 244.025 94.937 244.192 94 243.5C94.594 243.036 95.261 242.869 96 243Z" fill="#3FACB8"/>
<path opacity="0.01" fill-rule="evenodd" clip-rule="evenodd" d="M265 265C266.333 265.667 266.333 265.667 265 265Z" fill="#3DA4AC"/>
<path opacity="0.01" fill-rule="evenodd" clip-rule="evenodd" d="M76 268C77.333 268.667 77.333 268.667 76 268Z" fill="#3FADB7"/>
<path opacity="0.01" fill-rule="evenodd" clip-rule="evenodd" d="M99 269C98.333 267.667 98.333 267.667 99 269Z" fill="#3DACB4"/>
<path opacity="0.01" fill-rule="evenodd" clip-rule="evenodd" d="M223 268C224.333 268.667 224.333 268.667 223 268Z" fill="#40AEB4"/>
<path opacity="0.01" fill-rule="evenodd" clip-rule="evenodd" d="M287 268C288.333 268.667 288.333 268.667 287 268Z" fill="#3899A3"/>
<path opacity="0.01" fill-rule="evenodd" clip-rule="evenodd" d="M16 269C17.333 269.667 17.333 269.667 16 269Z" fill="#3BA2AB"/>
<path opacity="0.994" fill-rule="evenodd" clip-rule="evenodd" d="M67 266C72.534 266.702 75.534 269.868 76 275.5C74.149 278.705 72.482 281.538 71 284C61.098 283.948 57.598 279.281 60.5 270C62.292 267.872 64.458 266.539 67 266Z" fill="#279BA7"/>
<path opacity="0.01" fill-rule="evenodd" clip-rule="evenodd" d="M94 269C95.333 269.667 95.333 269.667 94 269Z" fill="#3EAAB5"/>
<path opacity="0.01" fill-rule="evenodd" clip-rule="evenodd" d="M58 270C59.333 270.667 59.333 270.667 58 270Z" fill="#40AAB4"/>
<path opacity="0.996" fill-rule="evenodd" clip-rule="evenodd" d="M227 338C215.457 344.223 203.79 344.557 192 339C186.202 335.024 182.035 329.691 179.5 323C180.01 324.826 178.344 324.493 179.5 323C179.355 322.228 179 318.814 177.5 320C179.158 319.275 178.158 318.608 177.5 317C176.435 318.896 176.602 313.063 176 311.5C176 305.5 177.624 309.681 176 305.5C176.77 296.028 179.437 287.194 184 279C197.533 265.271 212.533 263.438 229 273.5C235.319 279.304 239.153 286.47 240.5 295C241.258 301.373 241.758 307.539 242 313.5C239.512 318.948 237.012 324.448 234.5 330C231.795 332.536 229.295 335.203 227 338ZM223 320C217.699 329.414 210.032 331.914 200 327.5C195.839 324.346 193.339 320.179 192.5 315C190.166 304.336 191.833 294.336 197.5 285C198.988 283.34 200.821 282.34 203 282C206.779 279.55 206.279 278.383 210.5 280.5C208.5 279.62 210.5 280.5 213.5 280.5C213.5 277 217.011 282.941 217 282C219.69 283.856 221.856 286.189 223.5 289C225.23 294.404 226.396 299.737 227 305C226.916 310.458 225.583 315.458 223 320Z" fill="#249AA8"/>
<path opacity="0.996" fill-rule="evenodd" clip-rule="evenodd" d="M14 329C14.333 329 14.667 329 15 329C25.333 329 35.667 329 46 329C47.646 328.958 49.312 328.958 51 329C52.309 333.149 52.309 337.149 51 341C51.165 337.65 50.998 334.317 50.5 331C50.002 333.982 49.835 336.982 50 340C34.333 340 18.667 340 3.00003 340C3.30603 337.115 2.97303 334.448 2.00003 332C1.17903 325.817 1.17903 319.484 2.00003 313C3.04803 303.693 3.38103 289.026 3.00003 269C6.33303 269 9.66703 269 13 269C12.67 289.174 13.003 309.174 14 329Z" fill="#229AA8"/>
<path opacity="0.01" fill-rule="evenodd" clip-rule="evenodd" d="M16 271C17.333 271.667 17.333 271.667 16 271Z" fill="#3BA3AD"/>
<path opacity="0.01" fill-rule="evenodd" clip-rule="evenodd" d="M94 271C95.333 271.667 95.333 271.667 94 271Z" fill="#3FACB5"/>
<path opacity="0.01" fill-rule="evenodd" clip-rule="evenodd" d="M57 277C58.333 277.667 58.333 277.667 57 277Z" fill="#3FACB3"/>
<path opacity="0.01" fill-rule="evenodd" clip-rule="evenodd" d="M183 278C182.333 276.667 182.333 276.667 183 278Z" fill="#3FADB5"/>
<path opacity="0.01" fill-rule="evenodd" clip-rule="evenodd" d="M183 278C183.667 278 184 278.333 184 279C183.667 278.667 183.333 278.333 183 278Z" fill="#3EAEB6"/>
<path opacity="0.012" fill-rule="evenodd" clip-rule="evenodd" d="M298 278C299.333 278.667 299.333 278.667 298 278Z" fill="#399AA4"/>
<path opacity="0.01" fill-rule="evenodd" clip-rule="evenodd" d="M90 279C91.333 279.667 91.333 279.667 90 279Z" fill="#3CADB6"/>
<path opacity="0.01" fill-rule="evenodd" clip-rule="evenodd" d="M183 279C182.333 279.667 182.333 279.667 183 279Z" fill="#41AEB6"/>
<path opacity="0.01" fill-rule="evenodd" clip-rule="evenodd" d="M248 281C247.333 279.667 247.333 279.667 248 281Z" fill="#3BACB7"/>
<path opacity="0.01" fill-rule="evenodd" clip-rule="evenodd" d="M117 281C118.333 281.667 118.333 281.667 117 281Z" fill="#3DADB9"/>
<path opacity="0.01" fill-rule="evenodd" clip-rule="evenodd" d="M237 281C238.333 281.667 238.333 281.667 237 281Z" fill="#3EAAB5"/>
<path opacity="0.01" fill-rule="evenodd" clip-rule="evenodd" d="M117 282C116.333 282.667 116.333 282.667 117 282Z" fill="#3CADB8"/>
<path opacity="0.01" fill-rule="evenodd" clip-rule="evenodd" d="M207 281C209.475 281.247 209.475 281.913 207 283C206.037 282.53 206.037 281.863 207 281Z" fill="#3DB1BC"/>
<path opacity="0.01" fill-rule="evenodd" clip-rule="evenodd" d="M299 283C300.333 283.667 300.333 283.667 299 283Z" fill="#3D9EA7"/>
<path opacity="0.01" fill-rule="evenodd" clip-rule="evenodd" d="M86 284C87.333 284.667 87.333 284.667 86 284Z" fill="#3FB1B9"/>
<path opacity="0.996" fill-rule="evenodd" clip-rule="evenodd" d="M89 288C89.617 288.111 90.117 288.444 90.5 289C90.751 281.038 93.584 274.371 99 269C105.731 265.676 112.564 265.342 119.5 268C120.422 272.191 120.088 276.191 118.5 280C109.515 276.169 105.015 279.169 105 289C109.182 288.83 113.182 288.83 117 289C117.692 288.475 118.192 287.808 118.5 287C119.997 291.255 119.997 295.588 118.5 300C114.139 300.087 109.806 300.087 105.5 300C104.678 313.575 104.844 327.075 106 340.5C105.475 341.192 104.808 341.692 104 342C100.333 340.667 96.667 340.667 93 342C92 341.667 91.333 341 91 340C90.781 328.452 91.114 316.952 92 305.5C91.422 303.689 90.922 301.855 90.5 300C87.763 301.11 84.929 301.277 82 300.5C80.667 296.5 80.667 292.5 82 288.5C84.462 289.111 86.796 288.945 89 288Z" fill="#249AA8"/>
<path opacity="0.01" fill-rule="evenodd" clip-rule="evenodd" d="M112 279C113.333 279.667 113.333 279.667 112 279Z" fill="#3CAFB6"/>
<path opacity="0.01" fill-rule="evenodd" clip-rule="evenodd" d="M137 285C137.397 283.975 138.063 283.808 139 284.5C138.406 284.964 137.739 285.131 137 285Z" fill="#3CABB5"/>
<path opacity="0.01" fill-rule="evenodd" clip-rule="evenodd" d="M107 286C108.333 286.667 108.333 286.667 107 286Z" fill="#43AFB8"/>
<path opacity="0.576" fill-rule="evenodd" clip-rule="evenodd" d="M2 268C6.134 267.015 10.468 266.682 15 267C15.041 287.179 15.041 307.179 15 327C15 327.667 15 328.333 15 329C14.667 329 14.333 329 14 329C14 308.667 14 288.333 14 268C10 268 6 268 2 268Z" fill="#38A1AB"/>
<path opacity="0.01" fill-rule="evenodd" clip-rule="evenodd" d="M71 288C70.333 286.667 70.333 286.667 71 288Z" fill="#40B0B8"/>
<path opacity="0.01" fill-rule="evenodd" clip-rule="evenodd" d="M89 288C88.333 286.667 88.333 286.667 89 288Z" fill="#3CAFB6"/>
<path opacity="0.01" fill-rule="evenodd" clip-rule="evenodd" d="M157 287C158.333 287.667 158.333 287.667 157 287Z" fill="#3DABB4"/>
<path opacity="0.01" fill-rule="evenodd" clip-rule="evenodd" d="M177 289C178.333 289.667 178.333 289.667 177 289Z" fill="#3FAEB7"/>
<path opacity="0.01" fill-rule="evenodd" clip-rule="evenodd" d="M288 290C289.333 290.667 289.333 290.667 288 290Z" fill="#39A8B2"/>
<path opacity="0.01" fill-rule="evenodd" clip-rule="evenodd" d="M266 293C267.208 291.718 268.542 291.718 270 293C269.876 293.607 269.543 293.94 269 294C268.291 293.096 267.291 292.763 266 293Z" fill="#3DACB7"/>
<path opacity="0.01" fill-rule="evenodd" clip-rule="evenodd" d="M246 294C247.025 294.397 247.192 295.063 246.5 296C246.036 295.406 245.869 294.739 246 294Z" fill="#3EACB9"/>
<path opacity="0.972" fill-rule="evenodd" clip-rule="evenodd" d="M1.99997 268C5.99997 268 9.99997 268 14 268C14 288.333 14 308.667 14 329C13.003 309.174 12.67 289.174 13 269C9.66697 269 6.33297 269 2.99997 269C3.38097 289.026 3.04797 303.693 1.99997 313C0.820973 297.821 0.820973 282.821 1.99997 268Z" fill="#1E8C99"/>
<path opacity="0.01" fill-rule="evenodd" clip-rule="evenodd" d="M79 297C80.333 297.667 80.333 297.667 79 297Z" fill="#41B2BA"/>
<path opacity="0.01" fill-rule="evenodd" clip-rule="evenodd" d="M247 297C248.333 297.667 248.333 297.667 247 297Z" fill="#3EB1B8"/>
<path opacity="0.01" fill-rule="evenodd" clip-rule="evenodd" d="M282 297C283.333 297.667 283.333 297.667 282 297Z" fill="#3BA7B0"/>
<path opacity="0.01" fill-rule="evenodd" clip-rule="evenodd" d="M79.0001 298C79.0001 298.333 79.0001 298.667 79.0001 299C78.3301 298.519 78.3301 298.185 79.0001 298Z" fill="#3DB1B9"/>
<path opacity="0.996" fill-rule="evenodd" clip-rule="evenodd" d="M287 269C293.128 272.414 297.128 277.081 299 283C294.941 285.448 290.775 287.781 286.5 290C285.984 286.953 284.484 284.62 282 283C279.552 280.636 276.552 279.636 273 280C270.295 279.816 267.962 280.483 266 282C262.194 283.679 261.194 286.512 263 290.5C263.63 291.81 264.63 292.644 266 293C266.709 293.904 267.709 294.237 269 294C276.009 296.51 283.009 299.344 290 302.5C292.858 304.194 295.191 306.361 297 309C301.805 320.107 299.805 329.774 291 338C285.224 340.979 279.057 342.646 272.5 343C265.53 342.434 259.03 341.1 253 339C253.111 338.383 249.944 336.883 250.5 336.5C247.174 333.505 247.674 331.172 245 327.5C248.907 323.784 252.907 320.951 257 319C257.992 321.307 259.325 323.307 261 325C264.004 327.512 267.504 329.179 271.5 330C274.771 329.881 277.938 328.881 281 327C282.835 326.378 284.002 325.044 284.5 323C285.24 321.751 285.073 320.751 284 320C284.237 318.709 283.904 317.709 283 317C282.667 316 282 315.333 281 315C274.567 312.043 267.9 309.377 261 307C260.333 307.333 260.027 307.013 259 306.5C257.804 307.154 257.804 306.154 259 306.5C257.973 305.987 256.973 305.487 256 305C248.081 298.547 245.414 290.547 248 281C253.358 271.058 261.858 266.058 273.5 266C278.138 266.452 282.638 267.452 287 269Z" fill="#259AA7"/>
<path opacity="0.012" fill-rule="evenodd" clip-rule="evenodd" d="M282 283C281.603 284.025 280.937 284.192 280 283.5C280.594 283.036 281.261 282.869 282 283Z" fill="#3AA8B4"/>
<path opacity="0.01" fill-rule="evenodd" clip-rule="evenodd" d="M278 283C279.333 283.667 279.333 283.667 278 283Z" fill="#3CABB5"/>
<path opacity="0.01" fill-rule="evenodd" clip-rule="evenodd" d="M276 282C277.333 282.667 277.333 282.667 276 282Z" fill="#3CABB4"/>
<path opacity="0.01" fill-rule="evenodd" clip-rule="evenodd" d="M271 282C270.333 282.667 270.333 282.667 271 282Z" fill="#3CABB6"/>
<path opacity="0.01" fill-rule="evenodd" clip-rule="evenodd" d="M266 282C266.739 281.869 267.406 282.036 268 282.5C267.063 283.192 266.397 283.025 266 282Z" fill="#3AABB8"/>
<path opacity="0.012" fill-rule="evenodd" clip-rule="evenodd" d="M276 282C275.333 280.667 275.333 280.667 276 282Z" fill="#3CA9B6"/>
<path opacity="0.01" fill-rule="evenodd" clip-rule="evenodd" d="M271 282C271.751 280.927 272.751 280.76 274 281.5C273.052 281.983 272.052 282.149 271 282Z" fill="#3CAAB5"/>
<path opacity="0.01" fill-rule="evenodd" clip-rule="evenodd" d="M79 299C80.333 299.667 80.333 299.667 79 299Z" fill="#40ACB9"/>
<path opacity="0.01" fill-rule="evenodd" clip-rule="evenodd" d="M89 305C90.333 305.667 90.333 305.667 89 305Z" fill="#3CACB5"/>
<path opacity="0.01" fill-rule="evenodd" clip-rule="evenodd" d="M118 305C119.333 305.667 119.333 305.667 118 305Z" fill="#3DACB4"/>
<path opacity="0.01" fill-rule="evenodd" clip-rule="evenodd" d="M121 305C122.333 305.667 122.333 305.667 121 305Z" fill="#3CADB4"/>
<path opacity="0.01" fill-rule="evenodd" clip-rule="evenodd" d="M256 305C255.333 305.667 255.333 305.667 256 305Z" fill="#3CACB4"/>
<path opacity="0.996" fill-rule="evenodd" clip-rule="evenodd" d="M171 319C170.667 319 170.333 319 170 319C170.131 318.261 169.964 317.594 169.5 317C157.902 317.657 146.402 318.324 135 319C134.763 320.291 135.096 321.291 136 322C136.943 324.609 138.61 326.609 141 328C147 332 153 332 159 328C160.517 327.989 161.684 327.323 162.5 326C163.208 326.881 164.042 327.547 165 328C166.779 330.046 168.446 332.213 170 334.5C168.667 335.833 167.333 337.167 166 338.5C159.009 341.715 151.842 343.881 144.5 345C143.75 344.374 142.916 343.874 142 343.5C131.853 340.183 124.853 333.016 121 322C120.201 312.568 122.368 303.901 127.5 296C135.467 287.79 144.967 285.29 156 288.5C164.009 291.676 168.842 297.51 170.5 306C171.796 310.377 171.963 314.71 171 319ZM154 302C156.334 303.676 157.334 306.009 157 309C149.84 308.772 142.84 308.772 136 309C135.961 306.411 136.961 304.411 139 303C139.843 301.327 141.176 300.16 143 299.5C145.346 300.292 147.679 300.125 150 299C149.781 300.175 149.114 299.175 150 300C150.333 299.333 151.667 300.667 152 300C153.022 300.355 153.689 301.022 154 302Z" fill="#249AA7"/>
<path opacity="0.012" fill-rule="evenodd" clip-rule="evenodd" d="M172 308C173.333 308.667 173.333 308.667 172 308Z" fill="#3CABB3"/>
<path opacity="0.012" fill-rule="evenodd" clip-rule="evenodd" d="M297 308C298.333 308.667 298.333 308.667 297 308Z" fill="#389AA6"/>
<path opacity="0.01" fill-rule="evenodd" clip-rule="evenodd" d="M0 309C1.333 309.667 1.333 309.667 0 309Z" fill="#3A98A4"/>
<path opacity="0.01" fill-rule="evenodd" clip-rule="evenodd" d="M242 309C243.333 309.667 243.333 309.667 242 309Z" fill="#3CACB4"/>
<path opacity="0.01" fill-rule="evenodd" clip-rule="evenodd" d="M16 311C17.333 311.667 17.333 311.667 16 311Z" fill="#3EA8B3"/>
<path opacity="0.01" fill-rule="evenodd" clip-rule="evenodd" d="M268 311C269.333 311.667 269.333 311.667 268 311Z" fill="#3EABB4"/>
<path opacity="0.01" fill-rule="evenodd" clip-rule="evenodd" d="M175 311C176.025 311.397 176.192 312.063 175.5 313C175.036 312.406 174.869 311.739 175 311Z" fill="#3DADB6"/>
<path opacity="0.01" fill-rule="evenodd" clip-rule="evenodd" d="M272 312C273.333 312.667 273.333 312.667 272 312Z" fill="#3BA9B3"/>
<path opacity="0.01" fill-rule="evenodd" clip-rule="evenodd" d="M89 313C90.333 313.667 90.333 313.667 89 313Z" fill="#3BABB3"/>
<path opacity="0.01" fill-rule="evenodd" clip-rule="evenodd" d="M275 313C276.333 313.667 276.333 313.667 275 313Z" fill="#3CAAB6"/>
<path opacity="0.01" fill-rule="evenodd" clip-rule="evenodd" d="M119 313C120.098 314.101 120.265 315.434 119.5 317C119.01 315.707 118.843 314.373 119 313Z" fill="#3DACB6"/>
<path opacity="0.01" fill-rule="evenodd" clip-rule="evenodd" d="M175 314C176.333 314.667 176.333 314.667 175 314Z" fill="#3EACB6"/>
<path opacity="0.01" fill-rule="evenodd" clip-rule="evenodd" d="M281 315C280.603 316.025 279.937 316.192 279 315.5C279.594 315.036 280.261 314.869 281 315Z" fill="#3DA8B5"/>
<path opacity="0.01" fill-rule="evenodd" clip-rule="evenodd" d="M88 316C89.333 316.667 89.333 316.667 88 316Z" fill="#3CA7B3"/>
<path opacity="0.01" fill-rule="evenodd" clip-rule="evenodd" d="M255 316C256.333 316.667 256.333 316.667 255 316Z" fill="#3FABB4"/>
<path opacity="0.01" fill-rule="evenodd" clip-rule="evenodd" d="M300 316C301.333 316.667 301.333 316.667 300 316Z" fill="#33909A"/>
<path opacity="0.01" fill-rule="evenodd" clip-rule="evenodd" d="M119 318C120.025 318.397 120.192 319.063 119.5 320C119.036 319.406 118.869 318.739 119 318Z" fill="#3EABB6"/>
<path opacity="0.97" fill-rule="evenodd" clip-rule="evenodd" d="M170 319C158.333 319 146.667 319 135 319C146.402 318.324 157.902 317.657 169.5 317C169.964 317.594 170.131 318.261 170 319Z" fill="#1A848E"/>
<path opacity="0.01" fill-rule="evenodd" clip-rule="evenodd" d="M283 317C283.131 317.739 282.964 318.406 282.5 319C281.808 318.063 281.975 317.397 283 317Z" fill="#3DA8B2"/>
<path opacity="0.083" fill-rule="evenodd" clip-rule="evenodd" d="M135 319C146.667 319 158.333 319 170 319C170.333 319 170.667 319 171 319C159.758 319.358 148.591 320.358 137.5 322C136.721 319.403 136.221 319.403 136 322C135.096 321.291 134.763 320.291 135 319Z" fill="#4DBBC6"/>
<path opacity="0.01" fill-rule="evenodd" clip-rule="evenodd" d="M284 320C283.333 320.667 283.333 320.667 284 320Z" fill="#3BA8B1"/>
<path opacity="0.01" fill-rule="evenodd" clip-rule="evenodd" d="M89 321C90.025 321.397 90.192 322.063 89.5 323C89.036 322.406 88.869 321.739 89 321Z" fill="#3AA7B1"/>
<path opacity="0.01" fill-rule="evenodd" clip-rule="evenodd" d="M141 321C142.333 321.667 142.333 321.667 141 321Z" fill="#3FAFB7"/>
<path opacity="0.01" fill-rule="evenodd" clip-rule="evenodd" d="M121 322C120.333 322.667 120.333 322.667 121 322Z" fill="#3FAAB5"/>
<path opacity="0.01" fill-rule="evenodd" clip-rule="evenodd" d="M140 324C139.333 322.667 139.333 322.667 140 324Z" fill="#3BAEB9"/>
<path opacity="0.01" fill-rule="evenodd" clip-rule="evenodd" d="M140 324C141.333 324.667 141.333 324.667 140 324Z" fill="#3DABB6"/>
<path opacity="0.01" fill-rule="evenodd" clip-rule="evenodd" d="M261 324C262.333 324.667 262.333 324.667 261 324Z" fill="#3EADB6"/>
<path opacity="0.01" fill-rule="evenodd" clip-rule="evenodd" d="M118 325C119.025 325.397 119.192 326.063 118.5 327C118.036 326.406 117.869 325.739 118 325Z" fill="#3BA7B2"/>
<path opacity="0.01" fill-rule="evenodd" clip-rule="evenodd" d="M159 326C160.333 326.667 160.333 326.667 159 326Z" fill="#3CA9B4"/>
<path opacity="0.01" fill-rule="evenodd" clip-rule="evenodd" d="M179 326C180.333 326.667 180.333 326.667 179 326Z" fill="#3DA9B3"/>
<path opacity="0.01" fill-rule="evenodd" clip-rule="evenodd" d="M243 326C244.333 326.667 244.333 326.667 243 326Z" fill="#3CA4AF"/>
<path opacity="0.01" fill-rule="evenodd" clip-rule="evenodd" d="M281 327C280.261 327.131 279.594 326.964 279 326.5C279.937 325.808 280.603 325.975 281 327Z" fill="#3BA9B4"/>
<path opacity="0.01" fill-rule="evenodd" clip-rule="evenodd" d="M106 327C107.333 327.667 107.333 327.667 106 327Z" fill="#3AA5AE"/>
<path opacity="0.01" fill-rule="evenodd" clip-rule="evenodd" d="M141 327C142.333 327.667 142.333 327.667 141 327Z" fill="#3CABB8"/>
<path opacity="0.01" fill-rule="evenodd" clip-rule="evenodd" d="M159 327C159 327.333 159 327.667 159 328C158.33 327.519 158.33 327.185 159 327Z" fill="#3CA9B5"/>
<path opacity="0.016" fill-rule="evenodd" clip-rule="evenodd" d="M165 327C166.333 327.667 166.333 327.667 165 327Z" fill="#3DA7B2"/>
<path opacity="0.023" fill-rule="evenodd" clip-rule="evenodd" d="M15 327C25.463 327.621 35.796 328.288 46 329C35.667 329 25.333 329 15 329C15 328.333 15 327.667 15 327Z" fill="#4FB9C4"/>
<path opacity="0.01" fill-rule="evenodd" clip-rule="evenodd" d="M89 329C90.333 329.667 90.333 329.667 89 329Z" fill="#3BA6B0"/>
<path opacity="0.01" fill-rule="evenodd" clip-rule="evenodd" d="M122 329C123.273 329.577 123.273 330.243 122 331C121.037 330.53 121.037 329.863 122 329Z" fill="#3BA5B1"/>
<path opacity="0.01" fill-rule="evenodd" clip-rule="evenodd" d="M126 335C127.333 335.667 127.333 335.667 126 335Z" fill="#3DA3AF"/>
<path opacity="0.01" fill-rule="evenodd" clip-rule="evenodd" d="M57 337C58.333 337.667 58.333 337.667 57 337Z" fill="#3AA6B0"/>
<path opacity="0.01" fill-rule="evenodd" clip-rule="evenodd" d="M248 337C249.333 337.667 249.333 337.667 248 337Z" fill="#399DA8"/>
<path opacity="0.01" fill-rule="evenodd" clip-rule="evenodd" d="M227 338C228.333 338.667 228.333 338.667 227 338Z" fill="#39A0AC"/>
<path opacity="0.01" fill-rule="evenodd" clip-rule="evenodd" d="M291 338C292.333 338.667 292.333 338.667 291 338Z" fill="#33909A"/>
<path opacity="0.994" fill-rule="evenodd" clip-rule="evenodd" d="M71 288C72.924 289.407 74.59 290.407 76 291C74.461 293.989 73.461 297.156 73 300.5C73.231 313.883 73.231 327.716 73 342C68.833 340.697 64.666 340.697 60.5 342C59.423 340.384 58.923 338.551 59 336.5C59.578 321.722 59.578 306.556 59 291C59.667 289.667 60.667 288.667 62 288C65.135 289.283 68.135 289.283 71 288Z" fill="#2599A5"/>
<path opacity="0.01" fill-rule="evenodd" clip-rule="evenodd" d="M192 339C191.603 340.025 190.937 340.192 190 339.5C190.594 339.036 191.261 338.869 192 339Z" fill="#39A3AE"/>
<path opacity="0.961" fill-rule="evenodd" clip-rule="evenodd" d="M51 341C34.33 341.167 17.663 341 1 340.5C1.253 337.564 1.586 334.731 2 332C2.973 334.448 3.306 337.115 3 340C18.667 340 34.333 340 50 340C49.835 336.982 50.002 333.982 50.5 331C50.998 334.317 51.165 337.65 51 341Z" fill="#228691"/>
<path opacity="0.01" fill-rule="evenodd" clip-rule="evenodd" d="M51 342C52.333 342.667 52.333 342.667 51 342Z" fill="#3D9BA2"/>
<path opacity="0.01" fill-rule="evenodd" clip-rule="evenodd" d="M73 342C74.333 342.667 74.333 342.667 73 342Z" fill="#3B98A3"/>
<path opacity="0.01" fill-rule="evenodd" clip-rule="evenodd" d="M86 343C87.333 343.667 87.333 343.667 86 343Z" fill="#3A98A3"/>
<path opacity="0.01" fill-rule="evenodd" clip-rule="evenodd" d="M103 343C104.333 343.667 104.333 343.667 103 343Z" fill="#3A99A2"/>
<path opacity="0.01" fill-rule="evenodd" clip-rule="evenodd" d="M136 343C137.333 343.667 137.333 343.667 136 343Z" fill="#3B9AA4"/>
<path opacity="0.01" fill-rule="evenodd" clip-rule="evenodd" d="M157 344C157.397 342.975 158.063 342.808 159 343.5C158.406 343.964 157.739 344.131 157 344Z" fill="#3D9EA9"/>
<path opacity="0.01" fill-rule="evenodd" clip-rule="evenodd" d="M200 343C201.333 343.667 201.333 343.667 200 343Z" fill="#399EA6"/>
<path opacity="0.01" fill-rule="evenodd" clip-rule="evenodd" d="M262 343C263.333 343.667 263.333 343.667 262 343Z" fill="#3998A2"/>
<path opacity="0.01" fill-rule="evenodd" clip-rule="evenodd" d="M264 343C265.333 343.667 265.333 343.667 264 343Z" fill="#3897A1"/>
<path opacity="0.01" fill-rule="evenodd" clip-rule="evenodd" d="M152 345C152.397 343.975 153.063 343.808 154 344.5C153.406 344.964 152.739 345.131 152 345Z" fill="#3A9CA5"/>
<path opacity="0.01" fill-rule="evenodd" clip-rule="evenodd" d="M209 344C210.333 344.667 210.333 344.667 209 344Z" fill="#389CA4"/>
<path opacity="0.01" fill-rule="evenodd" clip-rule="evenodd" d="M267 344C268.333 344.667 268.333 344.667 267 344Z" fill="#38949F"/>
<path opacity="0.01" fill-rule="evenodd" clip-rule="evenodd" d="M271 345C271.751 343.927 272.751 343.76 274 344.5C273.052 344.983 272.052 345.149 271 345Z" fill="#36939D"/>
<path opacity="0.01" fill-rule="evenodd" clip-rule="evenodd" d="M89 345C90.333 345.667 90.333 345.667 89 345Z" fill="#3A96A0"/>
<path opacity="0.01" fill-rule="evenodd" clip-rule="evenodd" d="M150 345C151.333 345.667 151.333 345.667 150 345Z" fill="#3899A5"/>
<path opacity="0.01" fill-rule="evenodd" clip-rule="evenodd" d="M206 345C207.333 345.667 207.333 345.667 206 345Z" fill="#379BA5"/>
<path opacity="0.01" fill-rule="evenodd" clip-rule="evenodd" d="M92 347C93.333 347.667 93.333 347.667 92 347Z" fill="#37939F"/>
<path opacity="0.01" fill-rule="evenodd" clip-rule="evenodd" d="M155 347C156.333 347.667 156.333 347.667 155 347Z" fill="#3896A1"/>
<path opacity="0.01" fill-rule="evenodd" clip-rule="evenodd" d="M203 347C204.333 347.667 204.333 347.667 203 347Z" fill="#3699A3"/>
<path opacity="0.01" fill-rule="evenodd" clip-rule="evenodd" d="M268 347C269.333 347.667 269.333 347.667 268 347Z" fill="#358D99"/>
</svg>
