<svg width="217" height="244" viewBox="0 0 217 244" fill="none" xmlns="http://www.w3.org/2000/svg">
<path opacity="0.01" fill-rule="evenodd" clip-rule="evenodd" d="M114 0C115.333 0.667 115.333 0.667 114 0V0Z" fill="#3FA4AD"/>
<path opacity="0.01" fill-rule="evenodd" clip-rule="evenodd" d="M80 1C81.333 1.667 81.333 1.667 80 1V1Z" fill="#42A6AD"/>
<path opacity="0.012" fill-rule="evenodd" clip-rule="evenodd" d="M67 4C68.333 4.667 68.333 4.667 67 4V4Z" fill="#40A5AE"/>
<path opacity="0.01" fill-rule="evenodd" clip-rule="evenodd" d="M51 13C50.333 11.667 50.333 11.667 51 13V13Z" fill="#3FA3AD"/>
<path opacity="0.01" fill-rule="evenodd" clip-rule="evenodd" d="M159 15C160.333 15.667 160.333 15.667 159 15V15Z" fill="#3FA7AF"/>
<path opacity="0.01" fill-rule="evenodd" clip-rule="evenodd" d="M164 18C165.333 18.667 165.333 18.667 164 18V18Z" fill="#40A6B1"/>
<path opacity="0.01" fill-rule="evenodd" clip-rule="evenodd" d="M166 20C167.333 20.667 167.333 20.667 166 20V20Z" fill="#40A2AC"/>
<path opacity="0.01" fill-rule="evenodd" clip-rule="evenodd" d="M23 29C24.333 29.667 24.333 29.667 23 29V29Z" fill="#3C9CA6"/>
<path opacity="0.01" fill-rule="evenodd" clip-rule="evenodd" d="M29 30C28.333 28.667 28.333 28.667 29 30V30Z" fill="#40A0AB"/>
<path opacity="0.01" fill-rule="evenodd" clip-rule="evenodd" d="M26 30C27.333 30.667 27.333 30.667 26 30V30Z" fill="#3E9FA9"/>
<path opacity="0.993" fill-rule="evenodd" clip-rule="evenodd" d="M141 38C145.695 43.026 150.361 48.026 155 53C167.12 73.55 170.62 95.55 165.5 119C162.755 131.904 158.421 144.237 152.5 156C144.073 169.181 136.407 182.848 129.5 197C126.214 206.478 123.714 216.144 122 226C120.212 230.453 118.712 235.12 117.5 240C116.855 241.146 116.022 242.146 115 243C113.422 243.572 111.922 243.906 110.5 244C107.967 243.55 105.8 242.55 104 241C106.913 234.022 108.913 226.689 110 219C112.356 210.754 114.856 202.421 117.5 194C120.559 185.551 124.392 177.551 129 170C140.136 155.391 147.802 139.057 152 121C154.4 113.826 155.4 106.326 155 98.5C154.833 94.333 154.667 90.167 154.5 86C154.29 84.442 153.79 83.109 153 82C152.292 75.269 149.959 69.269 146 64C146.073 62.473 145.406 61.473 144 61C142.743 58.073 140.743 55.739 138 54C134.724 50.029 130.724 47.029 126 45C106.123 33.96 86.123 34.46 66 46.5C63.145 48.531 60.478 50.697 58 53C46.706 63.161 39.873 75.827 37.5 91C35.138 106.47 37.471 121.137 44.5 135C49.779 143.11 55.946 150.443 63 157C74.484 171.25 79.317 187.583 77.5 206C76.385 218.341 73.051 230.007 67.5 241C66.421 242.894 65.087 243.227 63.5 242C62.5 242 63 242 62.5 242C61.1896 242 60.761 242.259 59.5 242C57.936 242.489 56.436 242.822 55 243C54.359 242.018 54.193 242.518 53.5 241.5C53.846 240.304 54.5 240 54.5 240C59.129 230.757 62.462 221.424 64.5 212C64.89 207.986 65.39 203.986 66 200C65.316 197.543 64.983 195.209 65 193C64.922 184.316 62.255 176.649 57 170C57.073 168.473 56.406 167.473 55 167C54.081 164.411 52.414 162.411 50 161C49.333 159.667 48.333 158.667 47 158C34.188 144.044 26.521 127.711 24 109C24.168 101.874 24.501 94.541 25 87C27.567 75.977 31.9 65.644 38 56C46.979 44.02 58.312 35.02 72 29C96.944 21.173 119.944 24.173 141 38Z" fill="#269DAA"/>
<path opacity="0.01" fill-rule="evenodd" clip-rule="evenodd" d="M183 37C182.333 35.667 182.333 35.667 183 37V37Z" fill="#3FA5AD"/>
<path opacity="0.01" fill-rule="evenodd" clip-rule="evenodd" d="M183 37C184.333 37.667 184.333 37.667 183 37V37Z" fill="#40A4AB"/>
<path opacity="0.01" fill-rule="evenodd" clip-rule="evenodd" d="M185 38C186.333 38.667 186.333 38.667 185 38V38Z" fill="#3FA2AB"/>
<path opacity="0.995" fill-rule="evenodd" clip-rule="evenodd" d="M159 16C161.031 18.022 163.365 19.689 166 21C171.667 26 177 31.333 182 37C194.414 56.652 199.247 77.985 196.5 101C200.77 108.93 205.436 116.597 210.5 124C213.505 129.008 215.672 134.341 217 140C216.232 146.601 213.399 150.435 207.5 153.5C207.833 153.833 205.667 154.167 206 154.5C204.951 154.992 206 154.5 205 155C203.204 155.898 201.684 156.315 201 158C200.049 159.419 199.716 161.085 200 163C201 163.5 200.5 163.5 201 164.5C198.718 170.08 198.385 174.747 196 180.5C200.467 191.778 199.633 202.611 193.5 213C188.314 218.34 182.147 221.673 175 223C165.267 222.609 155.6 223.109 146 224.5C141.194 229.43 138.861 235.264 139 242C135.333 242 131.667 242 128 242C128 239.333 128 236.667 128 234C128.587 226.493 131.587 220.16 137 215C140.644 212.683 144.644 211.183 149 210.5C158 210.167 167 209.833 176 209.5C183.448 207.545 186.782 202.712 186 195C185.316 190.111 184.316 185.277 183 180.5C184.865 175.604 186.865 170.771 189 166C184.449 152.381 188.782 144.381 202 142C202.667 142 203 141.667 203 141C203.597 140.765 203.93 140.265 204 139.5C201.628 133.585 198.628 128.085 195 123C194.474 121.27 193.474 119.936 192 119C191.193 116.158 189.693 113.158 187.5 110C185.073 107.003 183.573 103.17 183 98.5C185.102 85.352 183.935 72.519 179.5 60C178.892 58.434 178.058 57.1 177 56C173.824 47.295 168.491 40.295 161 35C161 34.333 160.667 34 160 34C157.225 30.895 153.892 28.562 150 27C147.609 25.138 144.942 23.804 142 23C137.415 20.36 132.415 18.694 127 18C122.268 16.1 117.268 15.267 112 15.5C114.528 14.502 114.528 16.169 112 15.5C111.114 14.675 110.781 16.175 111 15C106.047 14.171 101.047 13.837 96 14C96.149 15.052 93.983 14.052 93.5 15C92.32 13.816 91.82 15.149 90 15C83.686 15.49 78.686 16.823 73 19C50.251 25.089 33.917 38.756 24 60C19.172 68.96 16.339 78.627 15.5 89C13.266 109.164 16.933 128.164 26.5 146C28.87 150.097 31.703 153.764 35 157C51.316 174.944 56.982 195.611 52 219C49.086 226.835 45.586 234.502 41.5 242C37.386 242.893 33.386 243.227 29.5 243C29.519 240.256 30.186 237.589 31.5 235C41.642 218.287 43.642 200.621 37.5 182C36.892 180.434 36.058 179.1 35 178C34.025 175.705 32.692 173.705 31 172C25.636 164.976 20.302 157.976 15 151C12.553 145.187 10.22 139.854 7.99997 135C-1.10303 104.132 1.72996 74.466 16.5 46C20.434 40.455 24.601 35.122 29 30C35.738 23.599 43.071 17.932 51 13C86.508 -3.84697 122.508 -2.84697 159 16Z" fill="#269CA9"/>
<path opacity="0.01" fill-rule="evenodd" clip-rule="evenodd" d="M110 40C111.333 40.667 111.333 40.667 110 40V40Z" fill="#41B3BD"/>
<path opacity="0.01" fill-rule="evenodd" clip-rule="evenodd" d="M103 39C104.333 39.667 104.333 39.667 103 39V39Z" fill="#3FB3BD"/>
<path opacity="0.01" fill-rule="evenodd" clip-rule="evenodd" d="M39 39C40.333 39.667 40.333 39.667 39 39V39Z" fill="#41B0B9"/>
<path opacity="0.01" fill-rule="evenodd" clip-rule="evenodd" d="M141 37C142.333 37.667 142.333 37.667 141 37V37Z" fill="#40ACB7"/>
<path opacity="0.01" fill-rule="evenodd" clip-rule="evenodd" d="M160 34C160.667 34 161 34.333 161 35C160.94 35.543 160.607 35.876 160 36C158.727 35.243 158.727 34.577 160 34Z" fill="#43B1BD"/>
<path opacity="0.01" fill-rule="evenodd" clip-rule="evenodd" d="M72 29C71.261 29.131 70.594 28.964 70 28.5C70.937 27.808 71.603 27.975 72 29Z" fill="#43B1BD"/>
<path opacity="0.01" fill-rule="evenodd" clip-rule="evenodd" d="M150 27C149.333 27.667 149.333 27.667 150 27V27Z" fill="#48B3BF"/>
<path opacity="0.01" fill-rule="evenodd" clip-rule="evenodd" d="M144 25C145.333 25.667 145.333 25.667 144 25V25Z" fill="#43B2BE"/>
<path opacity="0.016" fill-rule="evenodd" clip-rule="evenodd" d="M142 24C143.333 24.667 143.333 24.667 142 24V24Z" fill="#42AFBC"/>
<path opacity="0.012" fill-rule="evenodd" clip-rule="evenodd" d="M142 23C142 23.333 142 23.667 142 24C141.33 23.519 141.33 23.185 142 23Z" fill="#43B0BA"/>
<path opacity="0.01" fill-rule="evenodd" clip-rule="evenodd" d="M127 19C128.333 19.667 128.333 19.667 127 19V19Z" fill="#44B3BD"/>
<path opacity="0.01" fill-rule="evenodd" clip-rule="evenodd" d="M114 19C115.333 19.667 115.333 19.667 114 19V19Z" fill="#40AFBA"/>
<path opacity="0.012" fill-rule="evenodd" clip-rule="evenodd" d="M73 19C73.739 18.869 74.406 19.036 75 19.5C74.063 20.192 73.397 20.025 73 19Z" fill="#41AFBC"/>
<path opacity="0.01" fill-rule="evenodd" clip-rule="evenodd" d="M127 18C127 18.333 127 18.667 127 19C126.33 18.519 126.33 18.185 127 18Z" fill="#41B0BB"/>
<path opacity="0.01" fill-rule="evenodd" clip-rule="evenodd" d="M124 18C125.333 18.667 125.333 18.667 124 18V18Z" fill="#43B1BD"/>
<path opacity="0.01" fill-rule="evenodd" clip-rule="evenodd" d="M121 18C122.333 18.667 122.333 18.667 121 18V18Z" fill="#42B2BE"/>
<path opacity="0.01" fill-rule="evenodd" clip-rule="evenodd" d="M78 18C79.333 18.667 79.333 18.667 78 18V18Z" fill="#43B4BF"/>
<path opacity="0.01" fill-rule="evenodd" clip-rule="evenodd" d="M121 18C120.333 16.667 120.333 16.667 121 18V18Z" fill="#43B2BB"/>
<path opacity="0.01" fill-rule="evenodd" clip-rule="evenodd" d="M85 18C85.397 16.975 86.063 16.808 87 17.5C86.406 17.964 85.739 18.131 85 18Z" fill="#40B1BD"/>
<path opacity="0.01" fill-rule="evenodd" clip-rule="evenodd" d="M115 16C116.333 16.667 116.333 16.667 115 16V16Z" fill="#40B1BA"/>
<path opacity="0.01" fill-rule="evenodd" clip-rule="evenodd" d="M97 16C98.333 16.667 98.333 16.667 97 16V16Z" fill="#40B1BB"/>
<path opacity="0.01" fill-rule="evenodd" clip-rule="evenodd" d="M90 16C91.333 16.667 91.333 16.667 90 16V16Z" fill="#42B1BB"/>
<path opacity="0.01" fill-rule="evenodd" clip-rule="evenodd" d="M103 15C104.333 15.667 104.333 15.667 103 15V15Z" fill="#40B0B8"/>
<path opacity="0.01" fill-rule="evenodd" clip-rule="evenodd" d="M99 16C99.397 14.975 100.063 14.808 101 15.5C100.406 15.964 99.739 16.131 99 16Z" fill="#40B0B7"/>
<path opacity="0.01" fill-rule="evenodd" clip-rule="evenodd" d="M112 41C113.025 41.397 113.192 42.063 112.5 43C112.036 42.406 111.869 41.739 112 41Z" fill="#43B1BE"/>
<path opacity="0.01" fill-rule="evenodd" clip-rule="evenodd" d="M117 43C118.333 43.667 118.333 43.667 117 43V43Z" fill="#41B4BF"/>
<path opacity="0.01" fill-rule="evenodd" clip-rule="evenodd" d="M120 43C121.333 43.667 121.333 43.667 120 43V43Z" fill="#41B4BE"/>
<path opacity="0.01" fill-rule="evenodd" clip-rule="evenodd" d="M35 44C36.333 44.667 36.333 44.667 35 44V44Z" fill="#41B1BB"/>
<path opacity="0.01" fill-rule="evenodd" clip-rule="evenodd" d="M126 45C125.333 45.667 125.333 45.667 126 45V45Z" fill="#44B4BD"/>
<path opacity="0.01" fill-rule="evenodd" clip-rule="evenodd" d="M85 47C86.333 47.667 86.333 47.667 85 47V47Z" fill="#45B5BF"/>
<path opacity="0.01" fill-rule="evenodd" clip-rule="evenodd" d="M11 52C12.333 52.667 12.333 52.667 11 52V52Z" fill="#3FA3AC"/>
<path opacity="0.01" fill-rule="evenodd" clip-rule="evenodd" d="M155 52C156.333 52.667 156.333 52.667 155 52V52Z" fill="#42B0BA"/>
<path opacity="0.01" fill-rule="evenodd" clip-rule="evenodd" d="M28 53C29.333 53.667 29.333 53.667 28 53V53Z" fill="#41B0BA"/>
<path opacity="0.01" fill-rule="evenodd" clip-rule="evenodd" d="M58 53C59.333 53.667 59.333 53.667 58 53V53Z" fill="#45B4BD"/>
<path opacity="0.012" fill-rule="evenodd" clip-rule="evenodd" d="M122 53C123.333 53.667 123.333 53.667 122 53V53Z" fill="#42B2BD"/>
<path opacity="0.01" fill-rule="evenodd" clip-rule="evenodd" d="M173 53C174.333 53.667 174.333 53.667 173 53V53Z" fill="#3EB0BD"/>
<path opacity="0.01" fill-rule="evenodd" clip-rule="evenodd" d="M138 54C137.333 54.667 137.333 54.667 138 54V54Z" fill="#40B2BC"/>
<path opacity="0.01" fill-rule="evenodd" clip-rule="evenodd" d="M38 56C37.333 54.667 37.333 54.667 38 56V56Z" fill="#42B3BD"/>
<path opacity="0.016" fill-rule="evenodd" clip-rule="evenodd" d="M176 56C175.333 54.667 175.333 54.667 176 56V56Z" fill="#41AEB9"/>
<path opacity="0.01" fill-rule="evenodd" clip-rule="evenodd" d="M9 56C10.333 56.667 10.333 56.667 9 56V56Z" fill="#40A0AC"/>
<path opacity="0.01" fill-rule="evenodd" clip-rule="evenodd" d="M60 57C61.333 57.667 61.333 57.667 60 57V57Z" fill="#41B4BE"/>
<path opacity="0.01" fill-rule="evenodd" clip-rule="evenodd" d="M176 56C176.333 56 176.667 56 177 56C176.667 58.667 176.333 58.667 176 56Z" fill="#3FAFBB"/>
<path opacity="0.01" fill-rule="evenodd" clip-rule="evenodd" d="M24 60C25.333 60.667 25.333 60.667 24 60V60Z" fill="#42B1BA"/>
<path opacity="0.01" fill-rule="evenodd" clip-rule="evenodd" d="M194 60C195.333 60.667 195.333 60.667 194 60V60Z" fill="#3DA6AF"/>
<path opacity="0.01" fill-rule="evenodd" clip-rule="evenodd" d="M142 62C142.342 61.162 143.008 60.828 144 61C143.658 61.838 142.992 62.172 142 62Z" fill="#41B2BC"/>
<path opacity="0.01" fill-rule="evenodd" clip-rule="evenodd" d="M142 62C142.131 62.739 141.964 63.406 141.5 64C140.808 63.063 140.975 62.397 142 62Z" fill="#42B2BF"/>
<path opacity="0.01" fill-rule="evenodd" clip-rule="evenodd" d="M143 64C144.333 64.667 144.333 64.667 143 64V64Z" fill="#42B4BB"/>
<path opacity="0.01" fill-rule="evenodd" clip-rule="evenodd" d="M146 64C145.333 64.667 145.333 64.667 146 64V64Z" fill="#44B3BC"/>
<path opacity="0.01" fill-rule="evenodd" clip-rule="evenodd" d="M141 65C142.333 65.667 142.333 65.667 141 65V65Z" fill="#42B3BE"/>
<path opacity="0.01" fill-rule="evenodd" clip-rule="evenodd" d="M150 76C151.333 76.667 151.333 76.667 150 76V76Z" fill="#42B3BE"/>
<path opacity="0.012" fill-rule="evenodd" clip-rule="evenodd" d="M26 77C27.333 77.667 27.333 77.667 26 77V77Z" fill="#41AFB8"/>
<path opacity="0.01" fill-rule="evenodd" clip-rule="evenodd" d="M151 79C152.333 79.667 152.333 79.667 151 79V79Z" fill="#42B3BA"/>
<path opacity="0.01" fill-rule="evenodd" clip-rule="evenodd" d="M167 79C168.333 79.667 168.333 79.667 167 79V79Z" fill="#42B3BB"/>
<path opacity="0.01" fill-rule="evenodd" clip-rule="evenodd" d="M182 79C183.333 79.667 183.333 79.667 182 79V79Z" fill="#43B0BA"/>
<path opacity="0.01" fill-rule="evenodd" clip-rule="evenodd" d="M153 82C152.333 82.667 152.333 82.667 153 82V82Z" fill="#40B2BD"/>
<path opacity="0.01" fill-rule="evenodd" clip-rule="evenodd" d="M144 84C145.333 84.667 145.333 84.667 144 84V84Z" fill="#40B2BD"/>
<path opacity="0.01" fill-rule="evenodd" clip-rule="evenodd" d="M25 87C24.333 85.667 24.333 85.667 25 87V87Z" fill="#3EAFB9"/>
<path opacity="0.01" fill-rule="evenodd" clip-rule="evenodd" d="M151 87C152.333 87.667 152.333 87.667 151 87V87Z" fill="#43B4BE"/>
<path opacity="0.01" fill-rule="evenodd" clip-rule="evenodd" d="M23 88C24.333 88.667 24.333 88.667 23 88V88Z" fill="#40AFBB"/>
<path opacity="0.01" fill-rule="evenodd" clip-rule="evenodd" d="M0.999988 90C2.02499 90.397 2.19199 91.063 1.49999 92C1.03599 91.406 0.868988 90.739 0.999988 90Z" fill="#3EA5AE"/>
<path opacity="0.01" fill-rule="evenodd" clip-rule="evenodd" d="M16 97C17.333 97.667 17.333 97.667 16 97V97Z" fill="#43AFB9"/>
<path opacity="0.01" fill-rule="evenodd" clip-rule="evenodd" d="M1 98C2.333 98.667 2.333 98.667 1 98V98Z" fill="#3EA1AC"/>
<path opacity="0.01" fill-rule="evenodd" clip-rule="evenodd" d="M182 103C183.333 103.667 183.333 103.667 182 103V103Z" fill="#41B2BD"/>
<path opacity="0.01" fill-rule="evenodd" clip-rule="evenodd" d="M0.999988 106C2.02499 106.397 2.19199 107.063 1.49999 108C1.03599 107.406 0.868988 106.739 0.999988 106Z" fill="#3DA2AC"/>
<path opacity="0.01" fill-rule="evenodd" clip-rule="evenodd" d="M24 109C23.333 109.667 23.333 109.667 24 109V109Z" fill="#3FA9B4"/>
<path opacity="0.01" fill-rule="evenodd" clip-rule="evenodd" d="M23 111C24.025 111.397 24.192 112.063 23.5 113C23.036 112.406 22.869 111.739 23 111Z" fill="#41AFB9"/>
<path opacity="0.01" fill-rule="evenodd" clip-rule="evenodd" d="M45 113C46.333 113.667 46.333 113.667 45 113V113Z" fill="#44B2BB"/>
<path opacity="0.01" fill-rule="evenodd" clip-rule="evenodd" d="M152 113C153.333 113.667 153.333 113.667 152 113V113Z" fill="#43B5BF"/>
<path opacity="0.01" fill-rule="evenodd" clip-rule="evenodd" d="M2 115C3.333 115.667 3.333 115.667 2 115V115Z" fill="#3EA2AB"/>
<path opacity="0.01" fill-rule="evenodd" clip-rule="evenodd" d="M47 120C45.975 119.603 45.808 118.937 46.5 118C46.964 118.594 47.131 119.261 47 120Z" fill="#41B2BC"/>
<path opacity="0.01" fill-rule="evenodd" clip-rule="evenodd" d="M192 119C191.333 119.667 191.333 119.667 192 119V119Z" fill="#3FAFB8"/>
<path opacity="0.01" fill-rule="evenodd" clip-rule="evenodd" d="M47 120C47.333 120 47.667 120 48 120C47.815 120.67 47.481 120.67 47 120Z" fill="#41B1BC"/>
<path opacity="0.01" fill-rule="evenodd" clip-rule="evenodd" d="M152 121C151.333 119.667 151.333 119.667 152 121V121Z" fill="#44B6BD"/>
<path opacity="0.01" fill-rule="evenodd" clip-rule="evenodd" d="M192 121C193.333 121.667 193.333 121.667 192 121V121Z" fill="#3FB0B9"/>
<path opacity="0.01" fill-rule="evenodd" clip-rule="evenodd" d="M195 123C194.333 123.667 194.333 123.667 195 123V123Z" fill="#40ACB7"/>
<path opacity="0.992" fill-rule="evenodd" clip-rule="evenodd" d="M122 54C137.726 65.286 145.392 80.786 145 100.5C144.93 117.566 138.93 132.066 127 144C125.066 144.61 123.399 145.61 122 147C113.89 149.715 106.39 149.048 99.5 145C99.117 145.556 97.617 143.889 97 144C91.061 138.071 85.728 134.404 79 129C67.223 114.995 65.223 99.661 73 83C74.656 81.04 76.323 79.04 78 77C92.284 66.764 105.45 68.097 117.5 81C123.553 91.86 125.053 103.194 122 115C120.605 117.642 119.105 120.309 117.5 123C115.497 125.422 112.997 126.255 110 125.5C104.452 122.997 103.952 119.164 108.5 114C110.727 108.172 111.393 102.172 110.5 96C110.126 94.009 109.293 92.342 108 91C107.144 87.122 104.811 84.622 101 83.5C87.226 81.769 80.559 87.936 81 102C80.914 106.99 82.081 111.656 84.5 116C90.534 124.703 98.367 131.203 108 135.5C111.428 136.201 114.762 135.868 118 134.5C121.254 131.753 123.92 128.586 126 125C130.804 117.128 133.137 108.461 133 99C132.608 95.651 132.108 92.317 131.5 89C128.791 85.075 126.791 80.408 125.5 75C122.721 71.047 119.221 68.047 115 66C113.677 63.818 112.01 62.151 110 63C108.966 61.813 107.633 61.98 106 61.5C102.943 61.244 99.943 60.744 97 60C93.723 60.754 90.39 61.254 87 61.5C85.009 61.874 83.342 62.707 82 64C71.103 69.067 63.937 77.401 60.5 89C55.978 106.02 59.145 120.854 70 133.5C99.145 157.187 108.645 187.354 98.5 224C96.769 230.538 94.269 236.705 91 242.5C87 243.167 83 243.167 79 242.5C77.902 241.73 77.902 240.897 79 240C90.67 217.685 92.837 194.685 85.5 171C82.628 164.307 78.461 158.64 73 154C73 152.667 72.333 152 71 152C69.739 148.916 68.906 147.082 65.5 146.5C65.833 146.167 64.667 145.833 65 145.5C62.766 143.437 60.766 141.271 59 139C54.547 133.09 50.88 126.756 48 120C42.457 95.985 48.457 75.485 66 58.5C83.778 46.292 102.445 44.792 122 54Z" fill="#269DAA"/>
<path opacity="0.01" fill-rule="evenodd" clip-rule="evenodd" d="M78 130C77.333 130.667 77.333 130.667 78 130V130Z" fill="#42B4BC"/>
<path opacity="0.01" fill-rule="evenodd" clip-rule="evenodd" d="M79 129C78.333 129.667 78.333 129.667 79 129V129Z" fill="#41B2BA"/>
<path opacity="0.016" fill-rule="evenodd" clip-rule="evenodd" d="M126 125C125.333 123.667 125.333 123.667 126 125V125Z" fill="#48B2BB"/>
<path opacity="0.01" fill-rule="evenodd" clip-rule="evenodd" d="M72 122C73.333 122.667 73.333 122.667 72 122V122Z" fill="#3FAFBD"/>
<path opacity="0.01" fill-rule="evenodd" clip-rule="evenodd" d="M101 119C102.333 119.667 102.333 119.667 101 119V119Z" fill="#40B1BB"/>
<path opacity="0.01" fill-rule="evenodd" clip-rule="evenodd" d="M70 119C71.333 119.667 71.333 119.667 70 119V119Z" fill="#3FB2BE"/>
<path opacity="0.01" fill-rule="evenodd" clip-rule="evenodd" d="M121 118C122.333 118.667 122.333 118.667 121 118V118Z" fill="#43B1BA"/>
<path opacity="0.01" fill-rule="evenodd" clip-rule="evenodd" d="M101 117C102.333 117.667 102.333 117.667 101 117V117Z" fill="#41B0BC"/>
<path opacity="0.01" fill-rule="evenodd" clip-rule="evenodd" d="M69 116C70.333 116.667 70.333 116.667 69 116V116Z" fill="#42B2BC"/>
<path opacity="0.01" fill-rule="evenodd" clip-rule="evenodd" d="M122 115C123.333 115.667 123.333 115.667 122 115V115Z" fill="#44B5BE"/>
<path opacity="0.01" fill-rule="evenodd" clip-rule="evenodd" d="M60 110C61.333 110.667 61.333 110.667 60 110V110Z" fill="#41B4BE"/>
<path opacity="0.01" fill-rule="evenodd" clip-rule="evenodd" d="M109 103C110.333 103.667 110.333 103.667 109 103V103Z" fill="#44B2BE"/>
<path opacity="0.01" fill-rule="evenodd" clip-rule="evenodd" d="M82 99C83.333 99.667 83.333 99.667 82 99V99Z" fill="#42B3BE"/>
<path opacity="0.01" fill-rule="evenodd" clip-rule="evenodd" d="M109 98C110.333 98.667 110.333 98.667 109 98V98Z" fill="#42B2BD"/>
<path opacity="0.01" fill-rule="evenodd" clip-rule="evenodd" d="M60 97C61.333 97.667 61.333 97.667 60 97V97Z" fill="#43B3BF"/>
<path opacity="0.01" fill-rule="evenodd" clip-rule="evenodd" d="M60 95C61.333 95.667 61.333 95.667 60 95V95Z" fill="#43B4BE"/>
<path opacity="0.01" fill-rule="evenodd" clip-rule="evenodd" d="M108 91C107.333 91.667 107.333 91.667 108 91V91Z" fill="#40B3BD"/>
<path opacity="0.01" fill-rule="evenodd" clip-rule="evenodd" d="M103 87C104.333 87.667 104.333 87.667 103 87V87Z" fill="#40B1BC"/>
<path opacity="0.01" fill-rule="evenodd" clip-rule="evenodd" d="M73 83C71.975 82.603 71.808 81.937 72.5 81C72.964 81.594 73.131 82.261 73 83Z" fill="#40B1BC"/>
<path opacity="0.01" fill-rule="evenodd" clip-rule="evenodd" d="M78 77C77.333 75.667 77.333 75.667 78 77V77Z" fill="#44B1BA"/>
<path opacity="0.01" fill-rule="evenodd" clip-rule="evenodd" d="M86 70C87.333 70.667 87.333 70.667 86 70V70Z" fill="#42B4BD"/>
<path opacity="0.01" fill-rule="evenodd" clip-rule="evenodd" d="M117 69C118.333 69.667 118.333 69.667 117 69V69Z" fill="#42B3BD"/>
<path opacity="0.01" fill-rule="evenodd" clip-rule="evenodd" d="M99 68C100.333 68.667 100.333 68.667 99 68V68Z" fill="#44B5BC"/>
<path opacity="0.01" fill-rule="evenodd" clip-rule="evenodd" d="M115 66C114.603 67.025 113.937 67.192 113 66.5C113.594 66.036 114.261 65.869 115 66Z" fill="#41B2BD"/>
<path opacity="0.01" fill-rule="evenodd" clip-rule="evenodd" d="M82 64C83.333 64.667 83.333 64.667 82 64V64Z" fill="#41B3BC"/>
<path opacity="0.01" fill-rule="evenodd" clip-rule="evenodd" d="M29 134C30.333 134.667 30.333 134.667 29 134V134Z" fill="#41ACB8"/>
<path opacity="0.01" fill-rule="evenodd" clip-rule="evenodd" d="M110 134C111.333 134.667 111.333 134.667 110 134V134Z" fill="#40B1BB"/>
<path opacity="0.01" fill-rule="evenodd" clip-rule="evenodd" d="M7.99995 135C8.13095 135.739 7.96395 136.406 7.49995 137C6.80795 136.063 6.97495 135.397 7.99995 135Z" fill="#41A5AF"/>
<path opacity="0.01" fill-rule="evenodd" clip-rule="evenodd" d="M53 135C54.333 135.667 54.333 135.667 53 135V135Z" fill="#3FAFB8"/>
<path opacity="0.01" fill-rule="evenodd" clip-rule="evenodd" d="M31 138C32.333 138.667 32.333 138.667 31 138V138Z" fill="#43AFBB"/>
<path opacity="0.012" fill-rule="evenodd" clip-rule="evenodd" d="M59 139C58.333 139.667 58.333 139.667 59 139V139Z" fill="#3FADB8"/>
<path opacity="0.01" fill-rule="evenodd" clip-rule="evenodd" d="M144 140C145.333 140.667 145.333 140.667 144 140V140Z" fill="#43B3BE"/>
<path opacity="0.016" fill-rule="evenodd" clip-rule="evenodd" d="M203 141C202.333 141 202 141.333 202 142C200.787 141.003 200.954 140.003 202.5 139C202.964 139.594 203.131 140.261 203 141Z" fill="#41AFBA"/>
<path opacity="0.01" fill-rule="evenodd" clip-rule="evenodd" d="M127 144C128.333 144.667 128.333 144.667 127 144V144Z" fill="#42B3BC"/>
<path opacity="0.01" fill-rule="evenodd" clip-rule="evenodd" d="M93 145C94.333 145.667 94.333 145.667 93 145V145Z" fill="#40B3BE"/>
<path opacity="0.01" fill-rule="evenodd" clip-rule="evenodd" d="M98 146C97.333 146.667 97.333 146.667 98 146V146Z" fill="#40B2BC"/>
<path opacity="0.01" fill-rule="evenodd" clip-rule="evenodd" d="M122 147C123.333 147.667 123.333 147.667 122 147V147Z" fill="#45B2BD"/>
<path opacity="0.01" fill-rule="evenodd" clip-rule="evenodd" d="M156 150C157.333 150.667 157.333 150.667 156 150V150Z" fill="#42B3BC"/>
<path opacity="0.01" fill-rule="evenodd" clip-rule="evenodd" d="M15 151C14.333 151.667 14.333 151.667 15 151V151Z" fill="#3FA9B1"/>
<path opacity="0.01" fill-rule="evenodd" clip-rule="evenodd" d="M71 152C70.333 152.667 70.333 152.667 71 152V152Z" fill="#3EB0B9"/>
<path opacity="0.01" fill-rule="evenodd" clip-rule="evenodd" d="M155 152C156.333 152.667 156.333 152.667 155 152V152Z" fill="#42B3BC"/>
<path opacity="0.01" fill-rule="evenodd" clip-rule="evenodd" d="M13 153C14.333 153.667 14.333 153.667 13 153V153Z" fill="#40A6B0"/>
<path opacity="0.01" fill-rule="evenodd" clip-rule="evenodd" d="M73 154C72.333 154.667 72.333 154.667 73 154V154Z" fill="#3DAEB9"/>
<path opacity="0.012" fill-rule="evenodd" clip-rule="evenodd" d="M210 155C211.333 155.667 211.333 155.667 210 155V155Z" fill="#3FA6B0"/>
<path opacity="0.01" fill-rule="evenodd" clip-rule="evenodd" d="M35 156C36.333 156.667 36.333 156.667 35 156V156Z" fill="#43AFB8"/>
<path opacity="0.01" fill-rule="evenodd" clip-rule="evenodd" d="M63 156C64.333 156.667 64.333 156.667 63 156V156Z" fill="#41B4BB"/>
<path opacity="0.01" fill-rule="evenodd" clip-rule="evenodd" d="M154 157C155.333 157.667 155.333 157.667 154 157V157Z" fill="#42B6BD"/>
<path opacity="0.01" fill-rule="evenodd" clip-rule="evenodd" d="M47 158C46.333 158.667 46.333 158.667 47 158V158Z" fill="#3FAFB9"/>
<path opacity="0.012" fill-rule="evenodd" clip-rule="evenodd" d="M201 158C202.333 158.667 202.333 158.667 201 158V158Z" fill="#3FB0B9"/>
<path opacity="0.01" fill-rule="evenodd" clip-rule="evenodd" d="M50 161C49.333 161.667 49.333 161.667 50 161V161Z" fill="#3FACB8"/>
<path opacity="0.01" fill-rule="evenodd" clip-rule="evenodd" d="M201 161C202.333 161.667 202.333 161.667 201 161V161Z" fill="#3EADB7"/>
<path opacity="0.01" fill-rule="evenodd" clip-rule="evenodd" d="M79 163C78.333 161.667 78.333 161.667 79 163V163Z" fill="#42B2BD"/>
<path opacity="0.01" fill-rule="evenodd" clip-rule="evenodd" d="M79 163C80.333 163.667 80.333 163.667 79 163V163Z" fill="#43B3BC"/>
<path opacity="0.01" fill-rule="evenodd" clip-rule="evenodd" d="M70 164C71.333 164.667 71.333 164.667 70 164V164Z" fill="#43B2BB"/>
<path opacity="0.01" fill-rule="evenodd" clip-rule="evenodd" d="M44 167C45.333 167.667 45.333 167.667 44 167V167Z" fill="#40AFB7"/>
<path opacity="0.02" fill-rule="evenodd" clip-rule="evenodd" d="M55 167C54.333 167.667 54.333 167.667 55 167V167Z" fill="#3EB1B9"/>
<path opacity="0.01" fill-rule="evenodd" clip-rule="evenodd" d="M129 170C128.333 168.667 128.333 168.667 129 170V170Z" fill="#40B1BB"/>
<path opacity="0.01" fill-rule="evenodd" clip-rule="evenodd" d="M57 170C56.333 170.667 56.333 170.667 57 170V170Z" fill="#3EB0B9"/>
<path opacity="0.01" fill-rule="evenodd" clip-rule="evenodd" d="M31 172C30.333 172.667 30.333 172.667 31 172V172Z" fill="#3FAAB7"/>
<path opacity="0.01" fill-rule="evenodd" clip-rule="evenodd" d="M74 172C75.333 172.667 75.333 172.667 74 172V172Z" fill="#41B0BA"/>
<path opacity="0.01" fill-rule="evenodd" clip-rule="evenodd" d="M31 175C32.333 175.667 32.333 175.667 31 175V175Z" fill="#40ABB3"/>
<path opacity="0.01" fill-rule="evenodd" clip-rule="evenodd" d="M85 175C86.333 175.667 86.333 175.667 85 175V175Z" fill="#41B0BA"/>
<path opacity="0.01" fill-rule="evenodd" clip-rule="evenodd" d="M35 178C34.333 178.667 34.333 178.667 35 178V178Z" fill="#3CA9B4"/>
<path opacity="0.01" fill-rule="evenodd" clip-rule="evenodd" d="M86 180C87.333 180.667 87.333 180.667 86 180V180Z" fill="#3EB1BB"/>
<path opacity="0.01" fill-rule="evenodd" clip-rule="evenodd" d="M87 184C88.333 184.667 88.333 184.667 87 184V184Z" fill="#40B3BB"/>
<path opacity="0.01" fill-rule="evenodd" clip-rule="evenodd" d="M182 186C183.333 186.667 183.333 186.667 182 186V186Z" fill="#43B4BF"/>
<path opacity="0.01" fill-rule="evenodd" clip-rule="evenodd" d="M62 188C63.333 188.667 63.333 188.667 62 188V188Z" fill="#40B0BB"/>
<path opacity="0.01" fill-rule="evenodd" clip-rule="evenodd" d="M87 188C88.333 188.667 88.333 188.667 87 188V188Z" fill="#41B1BC"/>
<path opacity="0.01" fill-rule="evenodd" clip-rule="evenodd" d="M183 188C184.025 188.397 184.192 189.063 183.5 190C183.036 189.406 182.869 188.739 183 188Z" fill="#41B2BD"/>
<path opacity="0.01" fill-rule="evenodd" clip-rule="evenodd" d="M38 191C39.333 191.667 39.333 191.667 38 191V191Z" fill="#40AEB7"/>
<path opacity="0.01" fill-rule="evenodd" clip-rule="evenodd" d="M62 190C64.637 191.654 64.303 192.154 61 191.5C61.556 191.117 61.889 190.617 62 190Z" fill="#41B1BB"/>
<path opacity="0.01" fill-rule="evenodd" clip-rule="evenodd" d="M65 193C64.333 193.667 64.333 193.667 65 193V193Z" fill="#3EAFB7"/>
<path opacity="0.01" fill-rule="evenodd" clip-rule="evenodd" d="M88 193C89.025 193.397 89.192 194.063 88.5 195C88.036 194.406 87.869 193.739 88 193Z" fill="#3FAFBC"/>
<path opacity="0.01" fill-rule="evenodd" clip-rule="evenodd" d="M184 193C185.025 193.397 185.192 194.063 184.5 195C184.036 194.406 183.869 193.739 184 193Z" fill="#3EB2BE"/>
<path opacity="0.01" fill-rule="evenodd" clip-rule="evenodd" d="M39 195C40.025 195.397 40.192 196.063 39.5 197C39.036 196.406 38.869 195.739 39 195Z" fill="#3FACB8"/>
<path opacity="0.012" fill-rule="evenodd" clip-rule="evenodd" d="M131 196C132.333 196.667 132.333 196.667 131 196V196Z" fill="#43B2BE"/>
<path opacity="0.01" fill-rule="evenodd" clip-rule="evenodd" d="M37 199C38.333 199.667 38.333 199.667 37 199V199Z" fill="#40ACB8"/>
<path opacity="0.01" fill-rule="evenodd" clip-rule="evenodd" d="M38.9999 199C40.0979 200.101 40.2649 201.434 39.4999 203C39.0099 201.707 38.8429 200.373 38.9999 199Z" fill="#40ADB8"/>
<path opacity="0.01" fill-rule="evenodd" clip-rule="evenodd" d="M37 201C38.333 201.667 38.333 201.667 37 201V201Z" fill="#3EADB8"/>
<path opacity="0.01" fill-rule="evenodd" clip-rule="evenodd" d="M109 207C110.333 207.667 110.333 207.667 109 207V207Z" fill="#41B2BA"/>
<path opacity="0.01" fill-rule="evenodd" clip-rule="evenodd" d="M161 208C162.333 208.667 162.333 208.667 161 208V208Z" fill="#41B2BD"/>
<path opacity="0.01" fill-rule="evenodd" clip-rule="evenodd" d="M111 209C112.333 209.667 112.333 209.667 111 209V209Z" fill="#41B2BB"/>
<path opacity="0.01" fill-rule="evenodd" clip-rule="evenodd" d="M38 213C39.333 213.667 39.333 213.667 38 213V213Z" fill="#3FADB6"/>
<path opacity="0.01" fill-rule="evenodd" clip-rule="evenodd" d="M137 213C138.333 213.667 138.333 213.667 137 213V213Z" fill="#41B1BA"/>
<path opacity="0.01" fill-rule="evenodd" clip-rule="evenodd" d="M137 214C137 214.333 137 214.667 137 215C136.33 214.519 136.33 214.185 137 214Z" fill="#41B1BA"/>
<path opacity="0.01" fill-rule="evenodd" clip-rule="evenodd" d="M110 219C109.333 217.667 109.333 217.667 110 219V219Z" fill="#41B2BD"/>
<path opacity="0.01" fill-rule="evenodd" clip-rule="evenodd" d="M52 219C53.333 219.667 53.333 219.667 52 219V219Z" fill="#3EA9B3"/>
<path opacity="0.01" fill-rule="evenodd" clip-rule="evenodd" d="M175 223C176.333 223.667 176.333 223.667 175 223V223Z" fill="#40B1B9"/>
<path opacity="0.01" fill-rule="evenodd" clip-rule="evenodd" d="M151 224C152.333 224.667 152.333 224.667 151 224V224Z" fill="#41B2BC"/>
<path opacity="0.01" fill-rule="evenodd" clip-rule="evenodd" d="M167 224C168.333 224.667 168.333 224.667 167 224V224Z" fill="#41B5BC"/>
<path opacity="0.012" fill-rule="evenodd" clip-rule="evenodd" d="M128 225C129.333 225.667 129.333 225.667 128 225V225Z" fill="#41B0BB"/>
<path opacity="0.012" fill-rule="evenodd" clip-rule="evenodd" d="M74 227C75.333 227.667 75.333 227.667 74 227V227Z" fill="#40B3BB"/>
<path opacity="0.012" fill-rule="evenodd" clip-rule="evenodd" d="M122 226C123.025 226.397 123.192 227.063 122.5 228C122.036 227.406 121.869 226.739 122 226Z" fill="#3EB1BB"/>
<path opacity="0.01" fill-rule="evenodd" clip-rule="evenodd" d="M78 228C79.333 228.667 79.333 228.667 78 228V228Z" fill="#41B0BB"/>
<path opacity="0.012" fill-rule="evenodd" clip-rule="evenodd" d="M97 231C98.333 231.667 98.333 231.667 97 231V231Z" fill="#40AEB8"/>
<path opacity="0.01" fill-rule="evenodd" clip-rule="evenodd" d="M104 233C105.333 233.667 105.333 233.667 104 233V233Z" fill="#40B3BD"/>
<path opacity="0.01" fill-rule="evenodd" clip-rule="evenodd" d="M80 234C81.333 234.667 81.333 234.667 80 234V234Z" fill="#41B1BA"/>
<path opacity="0.012" fill-rule="evenodd" clip-rule="evenodd" d="M79 240C78.333 238.667 78.333 238.667 79 240V240Z" fill="#42B0BA"/>
<path opacity="0.012" fill-rule="evenodd" clip-rule="evenodd" d="M104 241C103.333 239.667 103.333 239.667 104 241V241Z" fill="#40B1BB"/>
<path opacity="0.01" fill-rule="evenodd" clip-rule="evenodd" d="M43 242C44.333 242.667 44.333 242.667 43 242V242Z" fill="#41ACB7"/>
<path opacity="0.01" fill-rule="evenodd" clip-rule="evenodd" d="M102 242C103.333 242.667 103.333 242.667 102 242V242Z" fill="#3DAFB8"/>
<path opacity="0.018" fill-rule="evenodd" clip-rule="evenodd" d="M128 234C128 236.667 128 239.333 128 242C131.667 242 135.333 242 139 242C139.03 242.997 138.53 243.664 137.5 244C134.273 242.896 130.94 242.896 127.5 244C125.656 242.329 124.99 240.329 125.5 238C125.833 239 126.167 240 126.5 241C126.686 238.464 127.186 236.131 128 234Z" fill="#4BB6C1"/>
<path opacity="0.01" fill-rule="evenodd" clip-rule="evenodd" d="M55 243C54.603 244.025 53.937 244.192 53 243.5C53.594 243.036 54.261 242.869 55 243Z" fill="#3FACB8"/>
</svg>
