<svg width="800" height="800" viewBox="0 0 800 800" fill="none" xmlns="http://www.w3.org/2000/svg">
<g clip-path="url(#clip0_1_13)">
<path fill-rule="evenodd" clip-rule="evenodd" d="M395.064 266.218C409.637 260.537 415.661 246.235 425.485 235.781C434.17 228.849 442.265 221.327 451.244 214.69C457.109 204.978 467.977 200.229 472.303 188.955C482.605 183.68 485.848 171.25 498.063 167.896C505.082 159.283 509.919 148.534 521.472 144.471C523.815 132.79 531.113 126.009 535.503 116.376C546.156 111.405 551.55 101.238 565.972 100.003C583.628 101.031 586.385 117.03 598.711 123.388C598.377 115.962 593.405 113.11 594.058 104.672C609.648 78.7544 631.347 57.0479 657.258 41.448H685.352C696.241 48.24 706.436 56.0862 715.789 64.8731C733.892 98.2579 757.062 126.599 769.651 165.537C768.392 172.095 766.185 177.72 764.934 184.278C758.345 194.827 746.082 199.727 736.848 207.687C728.716 216.85 719.25 224.736 708.77 231.08C710.953 239.048 715.327 244.816 713.439 256.832C706.212 266.893 696.548 274.954 685.352 280.257C674.891 290.846 667.027 304.048 654.924 313.036C652.912 314.59 650.442 315.433 647.9 315.433C645.358 315.433 642.888 314.59 640.877 313.036C624.487 324.717 615.459 343.807 598.711 355.185C589.078 372.826 573.565 384.666 563.653 401.98C555.335 406.928 551.327 416.202 540.236 418.394C545.335 428.895 559.518 430.297 563.653 441.794C570.689 440.201 571.804 432.799 582.385 434.775C628.598 432.241 664.692 439.882 706.451 441.794C725.343 455.394 742.628 471.098 757.97 488.605C765.324 487.505 764.153 494.924 769.691 495.625C777.037 494.517 778.854 498.979 783.706 500.31C786.218 509.876 789.356 519.265 793.1 528.42C793.371 574.338 806.326 633.769 790.71 673.568C775.133 687.161 749.572 689.041 727.502 685.28C710.602 662.357 714.753 618.439 697.081 596.313C681.034 590.034 670.118 591.628 652.589 589.301C634.526 596.233 624.152 612.909 610.44 626.749C597.573 633.618 585.752 642.286 575.334 652.493C577.537 665.651 578.317 679.007 577.66 692.332C579.839 696.147 582.877 699.403 586.532 701.841C590.187 704.279 594.36 705.833 598.719 706.379C601.954 714.849 613.547 715 617.459 722.776C632.116 729.905 644.931 740.318 654.908 753.205C655.561 762.671 658.892 769.483 659.585 778.957C655.601 783.555 652.414 788.932 645.522 790.669C639.665 793.378 637.705 800 629.148 800.031C594.751 797.753 572.577 783.236 540.18 778.957C532.42 778.16 530.037 771.929 526.157 767.244C524.675 760.91 516.349 761.412 516.763 753.205C491.888 735.182 472.319 711.829 451.229 689.989C450.233 672.261 443.659 660.103 441.866 643.171C442.188 623.629 441.39 604.083 439.476 584.632C438.146 574.274 431.915 568.808 432.481 556.546C417.015 531.424 396.626 511.241 378.619 488.645C373.543 488.254 377.583 496.955 376.3 500.349C374.683 500.935 373.215 501.868 371.999 503.084C370.783 504.3 369.85 505.768 369.264 507.385C320.956 544.132 279.094 587.333 233.478 626.781C235.12 642.311 229.327 665.274 238.156 673.608C251.175 674.102 249.215 659.688 259.238 657.218C264.104 649.75 269.583 642.701 275.62 636.143C289.058 624.654 301.579 612.133 313.068 598.695C323.299 596.416 326.008 586.648 334.167 582.29C341.202 576.856 348.732 571.876 355.225 565.9C370.364 556.889 376.38 538.69 399.685 537.814C402.451 540.598 405.611 542.96 409.063 544.825C411.406 571.366 391.016 575.158 378.619 586.974C367.663 600.201 350.365 607.085 338.828 619.746C310.399 639.713 290.456 668.15 263.931 689.982C264.381 697.65 261.862 705.196 256.896 711.056C249.185 713.037 241.374 714.598 233.494 715.733C181.6 741.487 127.547 762.64 71.9566 778.949C60.2838 782.861 58.1247 796.335 39.1456 792.98C39.1456 790.726 36.325 791.172 34.5004 790.662C19.5131 768.535 39.7431 754.647 48.5713 739.15C59.3357 675.026 90.6091 631.387 97.6924 563.558C122.153 527.91 152.781 498.461 181.999 467.578C190.947 465.706 194.747 456.383 200.739 451.188C202.595 449.595 205.591 450.456 207.735 448.838C215.703 442.862 226.682 427.325 235.829 418.425C240.932 412.381 247.339 407.573 254.569 404.362C257.453 393.701 277.237 392.323 284.99 399.685C284.344 403.47 287.221 403.709 287.332 406.705C288.44 421.843 278.082 425.557 268.6 430.114C263.819 438.56 254.736 442.743 249.876 451.188C235.813 464.549 220.961 477.054 205.4 488.637C176.836 513.926 147.905 538.834 125.81 570.609C140.057 575.86 159.108 576.29 174.979 579.947C182.66 586.823 182.095 595.827 179.641 608.033C194.779 609.475 202.747 603.579 214.778 608.033C224.65 606.989 225.997 597.42 231.136 591.66C237.548 587.234 243.108 581.687 247.549 575.286C259.366 565.223 270.265 554.275 282.663 544.833C304.935 523.255 328.394 502.937 352.931 483.976C355.757 482.286 358.988 481.394 362.281 481.394C365.573 481.394 368.805 482.286 371.631 483.976C370.834 476.207 364.611 473.801 359.934 469.928C357.917 463.948 353.74 458.936 348.222 455.874C337.72 470.351 320.637 478.183 308.439 490.995C295.746 502.517 282.99 513.942 270.991 526.109C262.458 529.301 255.101 535.019 249.9 542.499C235.851 553.429 221.801 564.358 207.751 575.286C198.938 576.083 194.277 589.939 184.357 582.298C176.262 564.275 197.401 556.721 205.416 547.192C208.603 540.284 216.236 537.702 219.455 530.802C229.55 530.762 228.092 519.137 238.187 519.081C257.167 497.473 281.213 480.916 299.077 458.224C311.881 453.125 317.06 440.328 331.84 437.141C307.948 408.857 282.124 382.263 254.553 357.552C224.82 356.728 195.069 358.289 165.585 362.221C146.63 361.679 131.045 357.727 111.748 357.552C79.2149 332.242 51.4677 301.322 29.8152 266.249C25.3613 261.286 18.0867 259.246 13.4256 254.537C4.55748 215.208 -6.9318 155.004 11.0832 116.409C22.4452 119.596 38.4285 112.735 50.882 118.751C55.4794 125.054 52.2523 139.212 53.2005 149.203C58.4262 163.033 67.3274 175.174 78.9444 184.318C86.1168 197.052 96.6513 207.57 109.397 214.722C124.537 215.311 139.645 212.935 153.873 207.727C181.489 192.397 197.783 165.777 219.423 144.503C211.456 122.058 204.285 98.768 191.321 81.3027C177.896 57.28 143.515 54.2121 125.795 34.484C126.145 27.0421 131.109 24.1738 130.456 15.744C139.647 7.73169 151.126 2.81466 163.267 1.68909C167.251 2.19903 169.291 -2.29477 170.271 1.68909C184.189 4.28793 198.469 4.28793 212.388 1.68909C221.766 9.5134 237.789 10.6446 249.836 15.744C263.15 18.8116 272.209 26.1658 284.95 29.7911C284.679 44.133 295.675 47.1689 299.021 57.8775C306.681 64.4357 313.032 72.3838 317.737 81.3027C331.848 94.5052 341.847 111.819 355.185 125.771C357.408 158.008 370.069 191.903 362.189 226.443C364.046 237.112 374.826 238.769 378.579 247.509C385.163 252.694 390.749 259.033 395.064 266.218ZM205.432 46.1492C204.795 45.4878 201.87 47.2644 203.105 48.4835C203.711 49.1288 206.627 47.3603 205.416 46.1492H205.432ZM71.9884 226.411C61.5473 211.36 49.7942 197.263 36.8668 184.286C41.4803 203.45 43.8387 223.088 43.8942 242.8C46.6271 243.183 45.8622 247.079 46.2287 249.812C52.5153 250.705 56.5869 265.819 62.6264 259.19C55.4555 251.023 65.1841 240.004 62.6264 228.753C65.3332 226.805 68.6831 225.967 71.9884 226.411C77.032 257.294 83.8922 286.304 102.417 303.698C104.154 289.475 95.6288 275.5 109.445 270.919C117.285 279.476 118.831 294.312 125.842 303.698C126.448 310.869 130.918 314.223 132.862 320.104C136.463 324.287 136.734 331.824 146.917 329.466C150.527 323.53 144.025 311.594 144.575 301.371C148.471 295.898 143.324 281.372 153.921 282.623C165.442 290.639 163.809 311.777 170.318 324.757H193.728C196.277 308.59 186.246 279.819 205.432 280.297C213.44 290.224 215.79 305.841 219.471 320.135C226.204 323.537 236.602 323.322 240.546 329.497H256.927C261.318 327.258 264.744 336.501 266.305 329.497C261.142 327.003 254.202 311.578 263.963 308.438C277.197 306.088 277.397 316.829 282.679 322.462C286.416 329.633 283.261 343.744 294.384 343.537C291.994 332.382 285.325 301.403 306.096 306.088C310.216 308.223 310.391 314.303 313.116 317.801V331.864C315.108 337.441 317.394 345.608 320.151 352.922C320.478 353.719 319.514 357.09 320.151 357.607C323.338 360.229 322.366 378.26 334.214 378.682C334.565 365.002 330.111 356.237 331.824 341.234C336.701 337.513 330.398 322.645 341.186 324.828C347.895 333.744 346.349 350.923 352.915 359.974C354.406 371.597 358.382 382.763 364.572 392.713C366.476 376.682 361.52 353.767 376.316 350.612C386.801 355.703 384.076 374.013 385.678 388.06C393.972 410.96 393.606 442.528 409.079 458.296C409.239 446.751 407.087 432.911 418.433 432.544C427.039 437.181 426.72 450.798 430.154 460.646C433.889 470.413 436.251 480.651 437.173 491.067C443.452 496.517 445.324 506.325 453.555 509.799V472.351C458.121 465.977 453.73 450.671 465.268 451.292C472.861 453.053 470.845 464.447 474.63 470.024C475.363 502.851 484.693 527.089 486.358 558.992C486.717 566.394 480.12 566.8 481.665 575.382C479.968 582.553 485.705 582.258 483.984 589.437V608.137C488.828 635.331 494.278 661.84 498.047 690.085C504.612 693.655 501.648 706.817 509.76 708.833C510.772 701.232 506.684 688.571 514.405 687.743C520.325 697.847 524.311 708.965 526.157 720.53C532.587 728.131 530.468 744.266 542.523 746.281C541.726 735.804 537.599 726.992 547.216 722.872C559.733 734.521 554.387 764.113 575.31 767.34C578.394 763.117 570.346 742.808 582.33 741.605C586.059 743.886 589.247 746.952 591.672 750.59C594.096 754.228 595.699 758.351 596.369 762.671H619.786C618.989 756.44 613.651 754.767 608.089 753.301C607.292 747.795 600.823 748.066 598.695 743.923C589.134 740.226 584.353 731.756 575.31 727.549C564.841 711.462 552.411 697.376 544.897 678.381C546.57 671.21 542.507 669.855 542.507 664.341C544.64 658.344 545.455 651.958 544.897 645.617C546.57 638.446 540.834 638.709 542.507 631.562V608.137C542.595 600.432 541.559 591.572 549.542 591.763C556.419 595.054 556.713 604.862 556.562 615.164C572.426 616.208 555.837 584.792 568.259 582.393C578.083 584.282 574.155 599.922 579.955 605.81C585.101 601.478 590.584 597.564 596.353 594.106C597.221 582.489 592.831 565.621 603.396 563.661C604.918 566.051 608.767 566.099 608.073 570.713C607.872 572.25 608.234 573.809 609.092 575.101C609.95 576.392 611.247 577.33 612.742 577.74C617.727 568.305 624.974 560.254 633.833 554.307C658.533 549.359 679.6 559.247 701.702 563.661C702.865 565.355 703.672 567.266 704.075 569.281C704.478 571.296 704.467 573.371 704.045 575.382C707.691 575.307 711.302 576.118 714.566 577.746C717.83 579.374 720.65 581.77 722.785 584.728C723.582 587.827 726.896 588.417 727.462 591.763C731.143 616.16 744.194 631.195 750.863 652.621C759.404 652.621 761.373 645.968 767.253 643.266C765.858 624.678 767.994 606.002 767.253 582.393C764.11 565.409 762.544 548.17 762.576 530.898C760.9 528.979 759.624 526.746 758.821 524.329C758.018 521.911 757.704 519.358 757.898 516.819C748.122 518.811 746.839 512.309 739.175 512.166C733.533 502.971 723.709 497.967 718.116 488.74C708.292 483.745 703.32 473.841 692.348 470.024C672.565 471.865 652.618 469.469 633.833 462.997C604.767 462.853 583.15 470.08 554.203 470.024C542.473 462.544 532.171 453.03 523.783 441.93C512.118 434.09 504.055 422.632 493.33 413.812C472.877 395.287 452.942 376.188 432.481 357.647C424.019 346.596 412.808 338.278 406.721 324.852C399.255 312.813 389.407 303.156 383.288 289.747C376.547 286.376 374.276 278.512 369.264 273.372C366.03 267.229 358.588 265.317 357.552 256.967C346.331 248.409 337.472 237.137 331.808 224.212C330.111 194.683 327.482 166.103 327.107 135.228C313.212 131.946 307.419 120.615 299.045 111.819C287.38 92.258 271.955 76.45 263.915 53.3038C259.748 52.013 254.202 52.0768 252.218 48.6109C241.51 47.2803 242.291 57.4315 231.12 55.6308C226.953 54.34 221.407 54.4272 219.423 50.9612C213.599 53.9969 209.727 44.0771 207.719 50.9612C221.264 63.1678 242.936 67.2396 245.167 90.7444C247.287 102.242 235.367 99.6602 235.789 109.484C242.944 119.177 247.752 130.398 249.836 142.264C252.003 152.996 243.988 153.562 245.167 163.323C247.071 172.549 251.541 189.233 238.132 189.082C235.024 186.692 229.431 186.867 228.761 182.054C225.025 180.325 229.303 170.613 221.758 172.685C206.962 184.636 239.016 218.3 212.364 221.854C203.599 218.165 202.476 206.771 203.034 193.759C196.604 192.078 198.309 198.42 193.656 198.452C194.915 201.815 184.541 204.173 191.265 205.472C190.809 214.123 191.615 222.796 193.656 231.216C192.668 238.793 196.723 251.454 188.963 252.298C186.173 253.209 183.136 252.984 180.512 251.671C177.887 250.359 175.885 248.065 174.94 245.287C169.601 243.573 177.083 229.072 167.904 231.216C165.657 248.02 181.234 267.819 163.243 273.372C152.662 273.787 152.001 264.289 146.845 259.318C146.375 265.915 142.774 269.301 135.117 268.672C131.715 266.648 127.691 265.158 128.105 259.318C122.464 258.353 123.006 263.588 116.393 261.644C114.321 257.501 109.867 255.724 111.723 247.605C92.9675 245.996 84.0995 234.57 71.9726 226.411H71.9884ZM650.239 210.021C640.622 204.818 634.12 196.476 624.503 191.289C608.217 167.777 583.071 153.132 565.988 130.416H558.944C549.379 142.187 542.218 155.723 537.87 170.254C574.928 204.994 613.826 237.868 647.896 275.604C662.055 270.249 666.923 255.597 680.691 249.836C674.07 233 659.569 224.124 650.223 210.021H650.239ZM692.396 137.451C683.767 139.738 680.787 147.698 673.656 151.482C670.931 151.865 667.019 151.1 666.636 153.825C674.652 156.773 677.568 164.78 676.014 177.258C672.501 179.983 666.405 180.158 664.294 184.286C673.496 189.863 678.476 199.703 687.679 205.344C701.775 192.008 716.636 179.504 732.187 167.896C727.489 154.697 721.199 142.122 713.454 130.447C708.116 131.945 699.328 135.093 694.73 130.447C694.603 133.411 691.719 133.651 692.396 137.451ZM519.154 188.955C517.545 189.549 516.084 190.485 514.872 191.698C513.66 192.911 512.726 194.373 512.134 195.982C502.262 197.034 501.361 207.041 493.378 210.021C477.004 228.764 458.981 245.998 439.524 261.517C430.507 267.133 421.911 273.399 413.804 280.265C419.716 296.2 432.927 304.837 444.241 315.379C450.086 303.199 458.955 292.72 470 284.942C478.446 273.883 490.589 266.529 500.429 256.84C501.728 249.446 514.205 240.904 514.437 235.781C514.843 228.61 528.571 223.686 535.519 224.084C538.984 225.942 542.155 228.302 544.929 231.088C549.024 248.474 535.049 247.82 533.193 259.19C526.031 266.216 519.734 274.072 514.437 282.591C494.007 298.041 474.933 314.861 455.938 331.776C466.837 337.258 468.152 352.301 481.697 355.193C483.49 344.517 494.342 342.843 498.079 334.103C509.234 326.669 516.683 315.124 526.189 306.001C535.28 297.236 544.937 285.468 563.637 287.292C564.665 291.754 568.681 293.164 568.315 298.997C563.733 310.789 550.283 313.737 544.937 324.725C535.658 331.863 527.722 340.594 521.496 350.508C510.716 354.556 507.154 365.806 495.728 369.224C496.82 379.089 506.819 379.997 509.799 387.957C517.608 391.064 517.942 401.653 526.197 404.338C536.858 380.682 555.861 365.344 568.315 343.473C577.426 335.279 585.313 325.817 591.732 315.379C596.409 311.49 602.631 309.076 603.452 301.339C608.129 297.443 614.32 295.029 615.149 287.292C580.712 256.935 551.367 221.519 519.137 188.955H519.154ZM366.97 411.366C369.79 411.135 368.412 414.776 366.97 411.366C365.623 407.247 369.79 397.614 364.58 397.335C363.592 402.514 359.249 410.011 366.954 411.366H366.97ZM88.3623 687.631C97.1268 689.025 100.449 695.822 107.086 699.344C107.923 707.104 114.106 709.502 118.799 713.391C123.579 717.98 123.707 727.207 132.846 727.438C143.499 720.904 158.932 719.191 167.96 711.048C180.794 707.19 192.734 700.823 203.09 692.316C191.234 674.859 200.142 662.222 198.397 636.127C180.868 634.916 156.255 640.805 151.562 626.765C149.152 618.403 148.357 609.658 149.22 600.998C132.249 602.376 125.922 593.118 114.106 589.325C107.325 623.889 96.3699 654.254 88.3623 687.631Z" fill="#00A5A4"/>
</g>
<defs>
<clipPath id="clip0_1_13">
<rect width="800" height="800" fill="white"/>
</clipPath>
</defs>
</svg>
