<svg xmlns="http://www.w3.org/2000/svg" fill="none" viewBox="0 0 1024 1024" height="1024" width="1024">
<path fill="#154F16" d="M623.4 886.3C620.8 880.3 620.5 869.6 622.6 858C625.3 842.5 624.9 834 621.1 817C619.2 809 617.4 802.1 616.9 801.6C616.4 801.1 615 801.4 613.4 802.4C599.7 811.4 587 839.7 587 861.2C587 864.4 586.6 867 586.1 867C584.3 867 582.7 853.8 583.3 844.5C584.4 827.4 591.3 811 604.9 793C613.1 782.1 614.4 779.4 618 765.2C621.5 751 621.8 747.5 619.3 748.4C615.2 749.9 602 758.5 596.3 763.3C580.5 776.8 574 788.2 571.5 806.9C570.7 812.7 569.6 819 569.1 820.8C568.1 824 563.3 833 562.5 833C562.3 833 562.8 830.6 563.6 827.8C565 822.2 565.3 810.6 564.2 803C563.5 798.6 563.5 798.6 560.4 802.5C552.1 813.1 545.9 826.9 544.3 838.6C543.6 844.3 542.4 845 541.5 840.4C540.2 833.4 543.2 817.9 547.5 808.7C551.2 801 553.2 798 563.4 784.6C573.7 771.2 581 760.8 581 759.7C581 758.6 567.6 758.9 561.8 760.1C553.5 761.9 546.6 765.7 541 771.6C535.3 777.6 532.4 783.4 528.5 796.6C524.7 809.4 523 814 521.8 814C521.2 814 521 812.5 521.4 810.3C521.7 808.2 522.3 801.8 522.6 796.1C523.3 785.8 523.3 785.8 520.9 786.5C512.4 789 504.8 796.8 498.3 809.8C496.3 813.7 494.6 817 494.4 817C494.3 817 494.3 815.3 494.5 813.2C495 808.5 500 796.5 501.5 794C502 793 502.5 792 503 791.3C504 789.5 513.3 781 518.7 779C521.8 777.9 525.5 776.1 526.9 775.1C531 772.2 542.3 757 540.8 756.5C540.1 756.3 537.3 755.4 534.5 754.4C517.8 748.8 498.7 753.5 481.7 767.6C474.9 773.1 474.2 772.6 479.1 765.4C486.2 754.9 502.5 745.5 510.7 743C512 742.5 512 742.5 514 742C520.409 740.398 531.3 740.9 544.7 743.1C573.9 747.9 596.2 743 612.1 728.2C619 721.9 621.6 716.9 622.9 707.5C623.9 700.9 623.8 700.3 621 694.5C615.4 682.7 615 679.3 615 635.7C615 611.2 614.6 595.2 614 594C613.2 592.4 612.2 592.2 607.8 592.7C603.1 593.2 602.2 592.9 599.8 590.7C598 589 597 587.1 597 585.2C597 581 601.2 577.6 615.5 570.2C620.2 567.8 632.3 554.9 635.8 548.7C639.6 542 641.8 540.6 647.6 541.4C655.6 542.5 655.6 542.3 655.3 558.5C655 570.5 655.2 573.1 656.6 574.4C657.8 575.7 660.7 576 671.8 576C688.6 576.1 689.5 576.5 688.8 584C688 592.2 687.3 592.5 670.2 592.6L655.5 592.7V629.1C655.5 662.7 655.6 665.8 657.4 669.3C661.2 676.9 669.3 678.2 677.7 672.5C680.6 670.6 683.8 669 684.8 669C687.3 669 691 673.1 691 675.9C691 685.4 672.6 700.4 656.3 704.2C650.3 705.6 650.5 705.1 652.1 716.7C653.5 727 656.6 733.8 662.1 738.1C669.9 744.4 675.5 745.1 692.6 742C717.5 737.5 733.2 740.8 747 753.7C755.1 761.2 754.8 762.9 746.3 758.6C733.9 752.4 727.5 750.7 716.5 750.6C707.9 750.5 705.8 750.8 701.8 752.8C699.1 754.1 697 755.8 697 756.5C697 758.9 706.3 766.1 715.1 770.5C719.8 772.9 723.5 775.5 724.9 776.4C726 777 726.5 777.5 727.4 778C728.5 778.5 737 786.2 737 787.8C737 789.5 736.3 789.3 733 787C729.6 784.6 718 779 716.3 779C715.1 779 715.7 780.9 720.7 794.5C723.6 802.3 730.7 815.3 734.5 819.7C738.3 824.2 738.1 825.6 734.1 823.5C729.2 821 723.4 813.6 713.9 797.5C703.1 779.4 698.7 774 689.6 768.1C680.2 761.9 657 752.7 655.2 754.4C654.5 755.1 658.411 762.322 660.2 765.9C660.5 766.5 661 767.5 662 769.4C663.421 772.101 671.7 781.4 680.9 787.9C686.2 791.7 691.232 795.54 692 796.4C697 802 701 813.5 699.8 813.9C699.2 814.1 697.7 813 696.6 811.4C690 802.3 683.5 797 678.7 797C676.3 797 676.2 797.2 677.2 801.3C678.5 807.5 682.1 814.7 688 823.5C695.7 834.9 700 846.1 700 854.5C700 858.4 698.4 857.4 697.1 852.8C694.5 844.1 688.6 834.6 680.8 826.5L673.1 818.5L673 830.6C673 842.1 675.3 855.8 678.1 861.2C678.8 862.5 678.7 862.8 677.8 862.5C676.4 861.9 672 855.6 672 854.2C672 853.7 671.2 851.6 670.1 849.4C667.7 844.5 665.4 833.7 664.5 824C662.8 804.5 660.5 795.6 654.5 785.9C646.9 773.4 639.5 762.1 638.9 762C637.8 762 634.2 777.9 633 787.6C631.3 801.2 633.5 815.5 639 827.5C640 829.7 642.7 835.3 644.9 840C648.8 848.2 651 856.8 651 863.7C651 869.2 648.5 867.7 647 861.3C645.5 855.1 641.5 847.5 636.9 842.3C634.6 839.6 634 839.4 633.6 840.8C628.9 858.1 626.6 870.4 626.6 879.7C626.5 885.4 626.1 890 625.7 890C625.3 890 624.2 888.3 623.4 886.3Z"></path>
<path fill="#154F16" d="M457.7 638.4C457.7 674.9 428.1 704.5 391.5 704.5C355 704.5 325.4 674.9 325.4 638.4C325.4 601.8 355 572.2 391.5 572.2C428.1 572.2 457.7 601.8 457.7 638.4ZM401.8 685.6C409.3 681.7 412.7 672.4 413.7 653.5C415.1 624.3 407 597.4 395 591.2C389.6 588.4 382.3 588.6 378.2 591.7C369 598.5 365.5 621.6 369.6 648.9C372.7 670.1 379 682.9 388 686.3C390.9 687.4 399.1 687 401.8 685.6Z"></path>
<path fill="#154F16" d="M597.6 638.4C597.6 674.9 568 704.6 531.5 704.6C494.9 704.6 465.3 674.9 465.3 638.4C465.3 601.9 494.9 572.2 531.5 572.2C568 572.2 597.6 601.9 597.6 638.4ZM543.1 684.8C550.3 680 554 667.5 554 647.5C554 628.9 550.9 613.7 544.7 601.4C538.8 589.7 527.4 585.9 517.9 592.3C510.8 597.1 508 606.3 508 625.5C508 651.8 513.1 671.4 522.6 682C526.3 686.1 527.7 686.6 535.1 686.9C538.4 687 540.7 686.3 543.1 684.8Z"></path>
<path fill="#154F16" d="M159.3 703.2C156.5 702.8 154 699.4 154 696.2C154 693.8 158 689.3 163.5 685.6C165 684.6 167.2 681.7 168.4 679.1C170.5 674.6 170.5 673.6 170.5 616.5C170.5 570.1 170.2 557.6 169.1 553.7C168 549.9 166.4 547.8 160.8 542.8C154.4 537.2 153.9 536.4 154.2 533.1C154.4 530.1 155.1 529.2 158 527.8C161.1 526.2 165.1 526 196 526C255.6 526.1 271.3 528.1 288 538.1C295.3 542.5 301.4 550.5 305.3 560.7C307 566 307.5 568.5 307.5 580C307 593.5 307 594 303.8 601.3C299.5 610.3 290.5 620.4 283.4 624.1C281 625.4 279 626.8 279 627.1C279 627.4 281.1 631.4 283.8 635.8C286.4 640.3 291.4 649 295 655.1C302.6 668.3 311.5 678.3 321.6 685.1C325.7 687.8 329.4 690.9 330 691.9C331.8 695.3 331.2 698.7 328.4 700.9C325.9 702.9 324.5 703 304.3 703C271.9 703 274.1 704.6 247.1 660.1C230.8 633 230.8 633 224 633C219.2 633 216.9 633.4 216 634.5C215.1 635.6 214.9 641 215.2 655.7C215.7 678.5 216.4 681.2 223.5 687.5C228.9 692.3 230.3 697.2 227.3 700.7C225.5 702.9 225 702.9 193.5 703.2C175.9 703.4 160.5 703.4 159.3 703.2ZM239.8 614.3C244.6 613.8 245.7 613.1 251.4 607.6C256.8 602.3 257.8 600.7 259.1 595.5C260.9 587.7 260.7 571.8 258.5 564.5C256.5 557.4 250.8 551.1 243.7 547.9C239.4 546 236.7 545.6 228.2 545.5C220.1 545.5 217.7 545.8 217 547C215.7 549.1 215.7 610.6 217 613.1C217.9 614.7 219.2 615 226.3 615C230.8 615 236.9 614.7 239.8 614.3Z"></path>
<path fill="#154F16" d="M730.2 702C714.2 697.8 703.2 688.8 699.2 676.6C696.6 668.8 696.4 663.8 698.5 660.6C701.8 655.5 710 654.8 715.4 659.1C716.8 660.2 719.4 663.8 721.1 667.1C725.9 676.1 731 681.3 738.2 684.6C743.6 687.1 745.7 687.5 753 687.5C765.9 687.4 771 683.6 771 674C771 665.1 767.2 662.1 751 658C727.2 652.1 714.9 646 708 636.7C702.3 629.2 700.5 623.1 700.6 612C700.6 601.8 702 597.7 707.8 589.5C717 576.4 740.9 569.4 762.3 573.4C767.2 574.3 771.9 575.5 772.8 575.9C773.8 576.4 776.6 577.7 779.1 578.8C785.8 581.8 790.5 586.3 793.9 593.1C797.4 600.2 798.7 606.9 797 609.9C795.4 613 790.1 616 786.3 616C782.1 616 778.5 612.7 771.8 602.6C764.6 591.8 760.4 589.5 747.3 589.5C738.5 589.5 737.9 589.6 735.3 592.3C732.9 594.6 732.5 595.9 732.5 600.3C732.5 610.2 735.6 612.4 761 621C786.5 629.6 793.5 634.2 799.2 645.7C802.2 651.8 802.5 653.2 802.5 661.9C802.5 670.7 802.2 672.1 799.3 678.3C793.6 690.3 783.3 698.2 768.4 702C758 704.7 740.4 704.7 730.2 702Z"></path>
<path fill="#154F16" d="M675.4 519.7C672.8 517.4 672.8 517.4 671.4 481.4C669.3 426.1 668.6 417.3 666 411.7C663.4 406.1 659.3 402.5 654.2 401C649.6 399.8 648.4 399.8 643.8 401C638.8 402.4 634.1 406.5 631.9 411.5C630.2 415.1 630 418.6 630 448.3C630 485.4 630 485.4 637.3 488.8C641 490.5 641.8 491.5 642.3 494.2C642.9 498.2 640.9 501.7 637.3 503.1C635.7 503.7 623.5 504 606.4 503.8C573.9 503.5 574.6 503.6 575.8 495.8C576.4 491.9 577.1 490.7 580 488.8C581.9 487.5 584.5 484.6 585.7 482.4C588 478.4 588 478.4 588 409.8C588.1 331.9 588.5 336.2 579.9 328.9C573.5 323.5 573.3 320.6 579.2 315.6C581.5 313.6 582.818 312.841 584.5 312C585.5 311.5 586.5 311.1 588 310.5C591 309 610.7 302.1 616.3 301.4C621.8 300.6 627.7 303 629 306.5C629.6 308.1 630 326.3 630 352.7C630 396.3 630 396.3 632.8 392.4C640.6 381.7 651.2 375.3 663.5 373.9C681.6 371.9 696.9 380 704.1 395.4C708 403.7 709.5 415.5 711.5 452.2C712.4 468.5 713.5 483.1 713.9 484.6C714.3 486.1 715.5 487.8 716.6 488.4C724 492.4 725 493.5 725 497.1C725 501.7 724 502.5 716.5 504C708.1 505.7 703.1 508.3 696.4 514.4C693.1 517.3 689.5 520.2 688.3 520.8C684.6 522.8 678.4 522.3 675.4 519.7Z"></path>
<path fill="#154F16" d="M501.5 506.4C485.6 503.8 474 498.1 464.1 488.1C459.9 483.9 455.8 478.9 454.8 477C447.7 462 446.6 456.4 447.2 440.8C448.4 414.1 461.9 392.5 484.1 381.6C496.7 375.5 503.1 373.9 516.5 373.9C529.4 373.9 536.1 375.4 546 380.7C557.6 386.7 563.9 395.4 564.8 406.5C565.1 411 564.8 413.5 563.6 415.8C559.8 423.2 547.6 428.3 539.3 426.1C533.3 424.5 530.4 420.5 529.5 412.8C527.9 398.5 521.6 392 509.5 392C499.9 392 494.1 396.1 489.4 406.5C487.1 411.4 486.6 414.2 486.2 422.5C485.3 443.3 492.9 459.8 507.9 469.9C521.5 479.1 537.6 478 553.8 466.9C562.4 461 562.4 461 565.7 464.2C567.5 466 569 468.1 569 469C569 473.1 562.7 483.1 556.4 488.9C544.3 500.2 530.8 505.8 514 506.5C508.8 506.7 503.2 506.6 501.5 506.4Z"></path>
<path fill="#154F16" d="M190 503.3C182 500.3 183.9 492.1 193.8 486.8C196 485.6 197.8 483.5 199.1 480.6C201 476.2 201 474 200.8 413.8C200.5 343.2 201.1 348.6 191.9 341.5C188.6 339 186.4 336.5 186.2 335.1C185.6 330.9 186.9 328.1 190.4 326.5C193.4 325.1 199.3 324.9 240.6 325.2C287.5 325.6 287.5 325.6 297.5 328.3C311.1 332 321 337.1 327.5 343.6C345.2 361.7 345.4 393.5 327.8 413.4C325.5 416.2 320.3 420.5 316.3 423C309.2 427.6 309.1 427.7 311 429.6C312.8 431.4 316.3 437.5 322.2 448.9C326.7 457.5 335.7 470.6 341.7 477C344.7 480.3 350.4 484.9 354.3 487.3C361.1 491.4 361.5 491.8 361.8 495.6C362 498.7 361.6 500.1 359.9 501.6C357.9 503.4 356.2 503.5 335.6 503.5C303.8 503.5 305.5 504.6 283.3 468.5C278.9 461.4 273.6 452.4 271.5 448.6C269.4 444.8 266.3 440.2 264.7 438.3C261.9 435.1 261.5 435 254.4 435H247V455.8C247 479.8 247.6 482.1 255.4 488.5C260.4 492.6 261.1 495 258.6 499.9C257.1 502.7 257 502.7 244.9 503.3C230.5 504.1 192.2 504.1 190 503.3ZM268.6 417.4C283.2 412.5 291.6 400.3 292.7 382.3C293.1 376.4 292.8 372.1 291.5 366.5C289.9 360 289 358.2 285.1 354C278.7 347.2 272.7 344.7 261.5 344.2C245.7 343.5 247 340.3 247 380.9C247 411.3 247.2 416.1 248.6 417.4C250.7 419.6 262.1 419.5 268.6 417.4Z"></path>
<path fill="#154F16" d="M377 502.2C375.5 500.9 374.7 499.2 374.6 496.6C374.5 493.1 374.9 492.4 378.9 489.6C387.4 483.6 387.5 483 387.5 446.5C387.5 411.2 387.2 409.2 381.6 406.3C376.6 403.8 375 401.9 375 398.5C375 396.7 375.8 394.2 376.9 392.9C378.6 390.6 387.6 385.6 398 381.1C410.9 375.5 422.1 374.6 426.3 378.9C428.5 381 428.5 381.4 429 430.3C429.5 479.5 429.5 479.5 431.9 483.3C433.1 485.4 436 488 438.1 489.1C441.7 490.9 442 491.3 442 495.4C442 499 441.5 500.2 439.4 501.9C436.8 503.9 435.6 504 408 504C381.7 504 379 503.8 377 502.2Z"></path>
<path fill="#154F16" d="M429.3 342.8C429.3 355.3 419.1 365.5 406.6 365.5C394 365.5 383.9 355.3 383.9 342.8C383.9 330.2 394 320.1 406.6 320.1C419.1 320.1 429.3 330.2 429.3 342.8Z"></path>
<path fill="#154F16" d="M595.852 359.593C597.383 349.914 598.627 320.301 598.245 302.189C597.862 283.597 597.575 281.489 595.278 274.301C591.738 263.568 589.632 260.884 581.211 256.476C566.379 248.618 555.757 239.034 548.676 227.055C544.274 219.676 542.073 213.926 538.15 199.838C535.088 188.817 530.59 179.042 524.657 170.225C517.002 159.013 521.212 156.329 538.724 161.313C549.25 164.379 564.944 171.95 571.451 177.125C581.02 184.792 589.154 198.209 592.79 212.488C594.13 217.663 594.895 224.372 595.182 235.584C595.757 251.301 596.139 253.601 599.489 260.98C600.446 263.089 601.498 267.305 601.881 270.276C602.264 273.343 602.838 275.547 603.221 275.355C605.709 273.822 605.9 248.426 603.699 230.409C601.02 208.559 603.221 186.709 606.57 179.33C607.048 178.084 607.527 177.125 608.005 176.167C608.484 174.25 616.809 161.6 623.412 154.604C631.45 146.171 641.976 138.792 645.517 137.163C646.76 136.396 647.717 135.917 649.248 135.342C650.11 134.479 651.641 134 653.172 134C655.373 134 656.234 134.575 657.191 137.163C662.454 149.813 663.794 179.042 659.775 194.855C654.894 213.83 648.674 222.742 623.507 246.222C617.862 251.588 616.522 253.505 615.278 257.818C612.503 267.209 610.876 276.218 610.302 285.418C609.632 294.522 609.632 294.522 611.737 291.935C612.886 290.497 615.756 284.939 618.053 279.572C620.349 274.301 622.838 269.126 623.507 268.264C624.273 267.401 625.421 265.484 626.187 264.047C630.206 255.901 645.229 243.251 654.607 239.897C657.191 239.034 660.062 237.884 661.114 237.405C670.875 233.092 701.209 234.051 712.979 238.938C717.19 240.759 716.999 243.251 712.405 247.276C710.396 249.001 705.133 254.943 700.731 260.501C686.951 278.039 678.148 286.185 666.664 292.03C657.765 296.439 651.162 297.876 635.756 298.547C628.101 298.835 621.211 299.41 620.35 299.889C618.436 300.847 612.598 312.06 610.589 318.481C608.771 324.422 608.292 327.297 606.57 345.697C605.804 353.843 604.847 360.839 604.465 361.223C604.082 361.606 601.785 362.277 599.489 362.66C595.278 363.331 595.278 363.331 595.852 359.593ZM643.124 272.289C652.885 265.293 664.464 259.255 675.468 255.326C679.296 253.888 679.296 253.888 675.085 253.888C659.775 253.601 639.105 265.964 625.804 283.501C619.297 291.935 619.584 291.935 628.675 284.076C633.364 279.955 639.871 274.684 643.124 272.289ZM589.728 240.184C585.805 229.259 580.159 217.663 575.374 210.476C571.355 204.438 555.087 187.667 553.365 187.667C552.887 187.667 554.418 190.063 556.81 192.938C564.465 202.33 582.742 231.272 588.867 243.538C592.407 250.63 592.886 248.809 589.728 240.184ZM623.412 212.201C628.101 193.609 633.938 175.209 638.244 165.721C640.062 161.792 641.306 158.438 641.115 158.246C640.923 158.054 638.914 161.025 636.713 164.859C634.416 168.692 631.928 172.909 631.067 174.25C629.249 177.125 627.909 180.575 624.177 191.884C621.115 200.892 619.01 213.446 618.149 226.959C617.574 236.255 617.287 237.022 623.412 212.201Z"></path>
<path fill="#154F16" d="M825.439 553.496C826.339 553.496 827.253 553.369 828.18 553.115C828.458 553.039 828.628 553 828.694 553C829.329 553 829.941 553.801 830.529 555.401C831.118 557.002 831.412 558.793 831.412 560.774C831.412 561.475 831.285 562.008 831.032 562.373C830.781 562.735 830.42 562.915 829.947 562.915C829.1 562.915 828.299 562.175 827.546 560.693C827.426 560.471 827.332 560.294 827.263 560.162L827.228 560.081C826.273 558.269 824.931 557.363 823.2 557.363C822.325 557.363 821.737 557.46 821.434 557.652C821.129 557.845 820.932 558.291 820.839 558.991C820.796 559.307 820.753 560.149 820.707 561.519C820.66 562.889 820.637 564.401 820.637 566.055C820.637 569.492 820.679 572.298 820.764 574.475C820.852 576.65 820.975 577.989 821.134 578.492C821.214 578.785 821.598 579.089 822.288 579.404L822.305 579.421C822.874 579.675 823.255 579.928 823.448 580.177C823.64 580.428 823.737 580.759 823.737 581.17C823.737 581.952 823.282 582.497 822.374 582.809C821.47 583.116 819.74 583.271 817.186 583.271C814.635 583.271 812.905 583.116 811.998 582.809C811.093 582.497 810.641 581.952 810.641 581.17C810.641 580.47 811.041 579.918 811.842 579.514C812.641 579.11 813.08 578.849 813.158 578.729C813.368 578.414 813.524 577.202 813.625 575.093C813.725 572.98 813.775 569.968 813.775 566.055C813.775 564.401 813.752 562.889 813.706 561.519C813.66 560.149 813.616 559.307 813.579 558.991C813.487 558.291 813.29 557.845 812.99 557.652C812.693 557.46 812.103 557.363 811.218 557.363C809.455 557.363 808.086 558.297 807.109 560.162C807.043 560.294 806.938 560.497 806.792 560.774C806.065 562.202 805.291 562.915 804.472 562.915C803.994 562.915 803.629 562.735 803.375 562.373C803.124 562.008 803 561.475 803 560.774C803 558.793 803.294 557.002 803.883 555.401C804.472 553.801 805.083 553 805.718 553C805.811 553.012 805.984 553.05 806.238 553.115C807.161 553.369 808.073 553.496 808.973 553.496H825.439Z"></path>
<path fill="#154F16" d="M859.485 563.059C858.226 565.795 856.704 569.261 854.919 573.454C852.461 579.195 850.892 582.065 850.216 582.065C849.623 582.065 848.665 580.855 847.342 578.434C846.017 576.015 843.631 570.982 840.179 563.336C840.099 565.384 840.038 567.288 840 569.05C839.961 570.809 839.943 572.421 839.943 573.887C839.943 575.595 839.99 576.817 840.087 577.551C840.187 578.283 840.355 578.743 840.595 578.931C840.768 579.062 841.039 579.214 841.409 579.387C842.374 579.834 842.857 580.428 842.857 581.17C842.857 581.897 842.462 582.431 841.674 582.769C840.889 583.103 839.65 583.271 837.957 583.271C836.09 583.271 834.754 583.109 833.946 582.786C833.141 582.463 832.74 581.925 832.74 581.17C832.74 580.47 833.14 579.918 833.94 579.514C834.74 579.11 835.193 578.821 835.297 578.648C835.496 578.333 835.712 576.42 835.943 572.911C836.174 569.399 836.289 565.432 836.289 561.011C836.289 560.061 836.22 559.308 836.082 558.754C835.943 558.197 835.727 557.812 835.435 557.6C835.277 557.481 835 557.328 834.604 557.144C833.637 556.694 833.156 556.099 833.156 555.36C833.156 554.619 833.574 554.082 834.414 553.75C835.256 553.42 836.636 553.254 838.552 553.254C839.582 553.254 840.445 553.304 841.137 553.404C841.833 553.505 842.367 553.655 842.736 553.854C843.159 554.105 843.84 555.288 844.779 557.404C845.033 557.985 845.232 558.441 845.379 558.771L847.936 564.387C849.074 566.873 849.871 568.524 850.325 569.339C850.783 570.151 851.123 570.556 851.347 570.556C851.862 570.556 853.246 567.958 855.497 562.759C856.316 560.866 856.97 559.366 857.459 558.258C858.436 555.995 859.311 554.597 860.085 554.062C860.861 553.524 862.135 553.254 863.905 553.254C865.967 553.254 867.412 553.414 868.24 553.733C869.066 554.049 869.481 554.591 869.481 555.36C869.481 556.099 868.997 556.694 868.032 557.144C867.635 557.328 867.358 557.481 867.201 557.6C866.961 557.8 866.78 558.383 866.653 559.348C866.529 560.315 866.468 561.669 866.468 563.412C866.468 567.144 866.537 570.455 866.676 573.344C866.814 576.234 866.961 577.95 867.12 578.492C867.201 578.785 867.583 579.089 868.269 579.404L868.292 579.421C868.86 579.675 869.24 579.928 869.429 580.177C869.621 580.428 869.717 580.759 869.717 581.17C869.717 581.952 869.263 582.497 868.355 582.809C867.45 583.116 865.723 583.271 863.172 583.271C860.525 583.271 858.752 583.118 857.851 582.815C856.954 582.512 856.507 581.964 856.507 581.17C856.507 580.443 856.981 579.86 857.932 579.421C858.371 579.211 858.682 579.033 858.867 578.89C859.225 578.61 859.469 578.133 859.6 577.459C859.734 576.787 859.802 575.299 859.802 572.998C859.802 572.164 859.779 570.986 859.733 569.466C859.687 567.946 859.603 565.811 859.485 563.059Z"></path>
<path fill="#154F16" d="M623.4 886.3C620.8 880.3 620.5 869.6 622.6 858C625.3 842.5 624.9 834 621.1 817C619.2 809 617.4 802.1 616.9 801.6C616.4 801.1 615 801.4 613.4 802.4C599.7 811.4 587 839.7 587 861.2C587 864.4 586.6 867 586.1 867C584.3 867 582.7 853.8 583.3 844.5C584.4 827.4 591.3 811 604.9 793C613.1 782.1 614.4 779.4 618 765.2C621.5 751 621.8 747.5 619.3 748.4C615.2 749.9 602 758.5 596.3 763.3C580.5 776.8 574 788.2 571.5 806.9C570.7 812.7 569.6 819 569.1 820.8C568.1 824 563.3 833 562.5 833C562.3 833 562.8 830.6 563.6 827.8C565 822.2 565.3 810.6 564.2 803C563.5 798.6 563.5 798.6 560.4 802.5C552.1 813.1 545.9 826.9 544.3 838.6C543.6 844.3 542.4 845 541.5 840.4C540.2 833.4 543.2 817.9 547.5 808.7C551.2 801 553.2 798 563.4 784.6C573.7 771.2 581 760.8 581 759.7C581 758.6 567.6 758.9 561.8 760.1C553.5 761.9 546.6 765.7 541 771.6C535.3 777.6 532.4 783.4 528.5 796.6C524.7 809.4 523 814 521.8 814C521.2 814 521 812.5 521.4 810.3C521.7 808.2 522.3 801.8 522.6 796.1C523.3 785.8 523.3 785.8 520.9 786.5C512.4 789 504.8 796.8 498.3 809.8C496.3 813.7 494.6 817 494.4 817C494.3 817 494.3 815.3 494.5 813.2C495 808.5 500 796.5 501.5 794C502 793 502.5 792 503 791.3C504 789.5 513.3 781 518.7 779C521.8 777.9 525.5 776.1 526.9 775.1C531 772.2 542.3 757 540.8 756.5C540.1 756.3 537.3 755.4 534.5 754.4C517.8 748.8 498.7 753.5 481.7 767.6C474.9 773.1 474.2 772.6 479.1 765.4C486.2 754.9 502.5 745.5 510.7 743C512 742.5 512 742.5 514 742C520.409 740.398 531.3 740.9 544.7 743.1C573.9 747.9 596.2 743 612.1 728.2C619 721.9 621.6 716.9 622.9 707.5C623.9 700.9 623.8 700.3 621 694.5C615.4 682.7 615 679.3 615 635.7C615 611.2 614.6 595.2 614 594C613.2 592.4 612.2 592.2 607.8 592.7C603.1 593.2 602.2 592.9 599.8 590.7C598 589 597 587.1 597 585.2C597 581 601.2 577.6 615.5 570.2C620.2 567.8 632.3 554.9 635.8 548.7C639.6 542 641.8 540.6 647.6 541.4C655.6 542.5 655.6 542.3 655.3 558.5C655 570.5 655.2 573.1 656.6 574.4C657.8 575.7 660.7 576 671.8 576C688.6 576.1 689.5 576.5 688.8 584C688 592.2 687.3 592.5 670.2 592.6L655.5 592.7V629.1C655.5 662.7 655.6 665.8 657.4 669.3C661.2 676.9 669.3 678.2 677.7 672.5C680.6 670.6 683.8 669 684.8 669C687.3 669 691 673.1 691 675.9C691 685.4 672.6 700.4 656.3 704.2C650.3 705.6 650.5 705.1 652.1 716.7C653.5 727 656.6 733.8 662.1 738.1C669.9 744.4 675.5 745.1 692.6 742C717.5 737.5 733.2 740.8 747 753.7C755.1 761.2 754.8 762.9 746.3 758.6C733.9 752.4 727.5 750.7 716.5 750.6C707.9 750.5 705.8 750.8 701.8 752.8C699.1 754.1 697 755.8 697 756.5C697 758.9 706.3 766.1 715.1 770.5C719.8 772.9 723.5 775.5 724.9 776.4C726 777 726.5 777.5 727.4 778C728.5 778.5 737 786.2 737 787.8C737 789.5 736.3 789.3 733 787C729.6 784.6 718 779 716.3 779C715.1 779 715.7 780.9 720.7 794.5C723.6 802.3 730.7 815.3 734.5 819.7C738.3 824.2 738.1 825.6 734.1 823.5C729.2 821 723.4 813.6 713.9 797.5C703.1 779.4 698.7 774 689.6 768.1C680.2 761.9 657 752.7 655.2 754.4C654.5 755.1 658.411 762.322 660.2 765.9C660.5 766.5 661 767.5 662 769.4C663.421 772.101 671.7 781.4 680.9 787.9C686.2 791.7 691.232 795.54 692 796.4C697 802 701 813.5 699.8 813.9C699.2 814.1 697.7 813 696.6 811.4C690 802.3 683.5 797 678.7 797C676.3 797 676.2 797.2 677.2 801.3C678.5 807.5 682.1 814.7 688 823.5C695.7 834.9 700 846.1 700 854.5C700 858.4 698.4 857.4 697.1 852.8C694.5 844.1 688.6 834.6 680.8 826.5L673.1 818.5L673 830.6C673 842.1 675.3 855.8 678.1 861.2C678.8 862.5 678.7 862.8 677.8 862.5C676.4 861.9 672 855.6 672 854.2C672 853.7 671.2 851.6 670.1 849.4C667.7 844.5 665.4 833.7 664.5 824C662.8 804.5 660.5 795.6 654.5 785.9C646.9 773.4 639.5 762.1 638.9 762C637.8 762 634.2 777.9 633 787.6C631.3 801.2 633.5 815.5 639 827.5C640 829.7 642.7 835.3 644.9 840C648.8 848.2 651 856.8 651 863.7C651 869.2 648.5 867.7 647 861.3C645.5 855.1 641.5 847.5 636.9 842.3C634.6 839.6 634 839.4 633.6 840.8C628.9 858.1 626.6 870.4 626.6 879.7C626.5 885.4 626.1 890 625.7 890C625.3 890 624.2 888.3 623.4 886.3Z"></path>
<path fill="#154F16" d="M457.7 638.4C457.7 674.9 428.1 704.5 391.5 704.5C355 704.5 325.4 674.9 325.4 638.4C325.4 601.8 355 572.2 391.5 572.2C428.1 572.2 457.7 601.8 457.7 638.4ZM401.8 685.6C409.3 681.7 412.7 672.4 413.7 653.5C415.1 624.3 407 597.4 395 591.2C389.6 588.4 382.3 588.6 378.2 591.7C369 598.5 365.5 621.6 369.6 648.9C372.7 670.1 379 682.9 388 686.3C390.9 687.4 399.1 687 401.8 685.6Z"></path>
<path fill="#154F16" d="M597.6 638.4C597.6 674.9 568 704.6 531.5 704.6C494.9 704.6 465.3 674.9 465.3 638.4C465.3 601.9 494.9 572.2 531.5 572.2C568 572.2 597.6 601.9 597.6 638.4ZM543.1 684.8C550.3 680 554 667.5 554 647.5C554 628.9 550.9 613.7 544.7 601.4C538.8 589.7 527.4 585.9 517.9 592.3C510.8 597.1 508 606.3 508 625.5C508 651.8 513.1 671.4 522.6 682C526.3 686.1 527.7 686.6 535.1 686.9C538.4 687 540.7 686.3 543.1 684.8Z"></path>
<path fill="#154F16" d="M159.3 703.2C156.5 702.8 154 699.4 154 696.2C154 693.8 158 689.3 163.5 685.6C165 684.6 167.2 681.7 168.4 679.1C170.5 674.6 170.5 673.6 170.5 616.5C170.5 570.1 170.2 557.6 169.1 553.7C168 549.9 166.4 547.8 160.8 542.8C154.4 537.2 153.9 536.4 154.2 533.1C154.4 530.1 155.1 529.2 158 527.8C161.1 526.2 165.1 526 196 526C255.6 526.1 271.3 528.1 288 538.1C295.3 542.5 301.4 550.5 305.3 560.7C307 566 307.5 568.5 307.5 580C307 593.5 307 594 303.8 601.3C299.5 610.3 290.5 620.4 283.4 624.1C281 625.4 279 626.8 279 627.1C279 627.4 281.1 631.4 283.8 635.8C286.4 640.3 291.4 649 295 655.1C302.6 668.3 311.5 678.3 321.6 685.1C325.7 687.8 329.4 690.9 330 691.9C331.8 695.3 331.2 698.7 328.4 700.9C325.9 702.9 324.5 703 304.3 703C271.9 703 274.1 704.6 247.1 660.1C230.8 633 230.8 633 224 633C219.2 633 216.9 633.4 216 634.5C215.1 635.6 214.9 641 215.2 655.7C215.7 678.5 216.4 681.2 223.5 687.5C228.9 692.3 230.3 697.2 227.3 700.7C225.5 702.9 225 702.9 193.5 703.2C175.9 703.4 160.5 703.4 159.3 703.2ZM239.8 614.3C244.6 613.8 245.7 613.1 251.4 607.6C256.8 602.3 257.8 600.7 259.1 595.5C260.9 587.7 260.7 571.8 258.5 564.5C256.5 557.4 250.8 551.1 243.7 547.9C239.4 546 236.7 545.6 228.2 545.5C220.1 545.5 217.7 545.8 217 547C215.7 549.1 215.7 610.6 217 613.1C217.9 614.7 219.2 615 226.3 615C230.8 615 236.9 614.7 239.8 614.3Z"></path>
<path fill="#154F16" d="M730.2 702C714.2 697.8 703.2 688.8 699.2 676.6C696.6 668.8 696.4 663.8 698.5 660.6C701.8 655.5 710 654.8 715.4 659.1C716.8 660.2 719.4 663.8 721.1 667.1C725.9 676.1 731 681.3 738.2 684.6C743.6 687.1 745.7 687.5 753 687.5C765.9 687.4 771 683.6 771 674C771 665.1 767.2 662.1 751 658C727.2 652.1 714.9 646 708 636.7C702.3 629.2 700.5 623.1 700.6 612C700.6 601.8 702 597.7 707.8 589.5C717 576.4 740.9 569.4 762.3 573.4C767.2 574.3 771.9 575.5 772.8 575.9C773.8 576.4 776.6 577.7 779.1 578.8C785.8 581.8 790.5 586.3 793.9 593.1C797.4 600.2 798.7 606.9 797 609.9C795.4 613 790.1 616 786.3 616C782.1 616 778.5 612.7 771.8 602.6C764.6 591.8 760.4 589.5 747.3 589.5C738.5 589.5 737.9 589.6 735.3 592.3C732.9 594.6 732.5 595.9 732.5 600.3C732.5 610.2 735.6 612.4 761 621C786.5 629.6 793.5 634.2 799.2 645.7C802.2 651.8 802.5 653.2 802.5 661.9C802.5 670.7 802.2 672.1 799.3 678.3C793.6 690.3 783.3 698.2 768.4 702C758 704.7 740.4 704.7 730.2 702Z"></path>
<path fill="#154F16" d="M675.4 519.7C672.8 517.4 672.8 517.4 671.4 481.4C669.3 426.1 668.6 417.3 666 411.7C663.4 406.1 659.3 402.5 654.2 401C649.6 399.8 648.4 399.8 643.8 401C638.8 402.4 634.1 406.5 631.9 411.5C630.2 415.1 630 418.6 630 448.3C630 485.4 630 485.4 637.3 488.8C641 490.5 641.8 491.5 642.3 494.2C642.9 498.2 640.9 501.7 637.3 503.1C635.7 503.7 623.5 504 606.4 503.8C573.9 503.5 574.6 503.6 575.8 495.8C576.4 491.9 577.1 490.7 580 488.8C581.9 487.5 584.5 484.6 585.7 482.4C588 478.4 588 478.4 588 409.8C588.1 331.9 588.5 336.2 579.9 328.9C573.5 323.5 573.3 320.6 579.2 315.6C581.5 313.6 582.818 312.841 584.5 312C585.5 311.5 586.5 311.1 588 310.5C591 309 610.7 302.1 616.3 301.4C621.8 300.6 627.7 303 629 306.5C629.6 308.1 630 326.3 630 352.7C630 396.3 630 396.3 632.8 392.4C640.6 381.7 651.2 375.3 663.5 373.9C681.6 371.9 696.9 380 704.1 395.4C708 403.7 709.5 415.5 711.5 452.2C712.4 468.5 713.5 483.1 713.9 484.6C714.3 486.1 715.5 487.8 716.6 488.4C724 492.4 725 493.5 725 497.1C725 501.7 724 502.5 716.5 504C708.1 505.7 703.1 508.3 696.4 514.4C693.1 517.3 689.5 520.2 688.3 520.8C684.6 522.8 678.4 522.3 675.4 519.7Z"></path>
<path fill="#154F16" d="M501.5 506.4C485.6 503.8 474 498.1 464.1 488.1C459.9 483.9 455.8 478.9 454.8 477C447.7 462 446.6 456.4 447.2 440.8C448.4 414.1 461.9 392.5 484.1 381.6C496.7 375.5 503.1 373.9 516.5 373.9C529.4 373.9 536.1 375.4 546 380.7C557.6 386.7 563.9 395.4 564.8 406.5C565.1 411 564.8 413.5 563.6 415.8C559.8 423.2 547.6 428.3 539.3 426.1C533.3 424.5 530.4 420.5 529.5 412.8C527.9 398.5 521.6 392 509.5 392C499.9 392 494.1 396.1 489.4 406.5C487.1 411.4 486.6 414.2 486.2 422.5C485.3 443.3 492.9 459.8 507.9 469.9C521.5 479.1 537.6 478 553.8 466.9C562.4 461 562.4 461 565.7 464.2C567.5 466 569 468.1 569 469C569 473.1 562.7 483.1 556.4 488.9C544.3 500.2 530.8 505.8 514 506.5C508.8 506.7 503.2 506.6 501.5 506.4Z"></path>
<path fill="#154F16" d="M190 503.3C182 500.3 183.9 492.1 193.8 486.8C196 485.6 197.8 483.5 199.1 480.6C201 476.2 201 474 200.8 413.8C200.5 343.2 201.1 348.6 191.9 341.5C188.6 339 186.4 336.5 186.2 335.1C185.6 330.9 186.9 328.1 190.4 326.5C193.4 325.1 199.3 324.9 240.6 325.2C287.5 325.6 287.5 325.6 297.5 328.3C311.1 332 321 337.1 327.5 343.6C345.2 361.7 345.4 393.5 327.8 413.4C325.5 416.2 320.3 420.5 316.3 423C309.2 427.6 309.1 427.7 311 429.6C312.8 431.4 316.3 437.5 322.2 448.9C326.7 457.5 335.7 470.6 341.7 477C344.7 480.3 350.4 484.9 354.3 487.3C361.1 491.4 361.5 491.8 361.8 495.6C362 498.7 361.6 500.1 359.9 501.6C357.9 503.4 356.2 503.5 335.6 503.5C303.8 503.5 305.5 504.6 283.3 468.5C278.9 461.4 273.6 452.4 271.5 448.6C269.4 444.8 266.3 440.2 264.7 438.3C261.9 435.1 261.5 435 254.4 435H247V455.8C247 479.8 247.6 482.1 255.4 488.5C260.4 492.6 261.1 495 258.6 499.9C257.1 502.7 257 502.7 244.9 503.3C230.5 504.1 192.2 504.1 190 503.3ZM268.6 417.4C283.2 412.5 291.6 400.3 292.7 382.3C293.1 376.4 292.8 372.1 291.5 366.5C289.9 360 289 358.2 285.1 354C278.7 347.2 272.7 344.7 261.5 344.2C245.7 343.5 247 340.3 247 380.9C247 411.3 247.2 416.1 248.6 417.4C250.7 419.6 262.1 419.5 268.6 417.4Z"></path>
<path fill="#154F16" d="M377 502.2C375.5 500.9 374.7 499.2 374.6 496.6C374.5 493.1 374.9 492.4 378.9 489.6C387.4 483.6 387.5 483 387.5 446.5C387.5 411.2 387.2 409.2 381.6 406.3C376.6 403.8 375 401.9 375 398.5C375 396.7 375.8 394.2 376.9 392.9C378.6 390.6 387.6 385.6 398 381.1C410.9 375.5 422.1 374.6 426.3 378.9C428.5 381 428.5 381.4 429 430.3C429.5 479.5 429.5 479.5 431.9 483.3C433.1 485.4 436 488 438.1 489.1C441.7 490.9 442 491.3 442 495.4C442 499 441.5 500.2 439.4 501.9C436.8 503.9 435.6 504 408 504C381.7 504 379 503.8 377 502.2Z"></path>
<path fill="#154F16" d="M429.3 342.8C429.3 355.3 419.1 365.5 406.6 365.5C394 365.5 383.9 355.3 383.9 342.8C383.9 330.2 394 320.1 406.6 320.1C419.1 320.1 429.3 330.2 429.3 342.8Z"></path>
<path fill="#154F16" d="M595.852 359.593C597.383 349.914 598.627 320.301 598.245 302.189C597.862 283.597 597.575 281.489 595.278 274.301C591.738 263.568 589.632 260.884 581.211 256.476C566.379 248.618 555.757 239.034 548.676 227.055C544.274 219.676 542.073 213.926 538.15 199.838C535.088 188.817 530.59 179.042 524.657 170.225C517.002 159.013 521.212 156.329 538.724 161.313C549.25 164.379 564.944 171.95 571.451 177.125C581.02 184.792 589.154 198.209 592.79 212.488C594.13 217.663 594.895 224.372 595.182 235.584C595.757 251.301 596.139 253.601 599.489 260.98C600.446 263.089 601.498 267.305 601.881 270.276C602.264 273.343 602.838 275.547 603.221 275.355C605.709 273.822 605.9 248.426 603.699 230.409C601.02 208.559 603.221 186.709 606.57 179.33C607.048 178.084 607.527 177.125 608.005 176.167C608.484 174.25 616.809 161.6 623.412 154.604C631.45 146.171 641.976 138.792 645.517 137.163C646.76 136.396 647.717 135.917 649.248 135.342C650.11 134.479 651.641 134 653.172 134C655.373 134 656.234 134.575 657.191 137.163C662.454 149.813 663.794 179.042 659.775 194.855C654.894 213.83 648.674 222.742 623.507 246.222C617.862 251.588 616.522 253.505 615.278 257.818C612.503 267.209 610.876 276.218 610.302 285.418C609.632 294.522 609.632 294.522 611.737 291.935C612.886 290.497 615.756 284.939 618.053 279.572C620.349 274.301 622.838 269.126 623.507 268.264C624.273 267.401 625.421 265.484 626.187 264.047C630.206 255.901 645.229 243.251 654.607 239.897C657.191 239.034 660.062 237.884 661.114 237.405C670.875 233.092 701.209 234.051 712.979 238.938C717.19 240.759 716.999 243.251 712.405 247.276C710.396 249.001 705.133 254.943 700.731 260.501C686.951 278.039 678.148 286.185 666.664 292.03C657.765 296.439 651.162 297.876 635.756 298.547C628.101 298.835 621.211 299.41 620.35 299.889C618.436 300.847 612.598 312.06 610.589 318.481C608.771 324.422 608.292 327.297 606.57 345.697C605.804 353.843 604.847 360.839 604.465 361.223C604.082 361.606 601.785 362.277 599.489 362.66C595.278 363.331 595.278 363.331 595.852 359.593ZM643.124 272.289C652.885 265.293 664.464 259.255 675.468 255.326C679.296 253.888 679.296 253.888 675.085 253.888C659.775 253.601 639.105 265.964 625.804 283.501C619.297 291.935 619.584 291.935 628.675 284.076C633.364 279.955 639.871 274.684 643.124 272.289ZM589.728 240.184C585.805 229.259 580.159 217.663 575.374 210.476C571.355 204.438 555.087 187.667 553.365 187.667C552.887 187.667 554.418 190.063 556.81 192.938C564.465 202.33 582.742 231.272 588.867 243.538C592.407 250.63 592.886 248.809 589.728 240.184ZM623.412 212.201C628.101 193.609 633.938 175.209 638.244 165.721C640.062 161.792 641.306 158.438 641.115 158.246C640.923 158.054 638.914 161.025 636.713 164.859C634.416 168.692 631.928 172.909 631.067 174.25C629.249 177.125 627.909 180.575 624.177 191.884C621.115 200.892 619.01 213.446 618.149 226.959C617.574 236.255 617.287 237.022 623.412 212.201Z"></path>
<path fill="#154F16" d="M825.439 553.496C826.339 553.496 827.253 553.369 828.18 553.115C828.458 553.039 828.628 553 828.694 553C829.329 553 829.941 553.801 830.529 555.401C831.118 557.002 831.412 558.793 831.412 560.774C831.412 561.475 831.285 562.008 831.032 562.373C830.781 562.735 830.42 562.915 829.947 562.915C829.1 562.915 828.299 562.175 827.546 560.693C827.426 560.471 827.332 560.294 827.263 560.162L827.228 560.081C826.273 558.269 824.931 557.363 823.2 557.363C822.325 557.363 821.737 557.46 821.434 557.652C821.129 557.845 820.932 558.291 820.839 558.991C820.796 559.307 820.753 560.149 820.707 561.519C820.66 562.889 820.637 564.401 820.637 566.055C820.637 569.492 820.679 572.298 820.764 574.475C820.852 576.65 820.975 577.989 821.134 578.492C821.214 578.785 821.598 579.089 822.288 579.404L822.305 579.421C822.874 579.675 823.255 579.928 823.448 580.177C823.64 580.428 823.737 580.759 823.737 581.17C823.737 581.952 823.282 582.497 822.374 582.809C821.47 583.116 819.74 583.271 817.186 583.271C814.635 583.271 812.905 583.116 811.998 582.809C811.093 582.497 810.641 581.952 810.641 581.17C810.641 580.47 811.041 579.918 811.842 579.514C812.641 579.11 813.08 578.849 813.158 578.729C813.368 578.414 813.524 577.202 813.625 575.093C813.725 572.98 813.775 569.968 813.775 566.055C813.775 564.401 813.752 562.889 813.706 561.519C813.66 560.149 813.616 559.307 813.579 558.991C813.487 558.291 813.29 557.845 812.99 557.652C812.693 557.46 812.103 557.363 811.218 557.363C809.455 557.363 808.086 558.297 807.109 560.162C807.043 560.294 806.938 560.497 806.792 560.774C806.065 562.202 805.291 562.915 804.472 562.915C803.994 562.915 803.629 562.735 803.375 562.373C803.124 562.008 803 561.475 803 560.774C803 558.793 803.294 557.002 803.883 555.401C804.472 553.801 805.083 553 805.718 553C805.811 553.012 805.984 553.05 806.238 553.115C807.161 553.369 808.073 553.496 808.973 553.496H825.439Z"></path>
<path fill="#154F16" d="M859.485 563.059C858.226 565.795 856.704 569.261 854.919 573.454C852.461 579.195 850.892 582.065 850.216 582.065C849.623 582.065 848.665 580.855 847.342 578.434C846.017 576.015 843.631 570.982 840.179 563.336C840.099 565.384 840.038 567.288 840 569.05C839.961 570.809 839.943 572.421 839.943 573.887C839.943 575.595 839.99 576.817 840.087 577.551C840.187 578.283 840.355 578.743 840.595 578.931C840.768 579.062 841.039 579.214 841.409 579.387C842.374 579.834 842.857 580.428 842.857 581.17C842.857 581.897 842.462 582.431 841.674 582.769C840.889 583.103 839.65 583.271 837.957 583.271C836.09 583.271 834.754 583.109 833.946 582.786C833.141 582.463 832.74 581.925 832.74 581.17C832.74 580.47 833.14 579.918 833.94 579.514C834.74 579.11 835.193 578.821 835.297 578.648C835.496 578.333 835.712 576.42 835.943 572.911C836.174 569.399 836.289 565.432 836.289 561.011C836.289 560.061 836.22 559.308 836.082 558.754C835.943 558.197 835.727 557.812 835.435 557.6C835.277 557.481 835 557.328 834.604 557.144C833.637 556.694 833.156 556.099 833.156 555.36C833.156 554.619 833.574 554.082 834.414 553.75C835.256 553.42 836.636 553.254 838.552 553.254C839.582 553.254 840.445 553.304 841.137 553.404C841.833 553.505 842.367 553.655 842.736 553.854C843.159 554.105 843.84 555.288 844.779 557.404C845.033 557.985 845.232 558.441 845.379 558.771L847.936 564.387C849.074 566.873 849.871 568.524 850.325 569.339C850.783 570.151 851.123 570.556 851.347 570.556C851.862 570.556 853.246 567.958 855.497 562.759C856.316 560.866 856.97 559.366 857.459 558.258C858.436 555.995 859.311 554.597 860.085 554.062C860.861 553.524 862.135 553.254 863.905 553.254C865.967 553.254 867.412 553.414 868.24 553.733C869.066 554.049 869.481 554.591 869.481 555.36C869.481 556.099 868.997 556.694 868.032 557.144C867.635 557.328 867.358 557.481 867.201 557.6C866.961 557.8 866.78 558.383 866.653 559.348C866.529 560.315 866.468 561.669 866.468 563.412C866.468 567.144 866.537 570.455 866.676 573.344C866.814 576.234 866.961 577.95 867.12 578.492C867.201 578.785 867.583 579.089 868.269 579.404L868.292 579.421C868.86 579.675 869.24 579.928 869.429 580.177C869.621 580.428 869.717 580.759 869.717 581.17C869.717 581.952 869.263 582.497 868.355 582.809C867.45 583.116 865.723 583.271 863.172 583.271C860.525 583.271 858.752 583.118 857.851 582.815C856.954 582.512 856.507 581.964 856.507 581.17C856.507 580.443 856.981 579.86 857.932 579.421C858.371 579.211 858.682 579.033 858.867 578.89C859.225 578.61 859.469 578.133 859.6 577.459C859.734 576.787 859.802 575.299 859.802 572.998C859.802 572.164 859.779 570.986 859.733 569.466C859.687 567.946 859.603 565.811 859.485 563.059Z"></path>
<path fill="#154F16" d="M623.4 886.3C620.8 880.3 620.5 869.6 622.6 858C625.3 842.5 624.9 834 621.1 817C619.2 809 617.4 802.1 616.9 801.6C616.4 801.1 615 801.4 613.4 802.4C599.7 811.4 587 839.7 587 861.2C587 864.4 586.6 867 586.1 867C584.3 867 582.7 853.8 583.3 844.5C584.4 827.4 591.3 811 604.9 793C613.1 782.1 614.4 779.4 618 765.2C621.5 751 621.8 747.5 619.3 748.4C615.2 749.9 602 758.5 596.3 763.3C580.5 776.8 574 788.2 571.5 806.9C570.7 812.7 569.6 819 569.1 820.8C568.1 824 563.3 833 562.5 833C562.3 833 562.8 830.6 563.6 827.8C565 822.2 565.3 810.6 564.2 803C563.5 798.6 563.5 798.6 560.4 802.5C552.1 813.1 545.9 826.9 544.3 838.6C543.6 844.3 542.4 845 541.5 840.4C540.2 833.4 543.2 817.9 547.5 808.7C551.2 801 553.2 798 563.4 784.6C573.7 771.2 581 760.8 581 759.7C581 758.6 567.6 758.9 561.8 760.1C553.5 761.9 546.6 765.7 541 771.6C535.3 777.6 532.4 783.4 528.5 796.6C524.7 809.4 523 814 521.8 814C521.2 814 521 812.5 521.4 810.3C521.7 808.2 522.3 801.8 522.6 796.1C523.3 785.8 523.3 785.8 520.9 786.5C512.4 789 504.8 796.8 498.3 809.8C496.3 813.7 494.6 817 494.4 817C494.3 817 494.3 815.3 494.5 813.2C495 808.5 500 796.5 501.5 794C502 793 502.5 792 503 791.3C504 789.5 513.3 781 518.7 779C521.8 777.9 525.5 776.1 526.9 775.1C531 772.2 542.3 757 540.8 756.5C540.1 756.3 537.3 755.4 534.5 754.4C517.8 748.8 498.7 753.5 481.7 767.6C474.9 773.1 474.2 772.6 479.1 765.4C486.2 754.9 502.5 745.5 510.7 743C512 742.5 512 742.5 514 742C520.409 740.398 531.3 740.9 544.7 743.1C573.9 747.9 596.2 743 612.1 728.2C619 721.9 621.6 716.9 622.9 707.5C623.9 700.9 623.8 700.3 621 694.5C615.4 682.7 615 679.3 615 635.7C615 611.2 614.6 595.2 614 594C613.2 592.4 612.2 592.2 607.8 592.7C603.1 593.2 602.2 592.9 599.8 590.7C598 589 597 587.1 597 585.2C597 581 601.2 577.6 615.5 570.2C620.2 567.8 632.3 554.9 635.8 548.7C639.6 542 641.8 540.6 647.6 541.4C655.6 542.5 655.6 542.3 655.3 558.5C655 570.5 655.2 573.1 656.6 574.4C657.8 575.7 660.7 576 671.8 576C688.6 576.1 689.5 576.5 688.8 584C688 592.2 687.3 592.5 670.2 592.6L655.5 592.7V629.1C655.5 662.7 655.6 665.8 657.4 669.3C661.2 676.9 669.3 678.2 677.7 672.5C680.6 670.6 683.8 669 684.8 669C687.3 669 691 673.1 691 675.9C691 685.4 672.6 700.4 656.3 704.2C650.3 705.6 650.5 705.1 652.1 716.7C653.5 727 656.6 733.8 662.1 738.1C669.9 744.4 675.5 745.1 692.6 742C717.5 737.5 733.2 740.8 747 753.7C755.1 761.2 754.8 762.9 746.3 758.6C733.9 752.4 727.5 750.7 716.5 750.6C707.9 750.5 705.8 750.8 701.8 752.8C699.1 754.1 697 755.8 697 756.5C697 758.9 706.3 766.1 715.1 770.5C719.8 772.9 723.5 775.5 724.9 776.4C726 777 726.5 777.5 727.4 778C728.5 778.5 737 786.2 737 787.8C737 789.5 736.3 789.3 733 787C729.6 784.6 718 779 716.3 779C715.1 779 715.7 780.9 720.7 794.5C723.6 802.3 730.7 815.3 734.5 819.7C738.3 824.2 738.1 825.6 734.1 823.5C729.2 821 723.4 813.6 713.9 797.5C703.1 779.4 698.7 774 689.6 768.1C680.2 761.9 657 752.7 655.2 754.4C654.5 755.1 658.411 762.322 660.2 765.9C660.5 766.5 661 767.5 662 769.4C663.421 772.101 671.7 781.4 680.9 787.9C686.2 791.7 691.232 795.54 692 796.4C697 802 701 813.5 699.8 813.9C699.2 814.1 697.7 813 696.6 811.4C690 802.3 683.5 797 678.7 797C676.3 797 676.2 797.2 677.2 801.3C678.5 807.5 682.1 814.7 688 823.5C695.7 834.9 700 846.1 700 854.5C700 858.4 698.4 857.4 697.1 852.8C694.5 844.1 688.6 834.6 680.8 826.5L673.1 818.5L673 830.6C673 842.1 675.3 855.8 678.1 861.2C678.8 862.5 678.7 862.8 677.8 862.5C676.4 861.9 672 855.6 672 854.2C672 853.7 671.2 851.6 670.1 849.4C667.7 844.5 665.4 833.7 664.5 824C662.8 804.5 660.5 795.6 654.5 785.9C646.9 773.4 639.5 762.1 638.9 762C637.8 762 634.2 777.9 633 787.6C631.3 801.2 633.5 815.5 639 827.5C640 829.7 642.7 835.3 644.9 840C648.8 848.2 651 856.8 651 863.7C651 869.2 648.5 867.7 647 861.3C645.5 855.1 641.5 847.5 636.9 842.3C634.6 839.6 634 839.4 633.6 840.8C628.9 858.1 626.6 870.4 626.6 879.7C626.5 885.4 626.1 890 625.7 890C625.3 890 624.2 888.3 623.4 886.3Z"></path>
<path fill="#154F16" d="M457.7 638.4C457.7 674.9 428.1 704.5 391.5 704.5C355 704.5 325.4 674.9 325.4 638.4C325.4 601.8 355 572.2 391.5 572.2C428.1 572.2 457.7 601.8 457.7 638.4ZM401.8 685.6C409.3 681.7 412.7 672.4 413.7 653.5C415.1 624.3 407 597.4 395 591.2C389.6 588.4 382.3 588.6 378.2 591.7C369 598.5 365.5 621.6 369.6 648.9C372.7 670.1 379 682.9 388 686.3C390.9 687.4 399.1 687 401.8 685.6Z"></path>
<path fill="#154F16" d="M597.6 638.4C597.6 674.9 568 704.6 531.5 704.6C494.9 704.6 465.3 674.9 465.3 638.4C465.3 601.9 494.9 572.2 531.5 572.2C568 572.2 597.6 601.9 597.6 638.4ZM543.1 684.8C550.3 680 554 667.5 554 647.5C554 628.9 550.9 613.7 544.7 601.4C538.8 589.7 527.4 585.9 517.9 592.3C510.8 597.1 508 606.3 508 625.5C508 651.8 513.1 671.4 522.6 682C526.3 686.1 527.7 686.6 535.1 686.9C538.4 687 540.7 686.3 543.1 684.8Z"></path>
<path fill="#154F16" d="M159.3 703.2C156.5 702.8 154 699.4 154 696.2C154 693.8 158 689.3 163.5 685.6C165 684.6 167.2 681.7 168.4 679.1C170.5 674.6 170.5 673.6 170.5 616.5C170.5 570.1 170.2 557.6 169.1 553.7C168 549.9 166.4 547.8 160.8 542.8C154.4 537.2 153.9 536.4 154.2 533.1C154.4 530.1 155.1 529.2 158 527.8C161.1 526.2 165.1 526 196 526C255.6 526.1 271.3 528.1 288 538.1C295.3 542.5 301.4 550.5 305.3 560.7C307 566 307.5 568.5 307.5 580C307 593.5 307 594 303.8 601.3C299.5 610.3 290.5 620.4 283.4 624.1C281 625.4 279 626.8 279 627.1C279 627.4 281.1 631.4 283.8 635.8C286.4 640.3 291.4 649 295 655.1C302.6 668.3 311.5 678.3 321.6 685.1C325.7 687.8 329.4 690.9 330 691.9C331.8 695.3 331.2 698.7 328.4 700.9C325.9 702.9 324.5 703 304.3 703C271.9 703 274.1 704.6 247.1 660.1C230.8 633 230.8 633 224 633C219.2 633 216.9 633.4 216 634.5C215.1 635.6 214.9 641 215.2 655.7C215.7 678.5 216.4 681.2 223.5 687.5C228.9 692.3 230.3 697.2 227.3 700.7C225.5 702.9 225 702.9 193.5 703.2C175.9 703.4 160.5 703.4 159.3 703.2ZM239.8 614.3C244.6 613.8 245.7 613.1 251.4 607.6C256.8 602.3 257.8 600.7 259.1 595.5C260.9 587.7 260.7 571.8 258.5 564.5C256.5 557.4 250.8 551.1 243.7 547.9C239.4 546 236.7 545.6 228.2 545.5C220.1 545.5 217.7 545.8 217 547C215.7 549.1 215.7 610.6 217 613.1C217.9 614.7 219.2 615 226.3 615C230.8 615 236.9 614.7 239.8 614.3Z"></path>
<path fill="#154F16" d="M730.2 702C714.2 697.8 703.2 688.8 699.2 676.6C696.6 668.8 696.4 663.8 698.5 660.6C701.8 655.5 710 654.8 715.4 659.1C716.8 660.2 719.4 663.8 721.1 667.1C725.9 676.1 731 681.3 738.2 684.6C743.6 687.1 745.7 687.5 753 687.5C765.9 687.4 771 683.6 771 674C771 665.1 767.2 662.1 751 658C727.2 652.1 714.9 646 708 636.7C702.3 629.2 700.5 623.1 700.6 612C700.6 601.8 702 597.7 707.8 589.5C717 576.4 740.9 569.4 762.3 573.4C767.2 574.3 771.9 575.5 772.8 575.9C773.8 576.4 776.6 577.7 779.1 578.8C785.8 581.8 790.5 586.3 793.9 593.1C797.4 600.2 798.7 606.9 797 609.9C795.4 613 790.1 616 786.3 616C782.1 616 778.5 612.7 771.8 602.6C764.6 591.8 760.4 589.5 747.3 589.5C738.5 589.5 737.9 589.6 735.3 592.3C732.9 594.6 732.5 595.9 732.5 600.3C732.5 610.2 735.6 612.4 761 621C786.5 629.6 793.5 634.2 799.2 645.7C802.2 651.8 802.5 653.2 802.5 661.9C802.5 670.7 802.2 672.1 799.3 678.3C793.6 690.3 783.3 698.2 768.4 702C758 704.7 740.4 704.7 730.2 702Z"></path>
<path fill="#154F16" d="M675.4 519.7C672.8 517.4 672.8 517.4 671.4 481.4C669.3 426.1 668.6 417.3 666 411.7C663.4 406.1 659.3 402.5 654.2 401C649.6 399.8 648.4 399.8 643.8 401C638.8 402.4 634.1 406.5 631.9 411.5C630.2 415.1 630 418.6 630 448.3C630 485.4 630 485.4 637.3 488.8C641 490.5 641.8 491.5 642.3 494.2C642.9 498.2 640.9 501.7 637.3 503.1C635.7 503.7 623.5 504 606.4 503.8C573.9 503.5 574.6 503.6 575.8 495.8C576.4 491.9 577.1 490.7 580 488.8C581.9 487.5 584.5 484.6 585.7 482.4C588 478.4 588 478.4 588 409.8C588.1 331.9 588.5 336.2 579.9 328.9C573.5 323.5 573.3 320.6 579.2 315.6C581.5 313.6 582.818 312.841 584.5 312C585.5 311.5 586.5 311.1 588 310.5C591 309 610.7 302.1 616.3 301.4C621.8 300.6 627.7 303 629 306.5C629.6 308.1 630 326.3 630 352.7C630 396.3 630 396.3 632.8 392.4C640.6 381.7 651.2 375.3 663.5 373.9C681.6 371.9 696.9 380 704.1 395.4C708 403.7 709.5 415.5 711.5 452.2C712.4 468.5 713.5 483.1 713.9 484.6C714.3 486.1 715.5 487.8 716.6 488.4C724 492.4 725 493.5 725 497.1C725 501.7 724 502.5 716.5 504C708.1 505.7 703.1 508.3 696.4 514.4C693.1 517.3 689.5 520.2 688.3 520.8C684.6 522.8 678.4 522.3 675.4 519.7Z"></path>
<path fill="#154F16" d="M501.5 506.4C485.6 503.8 474 498.1 464.1 488.1C459.9 483.9 455.8 478.9 454.8 477C447.7 462 446.6 456.4 447.2 440.8C448.4 414.1 461.9 392.5 484.1 381.6C496.7 375.5 503.1 373.9 516.5 373.9C529.4 373.9 536.1 375.4 546 380.7C557.6 386.7 563.9 395.4 564.8 406.5C565.1 411 564.8 413.5 563.6 415.8C559.8 423.2 547.6 428.3 539.3 426.1C533.3 424.5 530.4 420.5 529.5 412.8C527.9 398.5 521.6 392 509.5 392C499.9 392 494.1 396.1 489.4 406.5C487.1 411.4 486.6 414.2 486.2 422.5C485.3 443.3 492.9 459.8 507.9 469.9C521.5 479.1 537.6 478 553.8 466.9C562.4 461 562.4 461 565.7 464.2C567.5 466 569 468.1 569 469C569 473.1 562.7 483.1 556.4 488.9C544.3 500.2 530.8 505.8 514 506.5C508.8 506.7 503.2 506.6 501.5 506.4Z"></path>
<path fill="#154F16" d="M190 503.3C182 500.3 183.9 492.1 193.8 486.8C196 485.6 197.8 483.5 199.1 480.6C201 476.2 201 474 200.8 413.8C200.5 343.2 201.1 348.6 191.9 341.5C188.6 339 186.4 336.5 186.2 335.1C185.6 330.9 186.9 328.1 190.4 326.5C193.4 325.1 199.3 324.9 240.6 325.2C287.5 325.6 287.5 325.6 297.5 328.3C311.1 332 321 337.1 327.5 343.6C345.2 361.7 345.4 393.5 327.8 413.4C325.5 416.2 320.3 420.5 316.3 423C309.2 427.6 309.1 427.7 311 429.6C312.8 431.4 316.3 437.5 322.2 448.9C326.7 457.5 335.7 470.6 341.7 477C344.7 480.3 350.4 484.9 354.3 487.3C361.1 491.4 361.5 491.8 361.8 495.6C362 498.7 361.6 500.1 359.9 501.6C357.9 503.4 356.2 503.5 335.6 503.5C303.8 503.5 305.5 504.6 283.3 468.5C278.9 461.4 273.6 452.4 271.5 448.6C269.4 444.8 266.3 440.2 264.7 438.3C261.9 435.1 261.5 435 254.4 435H247V455.8C247 479.8 247.6 482.1 255.4 488.5C260.4 492.6 261.1 495 258.6 499.9C257.1 502.7 257 502.7 244.9 503.3C230.5 504.1 192.2 504.1 190 503.3ZM268.6 417.4C283.2 412.5 291.6 400.3 292.7 382.3C293.1 376.4 292.8 372.1 291.5 366.5C289.9 360 289 358.2 285.1 354C278.7 347.2 272.7 344.7 261.5 344.2C245.7 343.5 247 340.3 247 380.9C247 411.3 247.2 416.1 248.6 417.4C250.7 419.6 262.1 419.5 268.6 417.4Z"></path>
<path fill="#154F16" d="M377 502.2C375.5 500.9 374.7 499.2 374.6 496.6C374.5 493.1 374.9 492.4 378.9 489.6C387.4 483.6 387.5 483 387.5 446.5C387.5 411.2 387.2 409.2 381.6 406.3C376.6 403.8 375 401.9 375 398.5C375 396.7 375.8 394.2 376.9 392.9C378.6 390.6 387.6 385.6 398 381.1C410.9 375.5 422.1 374.6 426.3 378.9C428.5 381 428.5 381.4 429 430.3C429.5 479.5 429.5 479.5 431.9 483.3C433.1 485.4 436 488 438.1 489.1C441.7 490.9 442 491.3 442 495.4C442 499 441.5 500.2 439.4 501.9C436.8 503.9 435.6 504 408 504C381.7 504 379 503.8 377 502.2Z"></path>
<path fill="#154F16" d="M429.3 342.8C429.3 355.3 419.1 365.5 406.6 365.5C394 365.5 383.9 355.3 383.9 342.8C383.9 330.2 394 320.1 406.6 320.1C419.1 320.1 429.3 330.2 429.3 342.8Z"></path>
<path fill="#154F16" d="M595.852 359.593C597.383 349.914 598.627 320.301 598.245 302.189C597.862 283.597 597.575 281.489 595.278 274.301C591.738 263.568 589.632 260.884 581.211 256.476C566.379 248.618 555.757 239.034 548.676 227.055C544.274 219.676 542.073 213.926 538.15 199.838C535.088 188.817 530.59 179.042 524.657 170.225C517.002 159.013 521.212 156.329 538.724 161.313C549.25 164.379 564.944 171.95 571.451 177.125C581.02 184.792 589.154 198.209 592.79 212.488C594.13 217.663 594.895 224.372 595.182 235.584C595.757 251.301 596.139 253.601 599.489 260.98C600.446 263.089 601.498 267.305 601.881 270.276C602.264 273.343 602.838 275.547 603.221 275.355C605.709 273.822 605.9 248.426 603.699 230.409C601.02 208.559 603.221 186.709 606.57 179.33C607.048 178.084 607.527 177.125 608.005 176.167C608.484 174.25 616.809 161.6 623.412 154.604C631.45 146.171 641.976 138.792 645.517 137.163C646.76 136.396 647.717 135.917 649.248 135.342C650.11 134.479 651.641 134 653.172 134C655.373 134 656.234 134.575 657.191 137.163C662.454 149.813 663.794 179.042 659.775 194.855C654.894 213.83 648.674 222.742 623.507 246.222C617.862 251.588 616.522 253.505 615.278 257.818C612.503 267.209 610.876 276.218 610.302 285.418C609.632 294.522 609.632 294.522 611.737 291.935C612.886 290.497 615.756 284.939 618.053 279.572C620.349 274.301 622.838 269.126 623.507 268.264C624.273 267.401 625.421 265.484 626.187 264.047C630.206 255.901 645.229 243.251 654.607 239.897C657.191 239.034 660.062 237.884 661.114 237.405C670.875 233.092 701.209 234.051 712.979 238.938C717.19 240.759 716.999 243.251 712.405 247.276C710.396 249.001 705.133 254.943 700.731 260.501C686.951 278.039 678.148 286.185 666.664 292.03C657.765 296.439 651.162 297.876 635.756 298.547C628.101 298.835 621.211 299.41 620.35 299.889C618.436 300.847 612.598 312.06 610.589 318.481C608.771 324.422 608.292 327.297 606.57 345.697C605.804 353.843 604.847 360.839 604.465 361.223C604.082 361.606 601.785 362.277 599.489 362.66C595.278 363.331 595.278 363.331 595.852 359.593ZM643.124 272.289C652.885 265.293 664.464 259.255 675.468 255.326C679.296 253.888 679.296 253.888 675.085 253.888C659.775 253.601 639.105 265.964 625.804 283.501C619.297 291.935 619.584 291.935 628.675 284.076C633.364 279.955 639.871 274.684 643.124 272.289ZM589.728 240.184C585.805 229.259 580.159 217.663 575.374 210.476C571.355 204.438 555.087 187.667 553.365 187.667C552.887 187.667 554.418 190.063 556.81 192.938C564.465 202.33 582.742 231.272 588.867 243.538C592.407 250.63 592.886 248.809 589.728 240.184ZM623.412 212.201C628.101 193.609 633.938 175.209 638.244 165.721C640.062 161.792 641.306 158.438 641.115 158.246C640.923 158.054 638.914 161.025 636.713 164.859C634.416 168.692 631.928 172.909 631.067 174.25C629.249 177.125 627.909 180.575 624.177 191.884C621.115 200.892 619.01 213.446 618.149 226.959C617.574 236.255 617.287 237.022 623.412 212.201Z"></path>
<path fill="#154F16" d="M825.439 553.496C826.339 553.496 827.253 553.369 828.18 553.115C828.458 553.039 828.628 553 828.694 553C829.329 553 829.941 553.801 830.529 555.401C831.118 557.002 831.412 558.793 831.412 560.774C831.412 561.475 831.285 562.008 831.032 562.373C830.781 562.735 830.42 562.915 829.947 562.915C829.1 562.915 828.299 562.175 827.546 560.693C827.426 560.471 827.332 560.294 827.263 560.162L827.228 560.081C826.273 558.269 824.931 557.363 823.2 557.363C822.325 557.363 821.737 557.46 821.434 557.652C821.129 557.845 820.932 558.291 820.839 558.991C820.796 559.307 820.753 560.149 820.707 561.519C820.66 562.889 820.637 564.401 820.637 566.055C820.637 569.492 820.679 572.298 820.764 574.475C820.852 576.65 820.975 577.989 821.134 578.492C821.214 578.785 821.598 579.089 822.288 579.404L822.305 579.421C822.874 579.675 823.255 579.928 823.448 580.177C823.64 580.428 823.737 580.759 823.737 581.17C823.737 581.952 823.282 582.497 822.374 582.809C821.47 583.116 819.74 583.271 817.186 583.271C814.635 583.271 812.905 583.116 811.998 582.809C811.093 582.497 810.641 581.952 810.641 581.17C810.641 580.47 811.041 579.918 811.842 579.514C812.641 579.11 813.08 578.849 813.158 578.729C813.368 578.414 813.524 577.202 813.625 575.093C813.725 572.98 813.775 569.968 813.775 566.055C813.775 564.401 813.752 562.889 813.706 561.519C813.66 560.149 813.616 559.307 813.579 558.991C813.487 558.291 813.29 557.845 812.99 557.652C812.693 557.46 812.103 557.363 811.218 557.363C809.455 557.363 808.086 558.297 807.109 560.162C807.043 560.294 806.938 560.497 806.792 560.774C806.065 562.202 805.291 562.915 804.472 562.915C803.994 562.915 803.629 562.735 803.375 562.373C803.124 562.008 803 561.475 803 560.774C803 558.793 803.294 557.002 803.883 555.401C804.472 553.801 805.083 553 805.718 553C805.811 553.012 805.984 553.05 806.238 553.115C807.161 553.369 808.073 553.496 808.973 553.496H825.439Z"></path>
<path fill="#154F16" d="M859.485 563.059C858.226 565.795 856.704 569.261 854.919 573.454C852.461 579.195 850.892 582.065 850.216 582.065C849.623 582.065 848.665 580.855 847.342 578.434C846.017 576.015 843.631 570.982 840.179 563.336C840.099 565.384 840.038 567.288 840 569.05C839.961 570.809 839.943 572.421 839.943 573.887C839.943 575.595 839.99 576.817 840.087 577.551C840.187 578.283 840.355 578.743 840.595 578.931C840.768 579.062 841.039 579.214 841.409 579.387C842.374 579.834 842.857 580.428 842.857 581.17C842.857 581.897 842.462 582.431 841.674 582.769C840.889 583.103 839.65 583.271 837.957 583.271C836.09 583.271 834.754 583.109 833.946 582.786C833.141 582.463 832.74 581.925 832.74 581.17C832.74 580.47 833.14 579.918 833.94 579.514C834.74 579.11 835.193 578.821 835.297 578.648C835.496 578.333 835.712 576.42 835.943 572.911C836.174 569.399 836.289 565.432 836.289 561.011C836.289 560.061 836.22 559.308 836.082 558.754C835.943 558.197 835.727 557.812 835.435 557.6C835.277 557.481 835 557.328 834.604 557.144C833.637 556.694 833.156 556.099 833.156 555.36C833.156 554.619 833.574 554.082 834.414 553.75C835.256 553.42 836.636 553.254 838.552 553.254C839.582 553.254 840.445 553.304 841.137 553.404C841.833 553.505 842.367 553.655 842.736 553.854C843.159 554.105 843.84 555.288 844.779 557.404C845.033 557.985 845.232 558.441 845.379 558.771L847.936 564.387C849.074 566.873 849.871 568.524 850.325 569.339C850.783 570.151 851.123 570.556 851.347 570.556C851.862 570.556 853.246 567.958 855.497 562.759C856.316 560.866 856.97 559.366 857.459 558.258C858.436 555.995 859.311 554.597 860.085 554.062C860.861 553.524 862.135 553.254 863.905 553.254C865.967 553.254 867.412 553.414 868.24 553.733C869.066 554.049 869.481 554.591 869.481 555.36C869.481 556.099 868.997 556.694 868.032 557.144C867.635 557.328 867.358 557.481 867.201 557.6C866.961 557.8 866.78 558.383 866.653 559.348C866.529 560.315 866.468 561.669 866.468 563.412C866.468 567.144 866.537 570.455 866.676 573.344C866.814 576.234 866.961 577.95 867.12 578.492C867.201 578.785 867.583 579.089 868.269 579.404L868.292 579.421C868.86 579.675 869.24 579.928 869.429 580.177C869.621 580.428 869.717 580.759 869.717 581.17C869.717 581.952 869.263 582.497 868.355 582.809C867.45 583.116 865.723 583.271 863.172 583.271C860.525 583.271 858.752 583.118 857.851 582.815C856.954 582.512 856.507 581.964 856.507 581.17C856.507 580.443 856.981 579.86 857.932 579.421C858.371 579.211 858.682 579.033 858.867 578.89C859.225 578.61 859.469 578.133 859.6 577.459C859.734 576.787 859.802 575.299 859.802 572.998C859.802 572.164 859.779 570.986 859.733 569.466C859.687 567.946 859.603 565.811 859.485 563.059Z"></path>
</svg>
