<svg width="1024" height="1024" viewBox="0 0 1024 1024" fill="none" xmlns="http://www.w3.org/2000/svg">
<g clip-path="url(#clip0_3_2)">
<path d="M829.93 195.212C829.93 195.212 829.974 195.649 830.164 196.138C830.867 197.279 831.38 197.931 831.893 198.583C831.893 198.583 831.821 198.839 831.974 199.259C833.054 201.216 833.981 202.752 834.908 204.289C834.908 204.289 834.901 204.679 835.05 205.189C836.334 207.883 837.471 210.067 838.607 212.251C838.607 212.251 838.55 212.208 838.618 212.596C839.442 214.704 840.198 216.425 840.954 218.146C840.954 218.146 840.959 218.598 841.065 219.179C852.044 249.812 853.912 280.744 850.375 312.243C849.931 316.194 848.56 320.497 852.068 323.972C859.972 336.04 867.806 348.154 875.799 360.163C884.636 373.44 893.846 386.476 902.393 399.934C904.85 403.803 906.606 408.708 906.884 413.248C907.499 423.271 901.29 429.716 891.264 430.984C883.523 431.963 875.779 432.926 868.053 434.017C862.317 434.826 859.894 438.054 861.347 443.727C862.699 449.004 864.789 454.092 866.55 459.265C869.76 468.693 868.435 472.625 859.903 477.984C856.841 479.907 856.337 481.534 858.674 484.682C864.418 492.42 864.315 497.615 856.673 503.613C849.995 508.856 848.734 514.183 851.762 521.592C852.998 524.617 853.303 528.023 854.206 532.029C856.676 541.45 857.486 549.973 852.243 557.981C850.607 559.829 848.972 561.677 846.913 563.925C845.957 564.862 845.424 565.399 844.891 565.937C844.891 565.937 844.968 565.973 844.653 566.032C843.502 566.709 842.666 567.327 841.83 567.945C841.83 567.945 841.357 567.99 840.917 568.13C840.193 568.43 839.982 568.659 839.844 568.955C839.844 568.955 839.391 568.963 838.808 569.115C836.013 569.863 833.811 570.928 831.589 570.973C821.067 571.186 810.539 571.12 800.014 571.154C799.565 571.084 799.117 571.015 798.022 570.837C796.255 570.538 795.134 570.348 794.014 570.158C793.562 570.092 793.11 570.027 791.964 569.851C782.654 568.627 774.062 567.197 765.411 566.534C761.147 566.207 756.444 566.178 753.129 570.035C752.825 570.255 752.521 570.475 751.974 571.024C751.545 571.486 751.444 571.666 751.429 571.894C751.301 572.007 751.173 572.121 750.684 572.683C748.216 579.692 745.802 586.174 744.079 592.834C742.021 600.79 740.555 608.899 738.832 616.942C738.384 617.214 737.936 617.486 736.895 617.538C735.317 617.214 734.332 617.018 733.348 617.017C671.985 617.003 610.621 616.995 549.258 617.038C546.527 617.04 543.796 617.526 541.065 617.787C537.33 616.142 537.495 612.776 537.922 609.697C539.287 599.848 540.887 590.032 542.463 580.214C547.389 549.529 551.738 518.792 549.943 487.573C549.35 477.265 547.428 467.206 543.375 457.032C543.762 454.86 543.985 453.38 543.985 451.899C544.001 353.894 544.003 255.888 543.968 157.883C543.968 156.276 543.51 154.67 543.266 153.064C546.316 150.634 549.122 147.783 552.457 145.842C572.552 134.14 594.369 127.103 617.156 123.12C627.741 121.27 638.494 120.382 649.939 119.367C651.857 119.786 653.01 120.006 654.159 119.988C675.252 119.661 696.256 120.317 716.981 124.886C720.881 125.746 724.965 125.771 728.964 126.181C755.748 132.663 780.152 143.978 801.752 162.172C802.368 162.81 802.647 162.966 802.999 162.993C803.974 163.961 804.949 164.929 806.389 166.303C809.195 168.984 811.538 171.258 813.88 173.532C815 174.958 816.12 176.384 817.635 178.227C818.688 179.423 819.344 180.204 820.001 180.984C820.413 181.602 820.824 182.22 821.61 183.254C822.64 184.475 823.296 185.28 823.951 186.085C823.951 186.085 823.992 186.018 824.044 186.327C824.724 187.437 825.352 188.238 825.98 189.039C825.98 189.039 826.006 189.006 826.062 189.314C826.731 190.438 827.344 191.255 827.958 192.071C827.958 192.071 828.001 192.015 828.042 192.338C828.699 193.511 829.315 194.362 829.93 195.212Z" fill="#00A8A4"/>
<path d="M517.876 524.802C514.122 535.414 508.266 544.419 497.835 550.661C495.509 551.935 493.711 552.877 491.913 553.82C491.115 554.104 490.317 554.388 488.929 554.84C487.55 555.32 486.762 555.632 485.973 555.944C485.526 555.959 485.078 555.974 483.928 556.075C481.472 556.381 479.72 556.601 477.637 556.576C475.49 556.221 473.672 556.014 471.855 556.014C371.418 555.998 270.981 556.011 170.544 555.961C166.419 555.959 162.297 555.328 158.168 555.086C155.118 554.908 152.058 554.887 148.755 554.863C148.346 554.99 148.186 555.049 148.025 555.108C148.025 555.108 147.59 554.987 147.255 554.737C146.622 554.36 146.323 554.232 146.024 554.104C135.695 549.274 127.499 542.247 122.471 531.009C121.427 528.612 120.744 526.793 120.061 524.974C120.047 524.523 120.033 524.072 119.94 522.878C119.573 519.166 119.034 516.196 119.033 513.226C118.996 392.965 119 272.703 119.045 152.442C119.046 148.972 119.535 145.503 119.797 142.034C124.127 125.637 133.877 114.263 150.984 109.377C158.416 109.437 165.189 109.035 171.963 109.032C273.431 108.991 374.9 109.002 476.368 109.009C479.918 109.009 483.467 109.098 487.252 109.076C487.487 109.005 487.971 108.921 487.971 108.921C503.139 114.435 513.385 124.641 517.99 141.087C518.392 145.154 518.965 148.448 518.966 151.742C519.013 267.803 519.028 383.863 518.957 499.924C518.952 508.217 518.253 516.51 517.876 524.802ZM160.985 131.423C160.985 131.423 160.964 131.822 160.245 131.954C159.523 132.045 158.801 132.136 157.366 132.21C151.498 134.302 146.715 137.548 144.509 144.082C144.509 144.082 144.12 144.189 143.646 143.879C143.095 146.697 142.065 149.514 142.063 152.332C141.982 272.518 141.993 392.704 141.994 512.89C141.994 514.055 141.713 515.322 142.076 516.362C142.635 517.961 143.638 519.405 144.873 521.322C145.201 521.777 145.528 522.232 145.922 523.331C149.244 529.239 154.252 532.463 161.974 532.963C266.42 532.972 370.866 532.985 475.312 532.96C476.919 532.96 478.527 532.492 480.793 532.211C481.21 532.076 481.627 531.942 482.571 531.801C482.815 531.557 483.058 531.314 483.986 531.062C487.304 527.677 490.623 524.291 494.442 521.19C494.962 518.877 495.934 516.564 495.937 514.25C496.017 444.958 496.002 375.666 496.001 306.374C496.001 254.404 496.01 202.435 495.95 150.466C495.948 149.089 495.19 147.713 494.343 145.89C493.927 145.212 493.51 144.535 493.077 143.951C493.077 143.951 493.172 143.947 493.069 143.309C492.978 142.891 492.888 142.473 492.682 141.398C489.916 138.899 487.15 136.401 483.986 133.38C483.248 132.968 482.509 132.556 482.127 131.675C480.032 131.117 477.937 130.073 475.841 130.072C372.625 129.992 269.408 129.997 166.191 130.044C164.462 130.045 162.732 130.683 160.985 131.423Z" fill="#00A8A3"/>
<path d="M411.035 889.894C411.035 889.894 410.981 889.401 410.728 888.832C407.979 868.632 407.235 849.104 413.889 830.009C414.602 828.635 415.314 827.261 416.322 825.38C417.083 823.918 417.547 822.963 418.011 822.008C418.011 822.008 417.999 822 418.175 821.893C418.603 821.612 418.718 821.374 418.698 821.069C423.822 815.731 428.945 810.392 434.746 804.981C436.259 804.205 437.095 803.5 437.931 802.796C437.931 802.796 437.936 802.905 438.241 802.9C439.605 802.115 440.664 801.335 441.724 800.556C441.724 800.556 441.827 800.581 442.14 800.694C443.547 800.057 444.641 799.307 445.735 798.556C445.735 798.556 445.811 798.589 446.174 798.723C448.98 797.787 451.423 796.718 453.865 795.649C453.865 795.649 453.908 795.777 454.303 795.846C467.522 795.607 480.347 795.287 493.172 794.996C508.04 794.659 522.907 794.169 537.776 794.093C546.891 794.047 556.01 794.652 565.354 794.988C565.58 795.012 566.011 795.157 566.283 795.391C567.745 795.739 568.935 795.852 570.344 795.979C570.563 795.993 570.99 796.097 571.235 796.333C572.133 796.54 572.787 796.51 573.441 796.48C573.441 796.48 573.386 796.637 573.406 796.954C576.008 798.137 578.591 799.003 581.173 799.868C581.173 799.868 581.064 799.897 581.212 800.129C581.957 800.541 582.554 800.72 583.151 800.9C583.151 800.9 583.056 800.925 583.181 801.127C583.649 801.421 583.991 801.514 584.334 801.606C584.334 801.606 584.287 801.537 584.358 801.885C585.671 802.788 586.913 803.343 588.156 803.898C588.156 803.898 588.056 803.919 588.171 804.19C589.229 804.951 590.172 805.442 591.115 805.933C591.115 805.933 591.04 805.952 591.16 806.159C591.592 806.548 591.903 806.729 592.214 806.909C592.214 806.909 592.07 806.922 592.188 807.117C592.641 807.48 592.976 807.649 593.31 807.817C593.31 807.817 593.141 807.831 593.239 808.037C593.687 808.388 594.036 808.532 594.385 808.677C594.385 808.677 594.256 808.706 594.314 808.949C594.719 809.327 595.067 809.463 595.414 809.598C595.414 809.598 595.06 809.788 595.224 809.976C595.73 810.267 596.071 810.37 596.413 810.472C596.413 810.472 596.433 810.543 596.425 810.851C596.754 811.26 597.092 811.359 597.429 811.459C597.429 811.459 597.435 811.531 597.426 811.846C597.754 812.262 598.091 812.364 598.429 812.466C598.429 812.466 598.493 812.529 598.447 812.884C599.078 813.711 599.755 814.182 600.432 814.654C600.432 814.654 600.331 814.756 600.343 814.987C600.681 815.418 601.007 815.617 601.333 815.816C601.333 815.816 601.172 815.886 601.251 816.083C601.652 816.494 601.975 816.708 602.297 816.921C611.084 827.055 615.194 839.127 615.858 852.239C616.411 863.142 615.937 874.097 615.686 885.735C614.589 888.279 613.723 890.117 612.858 891.954C611.348 893.293 609.839 894.632 608.075 896.047C607.82 896.124 608.029 895.885 607.892 895.754C607.582 895.859 607.408 896.095 607.221 896.271C607.207 896.212 607.323 896.251 606.975 896.208C606.146 896.58 605.666 896.995 605.149 897.352C605.112 897.294 605.246 897.265 604.803 897.184C596.747 897.399 589.135 897.942 581.523 897.953C531.279 898.03 481.036 897.984 430.792 898.028C428.866 898.03 426.94 898.55 424.672 898.881C423.225 898.675 422.119 898.418 421.014 898.16C418.607 896.513 416.2 894.866 413.376 892.784C412.317 891.53 411.676 890.712 411.035 889.894Z" fill="#00A8A4"/>
<path d="M708.032 898.786C698.142 896.318 692.83 890.017 693.108 879.991C693.475 866.739 693.324 853.337 695.404 840.32C696.629 832.657 701.746 825.616 705.666 817.998C706.404 817.356 706.589 817.011 706.774 816.666C706.774 816.666 706.722 816.841 706.968 816.733C707.466 816.064 707.718 815.504 707.97 814.943C707.97 814.943 707.998 814.997 708.2 814.865C708.592 814.443 708.782 814.153 708.971 813.863C708.984 813.539 709.122 813.282 709.852 812.912C710.532 812.436 710.741 812.137 710.951 811.839C710.951 811.839 710.956 811.958 711.149 811.844C711.543 811.433 711.744 811.136 711.946 810.839C711.946 810.839 711.956 810.955 712.147 810.844C712.544 810.442 712.75 810.152 712.956 809.862C712.956 809.862 712.965 809.964 713.16 809.844C713.557 809.427 713.758 809.13 713.959 808.834C713.984 808.49 714.149 808.239 715.037 807.997C716.379 807.117 717.138 806.319 717.896 805.522C717.974 805.25 718.149 805.073 718.95 804.952C719.919 804.475 720.36 804.04 720.801 803.604C720.801 803.604 720.815 803.732 721.105 803.77C721.731 803.354 722.068 802.9 722.405 802.447C722.405 802.447 722.527 802.354 722.928 802.52C724.117 801.975 724.905 801.265 725.693 800.555C725.693 800.555 725.784 800.572 726.092 800.685C726.841 800.378 727.283 799.957 727.724 799.537C727.724 799.537 727.82 799.595 728.171 799.7C739.521 795.209 751.038 794.366 762.781 794.944C764.734 795.04 766.716 794.323 768.687 794.312C776.998 794.266 785.31 794.328 793.621 794.382C799.681 794.421 805.74 794.527 811.799 794.571C820.077 794.63 828.382 794.264 836.626 794.816C844.508 795.344 852.326 796.814 860.172 797.87C860.172 797.87 860.057 797.894 860.2 798.121C860.919 798.553 861.497 798.757 862.074 798.962C862.074 798.962 862.007 798.982 862.182 799.204C862.929 799.605 863.502 799.783 864.075 799.962C864.075 799.962 864.008 799.98 864.182 800.203C864.929 800.603 865.503 800.781 866.077 800.959C866.077 800.959 866.009 800.979 866.165 801.263C867.577 802.017 868.831 802.485 870.086 802.953C870.086 802.953 870.016 802.986 870.074 803.303C871.12 804.062 872.108 804.503 873.095 804.945C873.095 804.945 873.02 804.979 873.076 805.289C873.872 805.95 874.612 806.302 875.352 806.653C875.352 806.653 875.241 806.753 875.305 806.999C875.938 807.488 876.508 807.733 877.078 807.977C877.415 807.98 877.686 808.115 878.079 808.855C878.562 809.537 878.859 809.744 879.156 809.951C879.156 809.951 879.041 809.956 879.158 810.151C879.579 810.539 879.883 810.733 880.187 810.926C880.187 810.926 880.061 810.938 880.172 811.133C880.592 811.525 880.901 811.722 881.209 811.918C881.209 811.918 881.069 811.931 881.176 812.124C881.593 812.517 881.901 812.718 882.21 812.918C882.21 812.918 882.07 812.933 882.174 813.125C882.575 813.525 882.874 813.734 883.173 813.943C883.173 813.943 883.049 813.956 883.163 814.148C883.579 814.544 883.881 814.748 884.182 814.952C884.522 814.978 884.771 815.142 885.006 816.011C885.824 817.337 886.565 818.094 887.307 818.852C887.307 818.852 887.18 818.84 887.155 819.032C887.445 819.44 887.76 819.656 888.075 819.872C896.137 829.839 899.138 841.647 899.822 854.055C900.335 863.349 900.086 872.695 899.923 882.013C899.801 888.944 896.244 893.885 889.335 897.046C880.755 897.369 872.969 897.939 865.182 897.951C814.733 898.034 764.283 897.986 713.833 898.028C711.899 898.03 709.966 898.523 708.032 898.786Z" fill="#00A8A4"/>
<path d="M301.928 801.718C307.021 806.072 312.113 810.425 317.614 815.218C318.681 816.439 319.338 817.223 319.996 818.006C319.996 818.006 320 818 320.056 818.259C320.386 818.726 320.661 818.935 320.936 819.143C320.936 819.143 320.944 819.061 320.994 819.377C321.672 820.523 322.301 821.353 322.93 822.182C323.141 822.674 323.352 823.166 323.839 824.188C326.675 832.828 329.233 840.939 331.552 849.381C331.206 857.752 331.005 865.793 331.037 873.834C331.051 877.214 331.559 880.593 331.894 884.3C331.625 885.416 331.304 886.204 330.743 887.181C330.355 887.949 330.209 888.528 330.062 889.108C330.062 889.108 330.039 889.032 329.816 889.184C329.4 889.898 329.206 890.46 329.013 891.023C329.013 891.023 328.997 891 328.79 891.12C328.309 891.447 328.12 891.715 327.777 892.195C327.39 892.69 327.242 893.033 327.094 893.377C326.472 894.055 325.849 894.734 324.753 895.769C321.842 897.014 319.405 897.902 316.635 898.551C315.318 898.205 314.335 898.007 313.351 898.006C257.344 897.992 201.337 897.987 145.329 898.027C143.899 898.028 142.469 898.526 140.685 898.835C138.555 898.293 136.778 897.708 135.001 897.123C135.001 897.123 134.672 896.926 134.346 896.665C133.689 896.239 133.359 896.074 133.028 895.91C132.465 895.364 131.902 894.818 130.978 893.963C130.449 893.419 130.23 893.251 129.958 893.152C129.958 893.152 129.983 893.051 129.865 892.8C129.488 892.34 129.228 892.13 128.969 891.921C128.053 889.829 127.137 887.736 126.463 884.958C126.807 876.458 127.01 868.643 126.967 860.829C126.945 856.897 126.474 852.966 126.206 849.035C126.493 846.629 126.779 844.223 127.237 841.103C129.603 834.594 131.797 828.8 133.992 823.006C135.271 821.225 136.551 819.444 138.107 817.234C138.657 816.634 138.786 816.389 138.774 816.067C139.045 815.842 139.317 815.617 140.048 815.414C142.001 813.6 143.494 811.764 144.987 809.928C145.019 809.568 145.191 809.298 146.061 809.018C146.995 808.474 147.371 808.03 147.746 807.585C147.746 807.585 147.816 807.743 148.023 807.703C148.448 807.354 148.667 807.044 148.885 806.735C148.885 806.735 148.914 806.891 149.101 806.806C149.512 806.432 149.734 806.144 149.957 805.856C149.957 805.856 149.948 805.942 150.268 805.949C151.391 805.303 152.193 804.649 153.317 803.968C154.43 803.297 155.222 802.653 156.324 801.972C157.058 801.536 157.484 801.136 157.91 800.737C157.91 800.737 157.912 800.866 158.167 800.878C158.931 800.585 159.439 800.28 160.312 799.977C161.27 799.444 161.865 798.911 162.459 798.377C162.459 798.377 162.642 798.338 163.031 798.538C163.843 798.326 164.266 797.913 164.689 797.5C164.689 797.5 164.621 797.632 165.007 797.716C176.247 794.903 187.323 794.859 198.457 794.943C220.42 795.109 242.386 795.127 264.348 794.927C273.878 794.84 283.258 795.131 292.3 798.553C293.156 798.877 294.238 798.603 295.209 798.64C295.204 798.674 295.143 798.644 295.271 798.963C296.029 799.428 296.659 799.575 297.227 799.726C297.166 799.729 297.221 799.619 297.254 799.884C297.864 800.225 298.442 800.3 298.966 800.272C298.911 800.168 298.971 799.941 298.971 799.941C299.434 800.28 299.897 800.62 300.767 801.17C301.356 801.648 301.607 801.761 301.928 801.718Z" fill="#00A8A4"/>
<path d="M464.251 694.382C475.181 672.023 496.55 660.704 521.008 664.062C541.943 666.936 560.917 684.994 564.588 707.178C570.476 742.761 543.148 767.191 516.735 769.258C478.444 772.255 447.929 733.762 464.251 694.382Z" fill="#01A8A3"/>
<path d="M241.771 767.981C208.362 775.779 175.801 750.035 176.293 716.066C176.682 689.17 195.814 665.023 226.971 663.526C254.147 662.22 276.631 682.111 281.172 707.479C285.805 733.358 270.095 760.82 241.771 767.981Z" fill="#01A8A3"/>
<path d="M758.769 754.237C729.083 722.969 743.053 674.718 784.38 664.644C813.418 657.566 844.45 679.853 848.175 709.726C851.823 738.987 830.704 764.275 805.909 768.428C788.078 771.414 772.318 766.983 758.769 754.237Z" fill="#01A8A3"/>
<path d="M477.967 556.821C479.72 556.601 481.472 556.381 483.604 556.17C480.512 557.119 477.064 558.739 473.562 558.868C463.578 559.236 453.572 558.998 443.575 558.998C350.767 558.998 257.96 559.024 165.152 558.907C161.171 558.902 157.192 557.575 153.532 556.473C156.465 556.384 159.078 556.949 161.691 556.95C239.139 557 316.587 557.01 394.035 556.989C422.012 556.981 449.99 556.879 477.967 556.821Z" fill="#F8F3F4"/>
<path d="M487.016 109.146C483.467 109.098 479.918 109.009 476.368 109.009C374.9 109.002 273.431 108.991 171.963 109.032C165.189 109.035 158.416 109.437 151.361 109.407C151.08 109.16 151.075 108.97 151.421 108.885C154.803 108.339 157.838 107.877 161.145 107.579C162.012 107.618 162.607 107.493 163.658 107.374C189.672 107.379 215.231 107.379 241.072 107.554C242.64 107.611 243.925 107.493 245.666 107.385C300.344 107.386 354.568 107.377 409.043 107.542C410.267 107.602 411.24 107.488 412.668 107.383C427.679 107.386 442.235 107.378 457.073 107.546C458.641 107.608 459.927 107.493 461.569 107.39C462.875 107.395 463.825 107.388 464.929 107.531C465.463 107.577 465.844 107.472 466.645 107.378C469.312 107.365 471.558 107.342 474.012 107.485C474.879 107.545 475.54 107.438 476.558 107.366C478.605 107.544 480.293 107.688 481.982 107.832C482.431 107.904 482.879 107.976 483.958 108.14C485.398 108.537 486.207 108.842 487.016 109.146Z" fill="#009893"/>
<path d="M316.968 898.791C319.405 897.903 321.842 897.014 324.623 896.017C322.615 900.471 318.177 900.82 313.941 900.931C305.29 901.159 296.626 900.876 287.971 901.03C276.267 901.239 264.568 901.802 252.864 901.931C247.15 901.995 241.428 901.17 235.71 901.182C218.339 901.22 200.968 901.541 183.596 901.603C176.224 901.628 168.851 901.243 161.478 901.117C155.731 901.018 149.951 901.378 144.248 900.858C141.153 900.576 138.187 898.881 135.082 897.473C136.778 897.708 138.555 898.293 141.146 898.912C189.331 898.967 236.701 899.002 284.071 898.998C295.037 898.997 306.002 898.863 316.968 898.791Z" fill="#ECECEC"/>
<path d="M518.113 524.957C518.253 516.51 518.952 508.217 518.957 499.924C519.029 383.863 519.013 267.803 518.966 151.742C518.965 148.448 518.392 145.154 518.115 141.441C518.764 142.865 519.916 144.705 519.922 146.549C520.033 177.85 520.003 209.151 520.002 240.452C520.002 332.523 520.016 424.594 519.931 516.665C519.928 519.481 518.9 522.297 518.113 524.957Z" fill="#FDFAFB"/>
<path d="M541.307 617.966C543.796 617.526 546.527 617.04 549.258 617.038C610.621 616.995 671.985 617.003 733.348 617.017C734.332 617.018 735.316 617.214 736.629 617.563C736.473 618.148 735.989 618.487 734.776 618.914C711.104 618.999 688.161 618.979 665.219 618.997C624.49 619.028 583.761 619.082 543.032 619.127C542.538 618.8 542.043 618.473 541.307 617.966Z" fill="#009893"/>
<path d="M119.425 142.151C119.535 145.503 119.046 148.972 119.045 152.442C119.001 272.703 118.996 392.965 119.033 513.226C119.034 516.196 119.573 519.166 119.844 522.552C119.219 521.289 118.091 519.612 118.081 517.929C117.959 497.122 118 476.313 118 455.505C118 353.13 117.993 250.755 118.043 148.379C118.044 146.342 118.701 144.305 119.425 142.151Z" fill="#FDFAFB"/>
<path d="M421.105 898.516C422.119 898.418 423.225 898.675 425.017 898.963C483.193 899 540.684 899.027 598.174 898.939C600.533 898.935 602.889 897.848 605.246 897.265C605.246 897.265 605.112 897.294 605.457 897.287C606.206 897.194 606.611 897.108 607.038 897.034C607.059 897.048 607.1 897.076 607.1 897.076C603.888 898.382 600.682 900.814 597.465 900.827C540.832 901.059 484.197 901.019 427.563 900.908C425.439 900.903 423.318 899.581 421.105 898.516Z" fill="#F8F3F4"/>
<path d="M160.873 107.414C157.838 107.877 154.802 108.339 151.358 108.814C154.593 107.887 158.235 106.138 161.882 106.128C221.837 105.958 281.793 106.008 341.748 106.008C386.548 106.008 431.348 105.994 476.148 106.052C478.016 106.054 479.882 106.722 481.866 107.456C480.293 107.688 478.605 107.544 476.167 107.229C474.88 107.144 474.342 107.232 473.804 107.32C471.558 107.342 469.312 107.365 466.282 107.278C465.257 107.239 465.016 107.31 464.775 107.381C463.825 107.388 462.875 107.395 461.142 107.237C459.169 107.171 457.98 107.271 456.791 107.371C442.235 107.378 427.678 107.386 412.252 107.233C410.518 107.172 409.655 107.27 408.791 107.368C354.568 107.377 300.344 107.386 245.238 107.232C243.167 107.173 241.978 107.276 240.789 107.38C215.23 107.379 189.672 107.379 163.38 107.232C162.056 107.195 161.465 107.305 160.873 107.414Z" fill="#FDFAFB"/>
<path d="M543.145 153.271C543.511 154.67 543.968 156.276 543.968 157.883C544.003 255.888 544.001 353.894 543.985 451.899C543.985 453.38 543.762 454.86 543.381 456.66C543.118 456.978 542.909 456.63 542.931 456.005C542.723 453.248 542.492 451.115 542.211 448.614C542.195 447.502 542.23 446.759 542.495 445.673C542.819 436.609 543.002 427.887 542.967 419.167C542.951 415.104 542.51 411.044 542.209 406.588C542.19 405.135 542.223 404.076 542.488 402.675C542.566 395.216 542.413 388.099 542.208 380.613C542.19 379.503 542.224 378.76 542.489 377.677C542.568 372.218 542.417 367.101 542.213 361.55C542.196 359.084 542.232 357.05 542.498 354.673C542.82 346.271 543.013 338.211 542.967 330.152C542.942 325.761 542.512 321.373 542.214 316.659C542.197 315.897 542.231 315.461 542.446 314.859C542.509 314.121 542.39 313.549 542.22 312.608C542.204 311.498 542.239 310.756 542.499 309.684C542.572 305.897 542.42 302.44 542.216 298.572C542.198 296.779 542.233 295.397 542.498 293.673C542.821 280.304 542.949 267.278 542.974 254.252C542.978 252.164 542.52 250.074 542.223 247.59C542.206 246.135 542.241 245.076 542.504 243.676C542.579 238.885 542.427 234.434 542.224 229.657C542.207 228.892 542.242 228.455 542.506 227.673C542.825 217.947 542.994 208.563 542.967 199.181C542.955 195.447 542.509 191.715 542.21 187.657C542.194 186.893 542.227 186.456 542.493 185.676C542.566 177.216 542.408 169.098 542.2 160.656C542.181 159.894 542.212 159.458 542.462 158.724C542.777 156.935 542.872 155.444 542.967 153.953C542.967 153.953 543.025 153.477 543.145 153.271Z" fill="#009893"/>
<path d="M477.638 556.576C449.99 556.879 422.012 556.981 394.035 556.989C316.587 557.01 239.139 557 161.691 556.95C159.078 556.949 156.465 556.384 153.429 556.108C152.569 556.074 152.13 556.013 151.182 555.707C150.116 555.24 149.559 555.018 149.002 554.796C152.058 554.887 155.118 554.908 158.168 555.086C162.297 555.328 166.419 555.959 170.544 555.961C270.981 556.011 371.418 555.998 471.855 556.014C473.673 556.014 475.49 556.221 477.638 556.576Z" fill="#009893"/>
<path d="M542.267 294.016C542.233 295.397 542.198 296.779 542.114 299.022C542.134 303.261 542.204 306.637 542.273 310.014C542.238 310.756 542.204 311.498 542.121 312.945C542.137 314.108 542.2 314.566 542.264 315.024C542.23 315.461 542.197 315.897 542.113 317.119C542.131 330.275 542.199 342.646 542.268 355.016C542.232 357.05 542.196 359.084 542.112 362.009C542.128 367.94 542.193 372.979 542.258 378.018C542.224 378.76 542.19 379.503 542.108 381.074C542.126 388.941 542.191 395.98 542.257 403.018C542.223 404.076 542.189 405.135 542.107 407.048C542.126 420.608 542.195 433.312 542.264 446.016C542.23 446.759 542.195 447.502 542.108 449.041C542.065 451.886 542.074 453.934 542.084 455.982C541.725 454.263 541.053 452.545 541.052 450.826C541.001 353.694 541.003 256.561 541.031 159.429C541.032 157.809 541.424 156.19 541.909 154.747C542.204 156.29 542.223 157.656 542.243 159.022C542.211 159.458 542.18 159.894 542.1 161.117C542.121 169.941 542.191 177.98 542.261 186.018C542.227 186.456 542.193 186.893 542.109 188.117C542.131 201.941 542.204 214.979 542.276 228.017C542.242 228.455 542.207 228.892 542.121 230.113C542.138 235.269 542.207 239.642 542.276 244.016C542.241 245.076 542.206 246.135 542.119 248.05C542.135 263.942 542.201 278.979 542.267 294.016Z" fill="#FDFAFB"/>
<path d="M295.215 798.607C294.238 798.603 293.156 798.877 292.3 798.553C283.258 795.131 273.878 794.84 264.348 794.927C242.386 795.127 220.42 795.109 198.457 794.943C187.323 794.859 176.247 794.903 164.97 797.652C164.547 797.503 164.734 797.184 165.24 797.035C171.53 795.614 177.31 793.268 183.098 793.249C215.728 793.145 248.359 793.599 280.99 793.863C281.426 793.945 281.863 794.026 282.921 794.296C286.359 795.282 289.175 796.079 291.991 796.876C292.773 797.251 293.554 797.625 294.738 798.143C295.139 798.288 295.215 798.607 295.215 798.607Z" fill="#009893"/>
<path d="M543.353 619.385C583.761 619.082 624.49 619.028 665.219 618.997C688.162 618.979 711.104 618.999 734.512 619.048C733.563 619.396 732.149 619.961 730.734 619.962C669.362 620.006 607.99 620.002 546.617 619.986C545.636 619.985 544.655 619.763 543.353 619.385Z" fill="#FDFAFB"/>
<path d="M859.942 797.586C852.326 796.814 844.508 795.344 836.626 794.816C828.382 794.264 820.077 794.631 811.799 794.571C805.74 794.527 799.681 794.421 793.621 794.382C785.31 794.328 776.998 794.266 768.686 794.312C766.716 794.323 764.734 795.04 762.781 794.944C751.038 794.366 739.521 795.209 728.13 799.737C732.058 798.015 736.38 796.359 741.185 794.453C741.669 794.201 742.013 793.99 742.013 793.99C742.464 794.002 742.915 794.013 744.132 793.972C749.145 793.615 753.39 793.077 757.638 793.05C773.93 792.946 790.224 792.922 806.516 793.033C820.124 793.127 833.729 793.451 847.336 793.674C851.462 794.883 855.587 796.093 859.942 797.586Z" fill="#009893"/>
<path d="M565.128 794.965C556.01 794.652 546.891 794.047 537.776 794.093C522.907 794.169 508.04 794.659 493.172 794.996C480.347 795.287 467.522 795.607 454.235 795.844C454.582 795.471 455.39 795.168 456.811 794.643C458.271 794.234 459.118 794.046 459.965 793.858C460.437 793.864 460.908 793.87 462.112 793.707C464.161 793.37 465.479 793.058 466.798 793.057C496.92 793.028 527.043 792.985 557.164 793.116C559.822 793.128 562.474 794.32 565.128 794.965Z" fill="#009893"/>
<path d="M708.494 898.865C709.966 898.523 711.899 898.03 713.833 898.029C764.283 897.986 814.733 898.034 865.182 897.951C872.969 897.939 880.755 897.369 889.005 897.084C887.116 897.735 884.764 898.9 882.411 898.904C824.592 898.992 766.774 898.956 708.494 898.865Z" fill="#009893"/>
<path d="M852.298 323.744C848.56 320.497 849.931 316.194 850.375 312.243C853.912 280.744 852.044 249.812 841.156 219.387C843.017 223.262 845.369 227.369 846.69 231.784C853.82 255.62 853.38 280.155 852.959 304.668C852.851 310.951 852.673 317.233 852.298 323.744Z" fill="#F8F3F4"/>
<path d="M280.874 793.486C248.359 793.599 215.728 793.145 183.098 793.249C177.311 793.268 171.53 795.614 165.361 796.895C169.626 795.273 174.259 792.286 178.929 792.228C212.006 791.82 245.091 792.004 278.173 792.058C279.036 792.06 279.897 792.743 280.874 793.486Z" fill="#FDFAFB"/>
<path d="M330.983 886.993C331.304 886.204 331.625 885.416 331.981 883.839C331.942 871.718 331.867 860.384 331.792 849.05C329.233 840.939 326.674 832.828 324.05 824.361C325.66 826.514 327.848 828.823 328.919 831.568C333.358 842.936 335.179 854.726 334.073 866.975C333.655 871.602 334.231 876.315 333.902 880.957C333.738 883.281 332.557 885.532 331.434 887.658C331.015 887.331 330.999 887.162 330.983 886.993Z" fill="#ECECEC"/>
<path d="M728.594 126.063C724.965 125.771 720.881 125.746 716.981 124.886C696.256 120.317 675.252 119.661 654.159 119.988C653.01 120.006 651.857 119.786 650.38 119.431C676.451 117.49 702.542 119.352 728.594 126.063Z" fill="#009893"/>
<path d="M565.354 794.988C562.474 794.32 559.822 793.128 557.165 793.116C527.043 792.985 496.92 793.028 466.798 793.057C465.479 793.058 464.161 793.37 462.436 793.556C463.444 793.05 464.859 792.071 466.276 792.067C497.551 791.98 528.826 791.88 560.099 792.144C564.352 792.18 568.588 794.135 572.584 795.577C571.887 796.001 571.439 796.049 570.99 796.097C570.99 796.097 570.563 795.993 570.152 795.649C568.497 795.256 567.254 795.206 566.011 795.157C566.011 795.157 565.58 795.012 565.354 794.988Z" fill="#FDFAFB"/>
<path d="M847.063 793.285C833.729 793.451 820.124 793.127 806.516 793.033C790.224 792.922 773.93 792.946 757.638 793.05C753.39 793.077 749.145 793.615 744.459 793.879C745.199 793.228 746.378 792.084 747.559 792.08C779.713 791.987 811.866 792.002 844.02 792.049C844.944 792.051 845.867 792.602 847.063 793.285Z" fill="#FDFAFB"/>
<path d="M739.205 616.9C740.555 608.899 742.021 600.79 744.079 592.834C745.802 586.174 748.216 579.692 750.619 572.932C749.412 577.924 747.604 583.052 746.481 588.325C744.75 596.453 743.569 604.696 741.953 612.851C741.668 614.287 740.394 615.528 739.205 616.9Z" fill="#F8F3F4"/>
<path d="M753.512 570.01C756.444 566.178 761.147 566.207 765.411 566.534C774.062 567.197 782.654 568.627 791.624 569.901C788.655 569.878 785.31 569.882 782.016 569.474C772.607 568.308 763.23 567.598 753.512 570.01Z" fill="#F8F3F4"/>
<path d="M413.543 830.086C407.235 849.104 407.978 868.632 410.597 888.621C409.812 887.227 408.153 885.488 408.12 883.718C407.889 871.627 407.457 859.494 408.235 847.449C408.613 841.604 411.465 835.92 413.543 830.086Z" fill="#F8F3F4"/>
<path d="M800.127 571.529C810.54 571.12 821.067 571.186 831.589 570.973C833.811 570.928 836.013 569.863 838.604 569.214C838.185 569.86 837.499 570.892 836.57 571.209C824.548 575.3 812.403 574.338 800.127 571.529Z" fill="#F8F3F4"/>
<path d="M852.582 557.921C857.486 549.973 856.676 541.45 854.334 532.413C859.273 538.669 859.337 552.4 852.582 557.921Z" fill="#F8F3F4"/>
<path d="M126.131 849.496C126.474 852.966 126.945 856.897 126.967 860.83C127.01 868.643 126.807 876.458 126.471 884.606C126.176 873.279 126.115 861.618 126.131 849.496Z" fill="#009893"/>
<path d="M133.649 823.065C131.797 828.8 129.603 834.594 127.205 840.693C126.439 834.101 129.266 828.398 133.649 823.065Z" fill="#FDFAFB"/>
<path d="M813.883 173.148C811.538 171.258 809.196 168.984 806.663 166.413C808.943 168.333 811.415 170.548 813.883 173.148Z" fill="#F8F3F4"/>
<path d="M291.911 796.537C289.175 796.079 286.359 795.282 283.254 794.263C285.921 794.76 288.876 795.479 291.911 796.537Z" fill="#FDFAFB"/>
<path d="M838.723 211.873C837.471 210.067 836.334 207.883 835.153 205.354C836.352 207.172 837.596 209.334 838.723 211.873Z" fill="#F8F3F4"/>
<path d="M492.11 554.081C493.711 552.877 495.509 551.935 497.66 550.945C496.111 552.046 494.209 553.194 492.11 554.081Z" fill="#F8F3F4"/>
<path d="M613.204 891.919C613.723 890.117 614.589 888.279 615.688 886.201C615.131 887.935 614.34 889.91 613.204 891.919Z" fill="#F8F3F4"/>
<path d="M580.964 799.581C578.591 799.003 576.008 798.137 573.34 796.904C575.755 797.455 578.255 798.374 580.964 799.581Z" fill="#009893"/>
<path d="M453.487 795.706C451.423 796.718 448.98 797.787 446.147 798.754C448.207 797.688 450.658 796.725 453.487 795.706Z" fill="#009893"/>
<path d="M119.815 525.184C120.744 526.793 121.427 528.612 122.212 530.81C121.399 529.257 120.484 527.325 119.815 525.184Z" fill="#FDFAFB"/>
<path d="M144.732 810.027C143.494 811.764 142.001 813.6 140.285 815.296C140.658 814.359 141.254 813.561 142.198 812.355C142.751 811.644 142.954 811.341 143.157 811.037C143.597 810.733 144.037 810.43 144.732 810.027Z" fill="#009893"/>
<path d="M834.927 203.905C833.981 202.752 833.054 201.216 832.078 199.342C833.001 200.51 833.974 202.016 834.927 203.905Z" fill="#F8F3F4"/>
<path d="M295.21 798.641C295.215 798.607 295.14 798.288 295.067 798.14C296.289 798.431 297.584 798.87 298.925 799.625C298.971 799.941 298.911 800.168 298.692 800.09C298.056 799.881 297.639 799.75 297.222 799.619C297.222 799.619 297.166 799.729 297.044 799.473C296.329 799.026 295.736 798.835 295.143 798.644C295.143 798.644 295.204 798.674 295.21 798.641Z" fill="#FDFAFB"/>
<path d="M794.085 570.48C795.134 570.348 796.255 570.538 797.683 570.879C796.712 570.955 795.434 570.879 794.085 570.48Z" fill="#F8F3F4"/>
<path d="M840.963 217.752C840.198 216.425 839.442 214.704 838.613 212.631C839.351 213.971 840.161 215.664 840.963 217.752Z" fill="#F8F3F4"/>
<path d="M542.276 456.043C542.074 453.934 542.065 451.886 542.159 449.411C542.492 451.115 542.723 453.248 542.904 455.804C542.854 456.228 542.469 456.105 542.276 456.043Z" fill="#2BB5B1"/>
<path d="M486.172 556.195C486.762 555.632 487.55 555.32 488.667 555.03C488.121 555.516 487.246 555.981 486.172 556.195Z" fill="#F8F3F4"/>
<path d="M487.252 109.076C486.207 108.842 485.398 108.537 484.297 108.088C485.227 108.083 486.448 108.221 487.82 108.64C487.971 108.921 487.487 109.005 487.252 109.076Z" fill="#FDFAFB"/>
<path d="M869.912 802.663C868.831 802.485 867.576 802.017 866.172 801.228C867.261 801.397 868.5 801.885 869.912 802.663Z" fill="#009893"/>
<path d="M459.717 793.627C459.118 794.046 458.271 794.234 457.106 794.476C456.534 794.203 456.281 793.876 456.028 793.549C457.175 793.498 458.322 793.448 459.717 793.627Z" fill="#FDFAFB"/>
<path d="M445.41 798.628C444.641 799.307 443.547 800.057 442.094 800.72C442.852 799.988 443.969 799.344 445.41 798.628Z" fill="#009893"/>
<path d="M441.4 800.631C440.664 801.336 439.605 802.115 438.187 802.89C438.911 802.159 439.994 801.433 441.4 800.631Z" fill="#009893"/>
<path d="M725.404 800.637C724.905 801.265 724.117 801.975 723.001 802.497C723.487 801.778 724.301 801.249 725.404 800.637Z" fill="#009893"/>
<path d="M587.995 803.606C586.913 803.343 585.671 802.788 584.398 801.875C585.524 802.116 586.679 802.715 587.995 803.606Z" fill="#009893"/>
<path d="M872.949 804.664C872.108 804.503 871.12 804.062 870.086 803.267C870.961 803.403 871.882 803.893 872.949 804.664Z" fill="#009893"/>
<path d="M152.996 803.995C152.193 804.649 151.391 805.303 150.227 805.936C150.196 805.537 150.527 805.157 151.245 804.44C152.015 803.997 152.397 803.891 152.833 803.838C152.887 803.89 152.996 803.995 152.996 803.995Z" fill="#009893"/>
<path d="M319.987 817.643C319.338 817.223 318.681 816.44 317.906 815.369C318.517 815.814 319.248 816.546 319.987 817.643Z" fill="#ECECEC"/>
<path d="M322.942 821.811C322.301 821.353 321.672 820.523 320.954 819.389C321.561 819.87 322.257 820.655 322.942 821.811Z" fill="#ECECEC"/>
<path d="M417.657 822.075C417.547 822.963 417.083 823.918 416.346 825.045C416.483 824.193 416.893 823.167 417.657 822.075Z" fill="#F8F3F4"/>
<path d="M411.037 890.265C411.676 890.712 412.317 891.53 413.078 892.641C412.479 892.167 411.759 891.401 411.037 890.265Z" fill="#F8F3F4"/>
<path d="M542.462 158.724C542.223 157.656 542.204 156.29 542.26 154.517C542.335 154.111 542.655 154.049 542.811 154.001C542.872 155.444 542.777 156.935 542.462 158.724Z" fill="#2BB5B1"/>
<path d="M823.954 185.712C823.296 185.28 822.64 184.475 821.866 183.377C822.484 183.835 823.221 184.587 823.954 185.712Z" fill="#F8F3F4"/>
<path d="M819.986 180.622C819.344 180.204 818.687 179.423 817.917 178.354C818.526 178.797 819.249 179.529 819.986 180.622Z" fill="#F8F3F4"/>
<path d="M825.973 188.68C825.352 188.238 824.724 187.437 824.007 186.34C824.601 186.803 825.284 187.562 825.973 188.68Z" fill="#F8F3F4"/>
<path d="M827.96 191.713C827.344 191.255 826.731 190.438 826.042 189.319C826.631 189.796 827.296 190.576 827.96 191.713Z" fill="#F8F3F4"/>
<path d="M842.2 567.952C842.666 567.327 843.502 566.709 844.639 565.991C844.151 566.581 843.36 567.27 842.2 567.952Z" fill="#F8F3F4"/>
<path d="M148.755 554.863C149.559 555.018 150.115 555.24 150.848 555.707C150.117 555.843 149.211 555.735 148.165 555.368C148.186 555.049 148.346 554.99 148.755 554.863Z" fill="#F8F3F4"/>
<path d="M829.944 194.841C829.315 194.362 828.699 193.511 828.008 192.349C828.608 192.848 829.282 193.659 829.944 194.841Z" fill="#F8F3F4"/>
<path d="M717.601 805.668C717.138 806.319 716.379 807.117 715.265 807.944C715.708 807.254 716.507 806.534 717.601 805.668Z" fill="#009893"/>
<path d="M875.201 806.397C874.612 806.302 873.872 805.95 873.091 805.25C873.717 805.315 874.384 805.728 875.201 806.397Z" fill="#009893"/>
<path d="M590.971 805.646C590.172 805.442 589.229 804.951 588.171 804.139C588.981 804.332 589.904 804.846 590.971 805.646Z" fill="#009893"/>
<path d="M437.609 802.874C437.095 803.5 436.259 804.205 435.069 804.911C435.573 804.26 436.43 803.606 437.609 802.874Z" fill="#009893"/>
<path d="M156.015 802.009C155.223 802.653 154.43 803.297 153.317 803.968C152.996 803.995 152.887 803.89 152.873 803.637C152.859 803.385 153.026 803.011 153.026 803.011C153.026 803.011 153.003 802.995 153.281 802.95C153.804 802.628 154.048 802.35 154.292 802.073C154.292 802.073 154.706 802.067 155.08 801.97C155.454 801.872 155.875 801.871 155.909 801.906C155.944 801.941 156.015 802.009 156.015 802.009Z" fill="#009893"/>
<path d="M887.217 818.544C886.565 818.094 885.824 817.337 885.061 816.237C885.735 816.675 886.431 817.456 887.217 818.544Z" fill="#009893"/>
<path d="M831.891 198.229C831.38 197.931 830.867 197.279 830.283 196.322C830.771 196.636 831.33 197.256 831.891 198.229Z" fill="#F8F3F4"/>
<path d="M845.209 565.915C845.424 565.399 845.957 564.862 846.759 564.22C846.528 564.708 846.027 565.3 845.209 565.915Z" fill="#F8F3F4"/>
<path d="M600.328 814.38C599.755 814.182 599.078 813.711 598.488 812.902C599.125 813.078 599.675 813.592 600.328 814.38Z" fill="#009893"/>
<path d="M162.15 798.436C161.865 798.911 161.27 799.444 160.262 799.914C159.848 799.851 159.741 799.733 159.788 799.541C159.835 799.348 160.028 799.003 160.028 799.003C160.633 798.834 161.237 798.665 162.15 798.436Z" fill="#009893"/>
<path d="M802.986 162.768C802.647 162.966 802.368 162.81 802.066 162.296C802.305 162.227 802.639 162.385 802.986 162.768Z" fill="#F8F3F4"/>
<path d="M152.712 803.061C153.025 803.011 152.859 803.385 152.819 803.585C152.397 803.891 152.015 803.997 151.351 804.204C151.513 803.907 151.956 803.509 152.712 803.061Z" fill="#FDFAFB"/>
<path d="M722.154 802.54C722.068 802.901 721.731 803.354 721.047 803.741C721.102 803.327 721.503 802.98 722.154 802.54Z" fill="#009893"/>
<path d="M147.465 807.672C147.371 808.03 146.995 808.474 146.303 808.961C146.386 808.589 146.784 808.174 147.465 807.672Z" fill="#009893"/>
<path d="M720.495 803.679C720.36 804.04 719.919 804.475 719.142 804.929C719.266 804.55 719.727 804.151 720.495 803.679Z" fill="#009893"/>
<path d="M876.939 807.706C876.508 807.733 875.938 807.488 875.284 806.927C875.733 806.885 876.267 807.16 876.939 807.706Z" fill="#009893"/>
<path d="M329.275 890.872C329.206 890.46 329.4 889.898 329.855 889.178C329.924 889.587 329.731 890.154 329.275 890.872Z" fill="#009893"/>
<path d="M741.889 793.801C742.013 793.99 741.669 794.201 741.466 794.196C741.082 793.982 740.9 793.774 740.718 793.567C741.067 793.581 741.415 793.596 741.889 793.801Z" fill="#FDFAFB"/>
<path d="M330.743 887.182C330.999 887.162 331.015 887.331 331.075 887.751C330.922 888.29 330.725 888.578 330.295 888.987C330.209 888.528 330.355 887.949 330.743 887.182Z" fill="#009893"/>
<path d="M582.99 800.633C582.554 800.721 581.957 800.541 581.211 800.072C581.651 799.977 582.24 800.171 582.99 800.633Z" fill="#009893"/>
<path d="M164.416 797.547C164.266 797.913 163.843 798.326 163.104 798.596C163.24 798.167 163.691 797.881 164.416 797.547Z" fill="#009893"/>
<path d="M861.94 798.678C861.497 798.757 860.919 798.553 860.201 798.063C860.642 797.983 861.224 798.188 861.94 798.678Z" fill="#009893"/>
<path d="M707.701 815.072C707.718 815.504 707.466 816.064 706.892 816.682C706.857 816.227 707.144 815.714 707.701 815.072Z" fill="#009893"/>
<path d="M863.941 799.678C863.502 799.783 862.929 799.605 862.185 799.17C862.612 799.073 863.21 799.233 863.941 799.678Z" fill="#009893"/>
<path d="M159.898 799.913C159.439 800.28 158.931 800.585 158.105 800.861C158.061 800.558 158.336 800.283 159.012 799.841C159.414 799.674 159.741 799.733 159.741 799.733C159.741 799.733 159.848 799.851 159.898 799.913Z" fill="#009893"/>
<path d="M727.435 799.6C727.283 799.957 726.841 800.378 726.058 800.717C726.193 800.311 726.67 799.987 727.435 799.6Z" fill="#009893"/>
<path d="M865.942 800.675C865.503 800.781 864.929 800.603 864.184 800.168C864.611 800.071 865.209 800.231 865.942 800.675Z" fill="#009893"/>
<path d="M157.616 800.787C157.484 801.136 157.058 801.536 156.324 801.972C156.015 802.009 155.944 801.941 155.962 801.692C155.98 801.443 156.155 801.038 156.155 801.038C156.545 800.971 156.934 800.905 157.616 800.787Z" fill="#009893"/>
<path d="M888.012 819.628C887.76 819.656 887.445 819.44 887.186 818.976C887.477 818.947 887.714 819.166 888.012 819.628Z" fill="#009893"/>
<path d="M571.235 796.333C571.439 796.049 571.887 796.001 572.68 795.933C573.023 795.914 573.253 796.184 573.346 796.332C572.787 796.51 572.133 796.54 571.235 796.333Z" fill="#009893"/>
<path d="M601.255 815.542C601.007 815.617 600.681 815.418 600.322 814.919C600.585 814.835 600.881 815.051 601.255 815.542Z" fill="#009893"/>
<path d="M320.846 818.903C320.661 818.935 320.386 818.726 320.053 818.26C320.248 818.223 320.502 818.443 320.846 818.903Z" fill="#ECECEC"/>
<path d="M594.278 808.416C594.036 808.532 593.687 808.388 593.256 807.954C593.507 807.828 593.839 807.992 594.278 808.416Z" fill="#009893"/>
<path d="M706.496 816.774C706.589 817.011 706.404 817.356 705.936 817.812C705.842 817.576 706.031 817.229 706.496 816.774Z" fill="#009893"/>
<path d="M602.179 816.65C601.975 816.708 601.652 816.494 601.235 815.997C601.447 815.935 601.754 816.157 602.179 816.65Z" fill="#009893"/>
<path d="M138.617 816.2C138.787 816.389 138.657 816.634 138.195 816.911C138.124 816.768 138.275 816.54 138.617 816.2Z" fill="#FDFAFB"/>
<path d="M418.554 821.204C418.718 821.374 418.603 821.612 418.18 821.9C418.105 821.768 418.239 821.542 418.554 821.204Z" fill="#F8F3F4"/>
<path d="M328.016 892.043C328.12 891.715 328.309 891.447 328.803 891.124C329.023 891.008 328.985 891.449 328.776 891.75C328.567 892.051 328.152 892.147 328.12 892.119C328.087 892.091 328.016 892.043 328.016 892.043Z" fill="#009893"/>
<path d="M129.073 892.143C129.228 892.13 129.488 892.34 129.814 892.792C129.588 892.872 129.354 892.649 129.073 892.143Z" fill="#ECECEC"/>
<path d="M327.333 893.283C327.242 893.033 327.39 892.69 327.777 892.195C328.017 892.043 328.087 892.091 328.093 892.333C328.099 892.575 328.048 893.003 328.048 893.003C327.889 893.065 327.73 893.127 327.333 893.283Z" fill="#009893"/>
<path d="M328.256 892.868C328.048 893.003 328.099 892.575 328.126 892.361C328.152 892.147 328.567 892.051 328.765 891.971C328.881 892.222 328.715 892.503 328.256 892.868Z" fill="#ECECEC"/>
<path d="M130.068 893.325C130.23 893.251 130.449 893.419 130.705 893.845C130.553 893.896 130.348 893.717 130.068 893.325Z" fill="#ECECEC"/>
<path d="M133.172 896.149C133.359 896.074 133.689 896.239 134.154 896.652C133.964 896.73 133.64 896.559 133.172 896.149Z" fill="#ECECEC"/>
<path d="M607.822 896.283C607.691 896.614 607.538 896.763 607.231 896.982C607.1 897.076 607.059 897.048 607.134 896.85C607.209 896.652 607.323 896.251 607.323 896.251C607.323 896.251 607.207 896.212 607.447 896.209C607.686 896.206 608.029 895.885 608.029 895.885C608.029 895.885 607.82 896.124 607.822 896.283Z" fill="#F8F3F4"/>
<path d="M148.608 806.81C148.667 807.044 148.448 807.354 147.937 807.706C147.873 807.461 148.102 807.173 148.608 806.81Z" fill="#009893"/>
<path d="M592.109 806.65C591.902 806.729 591.591 806.548 591.158 806.12C591.359 806.046 591.682 806.219 592.109 806.65Z" fill="#009893"/>
<path d="M149.687 805.942C149.734 806.144 149.512 806.432 149.022 806.805C148.976 806.602 149.197 806.315 149.687 805.942Z" fill="#009893"/>
<path d="M154.031 802.163C154.048 802.35 153.804 802.628 153.282 802.963C153.26 802.765 153.515 802.509 154.031 802.163Z" fill="#FDFAFB"/>
<path d="M584.208 801.369C583.991 801.514 583.649 801.421 583.179 801.078C583.395 800.929 583.738 801.03 584.208 801.369Z" fill="#009893"/>
<path d="M301.786 801.572C301.607 801.761 301.356 801.649 301.057 801.199C301.192 801.122 301.427 801.259 301.786 801.572Z" fill="#FDFAFB"/>
<path d="M155.941 801.126C156.155 801.038 155.98 801.443 155.927 801.657C155.875 801.871 155.454 801.872 155.245 801.846C155.21 801.555 155.441 801.353 155.941 801.126Z" fill="#FDFAFB"/>
<path d="M593.202 807.551C592.976 807.649 592.641 807.48 592.193 807.045C592.418 806.947 592.757 807.116 593.202 807.551Z" fill="#009893"/>
<path d="M159.788 799.541C159.741 799.733 159.413 799.675 159.248 799.656C159.272 799.467 159.477 799.318 159.863 799.097C160.028 799.003 159.835 799.348 159.788 799.541Z" fill="#FDFAFB"/>
<path d="M146.161 554.303C146.323 554.232 146.622 554.36 147.03 554.723C146.817 554.882 146.537 554.73 146.161 554.303Z" fill="#F8F3F4"/>
<path d="M840.056 568.88C839.982 568.659 840.193 568.43 840.713 568.25C840.776 568.487 840.549 568.678 840.056 568.88Z" fill="#F8F3F4"/>
<path d="M751.534 571.79C751.444 571.666 751.545 571.486 751.88 571.296C751.903 571.391 751.773 571.54 751.534 571.79Z" fill="#F8F3F4"/>
<path d="M597.348 811.244C597.092 811.359 596.754 811.26 596.46 810.862C596.834 810.594 597.088 810.748 597.348 811.244Z" fill="#009893"/>
<path d="M884.074 814.692C883.881 814.748 883.579 814.544 883.164 814.086C883.355 814.032 883.66 814.232 884.074 814.692Z" fill="#009893"/>
<path d="M708.723 813.969C708.782 814.153 708.592 814.443 708.171 814.857C708.118 814.679 708.297 814.378 708.723 813.969Z" fill="#009893"/>
<path d="M883.081 813.674C882.874 813.734 882.575 813.525 882.177 813.055C882.381 812.997 882.685 813.202 883.081 813.674Z" fill="#009893"/>
<path d="M882.117 812.648C881.901 812.718 881.593 812.517 881.181 812.054C881.393 811.986 881.709 812.182 882.117 812.648Z" fill="#009893"/>
<path d="M710.687 811.937C710.741 812.138 710.532 812.436 710.067 812.846C710.016 812.65 710.22 812.342 710.687 811.937Z" fill="#009893"/>
<path d="M598.348 812.248C598.091 812.364 597.754 812.262 597.458 811.863C597.832 811.594 598.088 811.749 598.348 812.248Z" fill="#009893"/>
<path d="M881.114 811.651C880.901 811.722 880.592 811.526 880.176 811.07C880.385 811.002 880.702 811.193 881.114 811.651Z" fill="#009893"/>
<path d="M711.684 810.934C711.744 811.136 711.543 811.433 711.089 811.84C711.032 811.643 711.227 811.336 711.684 810.934Z" fill="#009893"/>
<path d="M142.912 811.165C142.954 811.341 142.751 811.644 142.299 812.07C142.255 811.892 142.462 811.593 142.912 811.165Z" fill="#FDFAFB"/>
<path d="M880.086 810.666C879.883 810.733 879.579 810.539 879.162 810.094C879.361 810.03 879.673 810.218 880.086 810.666Z" fill="#009893"/>
<path d="M712.696 809.956C712.75 810.152 712.544 810.442 712.089 810.841C712.038 810.65 712.237 810.351 712.696 809.956Z" fill="#009893"/>
<path d="M596.322 810.246C596.071 810.37 595.73 810.267 595.39 809.862C595.743 809.582 596.022 809.735 596.322 810.246Z" fill="#009893"/>
<path d="M879.056 809.69C878.859 809.744 878.561 809.537 878.153 809.077C878.346 809.026 878.652 809.228 879.056 809.69Z" fill="#009893"/>
<path d="M713.705 808.944C713.758 809.13 713.557 809.427 713.109 809.843C713.058 809.659 713.255 809.357 713.705 808.944Z" fill="#009893"/>
<path d="M595.32 809.347C595.067 809.463 594.719 809.327 594.342 808.889C594.616 808.756 594.921 808.926 595.32 809.347Z" fill="#009893"/>
<path d="M144.698 144.01C144.922 146.483 144.987 149.027 144.988 151.571C144.993 272 144.987 392.429 145.033 512.859C145.034 515.819 145.61 518.779 145.887 522.213C145.528 522.232 145.201 521.777 144.544 520.704C143.858 517.124 143.191 514.163 143.19 511.202C143.141 394.994 143.137 278.785 143.197 162.577C143.2 156.447 143.798 150.318 144.12 144.189C144.12 144.189 144.509 144.082 144.698 144.01Z" fill="#FDFAFB"/>
<path d="M493.801 519.993C493.534 518.392 493.034 516.791 493.033 515.189C493.008 391.732 493.022 268.274 493.063 144.336C493.51 144.535 493.927 145.212 494.589 146.559C494.894 148.725 495.003 150.223 495.003 151.72C495.008 272.035 495.012 392.35 494.952 512.666C494.951 515.108 494.202 517.55 493.801 519.993Z" fill="#F8F3F4"/>
<path d="M143.883 144.034C143.798 150.318 143.2 156.447 143.196 162.577C143.137 278.785 143.141 394.994 143.19 511.202C143.191 514.163 143.858 517.124 144.334 520.5C143.638 519.405 142.635 517.961 142.076 516.362C141.713 515.322 141.994 514.055 141.994 512.89C141.993 392.704 141.982 272.518 142.063 152.332C142.064 149.514 143.095 146.697 143.883 144.034Z" fill="#009893"/>
<path d="M493.856 520.218C494.202 517.55 494.951 515.108 494.952 512.666C495.012 392.35 495.008 272.035 495.003 151.72C495.003 150.223 494.894 148.725 494.81 146.782C495.19 147.713 495.948 149.089 495.95 150.466C496.01 202.435 496.001 254.404 496.001 306.374C496.001 375.666 496.017 444.958 495.937 514.25C495.934 516.564 494.962 518.877 494.192 521.048C493.942 520.906 493.911 520.443 493.856 520.218Z" fill="#009893"/>
<path d="M484.185 133.641C377.656 133.6 270.927 133.299 164.198 132.984C162.379 132.978 160.559 132.799 158.409 132.464C158.801 132.136 159.523 132.045 161.07 131.966C231.814 131.985 301.734 132.009 371.653 131.992C407.442 131.984 443.23 131.904 479.36 131.917C480.39 132.033 481.08 132.088 481.77 132.144C482.509 132.556 483.248 132.968 484.185 133.641Z" fill="#FDFAFB"/>
<path d="M481.948 131.909C481.08 132.088 480.39 132.033 479.025 131.672C476.867 131.243 475.384 131.013 473.901 131.013C369.602 131.005 265.302 131.015 161.003 131.023C162.732 130.683 164.461 130.045 166.191 130.044C269.408 129.997 372.624 129.992 475.841 130.072C477.937 130.073 480.032 131.117 481.948 131.909Z" fill="#009893"/>
<path d="M161.513 532.898C163.147 532.555 165.241 532.036 167.336 532.035C265.157 531.995 362.977 532.006 460.797 531.986C467.08 531.985 473.363 531.78 479.891 531.956C478.527 532.492 476.919 532.96 475.312 532.96C370.866 532.985 266.42 532.972 161.513 532.898Z" fill="#FDFAFB"/>
<path d="M160.994 131.223C265.303 131.015 369.602 131.005 473.902 131.013C475.384 131.013 476.867 131.243 478.684 131.611C443.231 131.904 407.442 131.984 371.653 131.992C301.734 132.009 231.814 131.985 161.429 131.9C160.964 131.822 160.984 131.423 160.994 131.223Z" fill="#2BB5B1"/>
<path d="M493.12 143.628C492.924 143.435 492.677 142.923 492.613 142.233C492.888 142.473 492.978 142.891 493.12 143.628Z" fill="#F8F3F4"/>
<path d="M482.308 531.804C482.236 531.52 482.495 531.32 483.061 531.138C483.058 531.314 482.814 531.557 482.308 531.804Z" fill="#FDFAFB"/>
<path d="M604.803 897.184C602.889 897.848 600.532 898.935 598.174 898.939C540.684 899.027 483.193 899 425.358 898.911C426.94 898.55 428.866 898.03 430.792 898.028C481.036 897.984 531.279 898.03 581.523 897.953C589.135 897.942 596.747 897.399 604.803 897.184Z" fill="#009893"/>
<path d="M566.282 795.391C567.254 795.206 568.497 795.256 569.933 795.635C568.935 795.852 567.745 795.739 566.282 795.391Z" fill="#009893"/>
<path d="M606.974 896.208C607.323 896.251 607.209 896.652 607.113 896.837C606.611 897.108 606.206 897.194 605.494 897.345C605.666 896.995 606.146 896.58 606.974 896.208Z" fill="#009893"/>
<path d="M607.892 895.754C608.029 895.885 607.686 896.206 607.46 896.269C607.408 896.095 607.582 895.859 607.892 895.754Z" fill="#009893"/>
<path d="M316.635 898.551C306.002 898.863 295.037 898.997 284.071 898.998C236.701 899.002 189.331 898.967 141.499 898.869C142.469 898.526 143.899 898.028 145.329 898.027C201.337 897.987 257.344 897.992 313.351 898.006C314.335 898.007 315.318 898.205 316.635 898.551Z" fill="#009893"/>
<path d="M331.553 849.381C331.867 860.384 331.942 871.718 331.93 883.513C331.559 880.593 331.051 877.214 331.038 873.834C331.005 865.794 331.206 857.752 331.553 849.381Z" fill="#009893"/>
<path d="M295.271 798.963C295.736 798.835 296.329 799.026 297.105 799.47C296.659 799.575 296.029 799.428 295.271 798.963Z" fill="#009893"/>
<path d="M297.254 799.884C297.639 799.75 298.056 799.881 298.747 800.193C298.442 800.3 297.864 800.225 297.254 799.884Z" fill="#009893"/>
<path d="M241.072 107.554C241.978 107.276 243.167 107.173 244.783 107.223C243.925 107.493 242.64 107.611 241.072 107.554Z" fill="#88D5D2"/>
<path d="M457.073 107.546C457.98 107.271 459.169 107.171 460.786 107.226C459.927 107.493 458.641 107.608 457.073 107.546Z" fill="#88D5D2"/>
<path d="M409.042 107.542C409.655 107.27 410.518 107.172 411.797 107.224C411.24 107.488 410.267 107.602 409.042 107.542Z" fill="#88D5D2"/>
<path d="M474.012 107.485C474.342 107.232 474.88 107.144 475.809 107.194C475.54 107.438 474.879 107.545 474.012 107.485Z" fill="#88D5D2"/>
<path d="M161.145 107.579C161.465 107.305 162.056 107.195 162.925 107.227C162.607 107.493 162.012 107.618 161.145 107.579Z" fill="#88D5D2"/>
<path d="M464.928 107.531C465.016 107.31 465.257 107.239 465.862 107.268C465.844 107.473 465.463 107.577 464.928 107.531Z" fill="#88D5D2"/>
<path d="M542.497 293.673C542.201 278.979 542.135 263.942 542.172 248.445C542.52 250.074 542.977 252.164 542.973 254.252C542.949 267.278 542.821 280.304 542.497 293.673Z" fill="#2BB5B1"/>
<path d="M542.505 227.673C542.204 214.979 542.131 201.941 542.16 188.443C542.509 191.715 542.955 195.447 542.966 199.181C542.994 208.563 542.825 217.947 542.505 227.673Z" fill="#2BB5B1"/>
<path d="M542.494 445.673C542.195 433.312 542.126 420.608 542.159 407.443C542.51 411.044 542.951 415.104 542.967 419.167C543.002 427.887 542.818 436.609 542.494 445.673Z" fill="#2BB5B1"/>
<path d="M542.498 354.673C542.199 342.646 542.131 330.275 542.164 317.444C542.512 321.373 542.942 325.761 542.967 330.152C543.013 338.211 542.82 346.271 542.498 354.673Z" fill="#2BB5B1"/>
<path d="M542.492 185.676C542.191 177.98 542.121 169.941 542.15 161.442C542.408 169.098 542.566 177.216 542.492 185.676Z" fill="#2BB5B1"/>
<path d="M542.488 402.675C542.191 395.98 542.126 388.941 542.161 381.443C542.413 388.099 542.566 395.216 542.488 402.675Z" fill="#2BB5B1"/>
<path d="M542.489 377.677C542.193 372.979 542.128 367.94 542.164 362.442C542.417 367.101 542.568 372.218 542.489 377.677Z" fill="#2BB5B1"/>
<path d="M542.504 243.676C542.207 239.642 542.138 235.269 542.172 230.439C542.427 234.434 542.579 238.885 542.504 243.676Z" fill="#2BB5B1"/>
<path d="M542.498 309.684C542.204 306.637 542.134 303.261 542.167 299.434C542.42 302.44 542.572 305.897 542.498 309.684Z" fill="#2BB5B1"/>
<path d="M542.446 314.859C542.2 314.566 542.137 314.108 542.172 313.313C542.39 313.549 542.509 314.121 542.446 314.859Z" fill="#2BB5B1"/>
<path d="M388.894 201.223C390.186 183.84 404.481 170.086 421.835 169.1C438.171 168.172 454.506 180.738 457.959 196.89C463.391 222.295 441.572 244.355 416.134 238.847C412.477 238.056 410.822 239.048 408.764 241.553C396.083 256.984 383.349 272.372 370.446 287.617C368.249 290.213 367.822 292.243 368.905 295.526C375.54 315.645 364.669 335.914 344.389 341.037C330.942 344.434 318.906 341.32 309.344 331.024C299.947 320.906 297.614 308.878 301.793 295.85C302.988 292.124 302.281 289.935 299.861 287.133C287.024 272.268 274.303 257.298 261.825 242.132C259.145 238.875 256.87 238.037 252.705 238.955C234.223 243.027 216.057 231.247 211.39 212.592C206.941 194.805 217.309 176.274 235.008 170.86C249.129 166.54 261.465 170.306 271.261 180.931C281.301 191.821 282.878 204.682 277.915 218.544C277.325 220.191 277.17 222.912 278.117 224.055C292.234 241.09 306.57 257.944 320.773 274.744C332.673 270.919 339.104 270.926 349.647 274.855C356.434 266.741 363.35 258.5 370.236 250.235C377.055 242.051 383.79 233.796 390.685 225.677C392.597 223.426 392.712 221.581 391.866 218.637C390.289 213.151 389.8 207.353 388.894 201.223Z" fill="#01A8A3"/>
<path d="M186.028 402.12C178.005 394.96 179.44 385.76 189.985 381.382C192.312 381.774 193.96 381.992 195.608 381.993C278.807 382.009 362.006 382.008 445.204 382C446.866 382 448.528 381.902 450.19 381.85C450.19 381.85 450.068 381.88 450.209 382.109C450.938 382.536 451.526 382.734 452.115 382.932C452.115 382.932 452.035 382.963 452.204 383.186C452.759 383.576 453.145 383.743 453.531 383.911C458.721 389.502 458.833 394.736 453.222 400.938C451.711 401.766 450.868 402.452 450.025 403.139C449.933 403.489 449.72 403.731 448.931 403.949C448.478 404.033 448.001 403.906 447.682 403.64C446.049 403.247 444.737 403.009 443.424 403.009C360.547 402.991 277.671 402.988 194.795 403.028C193.201 403.028 191.608 403.552 190.015 403.832C189.662 403.846 189.308 403.859 188.518 403.644C187.727 403.237 187.374 403.058 187.02 402.879C187.02 402.879 187.028 402.971 186.981 402.718C186.631 402.35 186.33 402.235 186.028 402.12Z" fill="#00A8A4"/>
<path d="M185.589 466.104C180.647 461.826 179.851 458.168 182.877 451.383C183.531 450.8 183.714 450.324 183.898 449.848C183.898 449.848 183.931 449.937 184.138 449.83C184.537 449.415 184.728 449.106 184.92 448.797C184.92 448.797 184.933 448.931 185.125 448.832C185.532 448.442 185.746 448.153 185.96 447.863C185.96 447.863 185.955 447.946 186.242 447.925C186.979 447.498 187.429 447.092 187.879 446.685C187.879 446.685 187.893 446.821 188.313 446.873C209.227 446.949 229.72 447.001 250.213 446.992C290.532 446.973 330.852 446.919 371.171 446.88C371.171 446.88 371.079 446.89 371.119 447.024C371.43 447.171 371.701 447.185 371.973 447.198C379.48 452.701 379.73 459.832 372.197 466.679C371.548 466.842 371.358 467.061 371.169 467.281C371.169 467.281 371.117 467.193 370.839 467.158C370.052 467.464 369.542 467.806 369.033 468.147C369.033 468.147 369.048 468.056 368.612 468.046C314.561 468.023 260.945 468.082 207.33 467.915C200.081 467.892 192.836 466.736 185.589 466.104Z" fill="#00A8A4"/>
<path d="M191.104 380.062C192.106 379.711 193.107 379.052 194.109 379.052C277.732 379.004 361.355 379.004 444.979 379.052C446.06 379.053 447.141 379.712 447.64 380.381C436.416 380.663 425.774 380.629 414.898 380.414C413.732 380.352 412.799 380.471 411.413 380.606C406.681 380.611 402.404 380.598 397.839 380.398C395.991 380.335 394.431 380.459 392.412 380.6C383.677 380.608 375.401 380.599 366.804 380.4C364.279 380.336 362.076 380.462 359.413 380.605C347.352 380.609 335.75 380.597 324.019 380.432C323.542 380.382 323.195 380.484 322.391 380.603C279 380.61 236.068 380.599 192.928 380.411C192.182 380.176 191.643 380.119 191.104 380.062Z" fill="#FDFAFB"/>
<path d="M367.998 469.09C365.848 469.726 363.699 470.913 361.548 470.917C306.187 471.019 250.826 471.01 195.465 470.942C193.774 470.94 192.084 470.109 190.664 469.311C196.421 468.971 201.908 468.994 207.394 468.998C260.929 469.03 314.463 469.06 367.998 469.09Z" fill="#F8F3F4"/>
<path d="M448.001 403.906C448.001 403.906 448.478 404.033 448.72 404.082C446.702 404.752 444.442 405.91 442.18 405.913C374.243 406.01 306.306 405.992 238.37 405.992C224.549 405.992 210.729 406.016 196.908 405.964C195.125 405.957 193.344 405.558 191.599 405.05C192.133 404.625 192.628 404.49 193.575 404.355C197.637 404.381 201.248 404.405 205.051 404.602C205.877 404.661 206.509 404.548 207.551 404.417C209.597 404.408 211.234 404.417 213.24 404.623C219.782 404.692 225.955 404.564 232.566 404.418C235.626 404.41 238.249 404.42 241.241 404.626C249.449 404.69 257.289 404.559 265.566 404.413C268.625 404.411 271.248 404.426 274.235 404.633C278.776 404.699 282.953 404.572 287.472 404.428C288.5 404.42 289.186 404.429 290.241 404.631C301.031 404.882 311.451 405.016 321.871 404.97C327.958 404.942 334.043 404.626 340.524 404.423C342.237 404.418 343.554 404.429 345.241 404.633C355.784 404.699 365.957 404.571 376.586 404.426C381.653 404.416 386.262 404.424 391.241 404.627C397.449 404.691 403.29 404.56 409.551 404.411C411.939 404.403 413.905 404.414 416.222 404.618C419.758 404.684 422.943 404.557 426.588 404.415C432.984 404.396 438.922 404.393 444.994 404.537C445.462 404.56 445.796 404.436 446.449 404.274C447.179 404.125 447.59 404.016 448.001 403.906Z" fill="#FDFAFB"/>
<path d="M324.149 380.585C335.75 380.597 347.352 380.609 359.849 380.752C362.872 380.785 364.999 380.688 367.126 380.591C375.401 380.599 383.677 380.608 392.834 380.748C395.186 380.781 396.657 380.683 398.127 380.585C402.404 380.598 406.681 380.611 411.809 380.751C413.483 380.784 414.307 380.69 415.132 380.595C425.774 380.629 436.416 380.663 447.525 380.669C448.601 380.865 449.208 381.091 450.003 381.583C448.528 381.902 446.866 382 445.204 382C362.006 382.008 278.807 382.009 195.608 381.993C193.96 381.992 192.312 381.774 190.34 381.401C190.016 381.145 190.456 380.955 191.064 380.953C192.16 380.831 192.648 380.71 193.135 380.589C236.068 380.599 279 380.61 322.716 380.708C323.716 380.725 323.932 380.655 324.149 380.585Z" fill="#009893"/>
<path d="M240.872 404.431C238.249 404.42 235.626 404.41 232.11 404.266C225.102 404.23 218.987 404.328 212.872 404.426C211.234 404.417 209.597 404.408 207.179 404.278C205.885 404.248 205.372 404.339 204.859 404.43C201.248 404.405 197.637 404.381 193.236 404.204C191.956 404.062 191.465 404.072 190.975 404.082C190.975 404.082 190.488 403.986 190.251 403.909C191.608 403.552 193.201 403.028 194.794 403.028C277.671 402.988 360.547 402.991 443.424 403.009C444.736 403.009 446.049 403.247 447.682 403.64C447.59 404.016 447.179 404.125 446.125 404.193C445.275 404.23 445.067 404.311 444.86 404.391C438.922 404.393 432.984 404.396 426.141 404.264C422.115 404.228 418.993 404.326 415.872 404.425C413.905 404.414 411.938 404.403 409.094 404.262C402.435 404.232 396.654 404.332 390.872 404.432C386.262 404.424 381.652 404.416 376.131 404.272C365.103 404.238 354.987 404.339 344.871 404.44C343.554 404.429 342.237 404.418 340.068 404.27C322.769 404.235 306.32 404.336 289.872 404.437C289.186 404.429 288.5 404.42 287.02 404.275C282.108 404.239 277.99 404.339 273.871 404.44C271.248 404.426 268.625 404.411 265.109 404.261C256.435 404.228 248.653 404.329 240.872 404.431Z" fill="#009893"/>
<path d="M371.015 446.616C330.852 446.919 290.532 446.973 250.213 446.992C229.72 447.001 209.227 446.949 188.247 446.857C188.268 446.517 188.777 446.244 190.007 445.987C192.826 445.748 194.924 445.493 197.347 445.188C198.107 445.171 198.543 445.204 199.318 445.47C204.779 445.549 209.899 445.395 215.345 445.191C216.107 445.176 216.543 445.211 217.321 445.48C234.177 445.795 250.693 445.884 267.209 445.927C267.812 445.929 268.415 445.485 269.387 445.198C270.497 445.181 271.238 445.216 272.322 445.482C282.115 445.56 291.566 445.407 301.386 445.202C302.497 445.185 303.24 445.221 304.325 445.487C313.451 445.563 322.235 445.408 331.43 445.201C333.221 445.183 334.601 445.218 336.31 445.481C340.1 445.556 343.56 445.404 347.431 445.199C349.221 445.182 350.601 445.217 352.263 445.469C354.37 445.541 356.196 445.396 358.346 445.201C359.107 445.185 359.543 445.219 360.309 445.481C363.456 445.787 366.273 445.865 369.09 445.943C369.68 446.079 370.27 446.215 371.015 446.616Z" fill="#009893"/>
<path d="M368.223 468.961C314.463 469.06 260.928 469.03 207.394 468.998C201.908 468.994 196.421 468.971 190.466 468.966C188.658 468.203 187.318 467.431 185.784 466.382C192.836 466.736 200.081 467.892 207.33 467.915C260.945 468.082 314.561 468.023 368.656 468.061C368.907 468.335 368.678 468.584 368.223 468.961Z" fill="#009893"/>
<path d="M359.979 445.252C359.543 445.219 359.107 445.185 357.922 445.102C355.442 445.119 353.711 445.186 351.98 445.253C350.6 445.217 349.221 445.182 346.98 445.099C342.738 445.119 339.36 445.186 335.981 445.253C334.601 445.218 333.221 445.183 330.969 445.101C321.392 445.121 312.687 445.188 303.982 445.256C303.24 445.221 302.497 445.185 300.925 445.101C290.724 445.118 281.352 445.184 271.98 445.25C271.238 445.216 270.497 445.181 268.926 445.098C251.058 445.115 234.018 445.18 216.979 445.246C216.543 445.211 216.106 445.176 214.885 445.092C209.06 445.107 204.019 445.172 198.978 445.237C198.542 445.204 198.107 445.171 196.919 445.091C194.134 445.1 192.101 445.158 190.067 445.215C191.755 444.812 193.442 444.057 195.13 444.055C251.268 443.994 307.406 443.999 363.543 444.028C365.171 444.029 366.798 444.382 368.232 444.848C365.352 445.167 362.665 445.21 359.979 445.252Z" fill="#FDFAFB"/>
<path d="M360.309 445.481C362.665 445.21 365.352 445.167 368.482 445.184C368.925 445.243 368.988 445.597 369.039 445.77C366.273 445.865 363.456 445.787 360.309 445.481Z" fill="#2BB5B1"/>
<path d="M190.034 445.395C192.101 445.158 194.134 445.1 196.595 445.14C194.924 445.493 192.826 445.748 190.312 445.964C189.895 445.925 190 445.575 190.034 445.395Z" fill="#2BB5B1"/>
<path d="M450.355 403.088C450.868 402.452 451.711 401.766 452.905 401.07C452.399 401.72 451.542 402.378 450.355 403.088Z" fill="#009893"/>
<path d="M192.928 380.411C192.648 380.71 192.16 380.831 191.296 380.892C190.919 380.832 191.006 380.445 191.055 380.254C191.643 380.119 192.182 380.176 192.928 380.411Z" fill="#88D5D2"/>
<path d="M191.006 404.22C191.466 404.072 191.956 404.062 192.785 404.203C192.629 404.49 192.133 404.625 191.377 404.694C191.116 404.629 191.037 404.358 191.006 404.22Z" fill="#88D5D2"/>
<path d="M369.348 468.117C369.542 467.806 370.051 467.464 370.89 467.152C370.7 467.483 370.182 467.785 369.348 468.117Z" fill="#009893"/>
<path d="M451.967 382.656C451.526 382.734 450.938 382.536 450.209 382.046C450.652 381.962 451.236 382.171 451.967 382.656Z" fill="#009893"/>
<path d="M183.654 449.956C183.714 450.324 183.531 450.8 183.174 451.148C183.137 450.702 183.273 450.383 183.654 449.956Z" fill="#009893"/>
<path d="M187.572 446.746C187.428 447.092 186.978 447.498 186.201 447.915C186.338 447.552 186.802 447.179 187.572 446.746Z" fill="#009893"/>
<path d="M453.351 383.647C453.145 383.743 452.759 383.576 452.194 383.144C452.4 383.048 452.785 383.216 453.351 383.647Z" fill="#009893"/>
<path d="M185.693 447.95C185.746 448.153 185.532 448.442 185.058 448.828C185.008 448.627 185.217 448.332 185.693 447.95Z" fill="#009893"/>
<path d="M371.773 447.056C371.701 447.185 371.43 447.171 371.128 446.979C371.098 446.799 371.574 446.914 371.773 447.056Z" fill="#009893"/>
<path d="M184.656 448.897C184.728 449.106 184.537 449.415 184.091 449.837C184.022 449.633 184.207 449.315 184.656 448.897Z" fill="#009893"/>
<path d="M371.397 467.23C371.358 467.061 371.548 466.842 371.864 466.755C371.991 466.889 371.624 467.178 371.397 467.23Z" fill="#009893"/>
<path d="M186.159 402.317C186.33 402.235 186.631 402.35 187.026 402.71C186.803 402.883 186.526 402.737 186.159 402.317Z" fill="#FDFAFB"/>
<path d="M187.186 403.13C187.374 403.058 187.727 403.237 188.25 403.663C188.063 403.734 187.707 403.558 187.186 403.13Z" fill="#FDFAFB"/>
<path d="M366.804 380.4C364.999 380.688 362.872 380.785 360.309 380.736C362.076 380.462 364.279 380.336 366.804 380.4Z" fill="#88D5D2"/>
<path d="M397.839 380.398C396.657 380.683 395.186 380.781 393.293 380.731C394.431 380.459 395.991 380.335 397.839 380.398Z" fill="#88D5D2"/>
<path d="M414.898 380.414C414.307 380.69 413.483 380.784 412.263 380.734C412.799 380.471 413.731 380.352 414.898 380.414Z" fill="#88D5D2"/>
<path d="M324.019 380.432C323.933 380.655 323.716 380.725 323.174 380.691C323.195 380.484 323.542 380.382 324.019 380.432Z" fill="#88D5D2"/>
<path d="M290.241 404.631C306.32 404.336 322.769 404.235 339.674 404.286C334.043 404.626 327.958 404.942 321.871 404.97C311.451 405.016 301.031 404.882 290.241 404.631Z" fill="#88D5D2"/>
<path d="M345.241 404.633C354.987 404.339 365.103 404.238 375.674 404.29C365.957 404.571 355.784 404.699 345.241 404.633Z" fill="#88D5D2"/>
<path d="M241.241 404.626C248.653 404.329 256.435 404.228 264.672 404.277C257.289 404.559 249.45 404.69 241.241 404.626Z" fill="#88D5D2"/>
<path d="M213.24 404.623C218.987 404.328 225.102 404.23 231.673 404.284C225.955 404.564 219.782 404.692 213.24 404.623Z" fill="#88D5D2"/>
<path d="M391.241 404.627C396.654 404.332 402.435 404.232 408.673 404.281C403.29 404.56 397.449 404.691 391.241 404.627Z" fill="#88D5D2"/>
<path d="M274.235 404.633C277.99 404.339 282.108 404.239 286.678 404.291C282.953 404.572 278.776 404.699 274.235 404.633Z" fill="#88D5D2"/>
<path d="M416.222 404.618C418.993 404.326 422.115 404.228 425.682 404.28C422.943 404.557 419.758 404.684 416.222 404.618Z" fill="#88D5D2"/>
<path d="M205.052 404.602C205.372 404.339 205.885 404.248 206.77 404.296C206.509 404.548 205.877 404.661 205.052 404.602Z" fill="#88D5D2"/>
<path d="M444.994 404.537C445.068 404.311 445.275 404.23 445.806 404.231C445.796 404.436 445.462 404.56 444.994 404.537Z" fill="#88D5D2"/>
<path d="M217.321 445.48C234.018 445.18 251.058 445.115 268.558 445.149C268.415 445.485 267.811 445.929 267.209 445.927C250.693 445.884 234.177 445.795 217.321 445.48Z" fill="#2BB5B1"/>
<path d="M272.322 445.482C281.352 445.184 290.724 445.118 300.556 445.153C291.566 445.407 282.115 445.56 272.322 445.482Z" fill="#2BB5B1"/>
<path d="M304.325 445.487C312.687 445.188 321.392 445.121 330.558 445.153C322.235 445.408 313.451 445.563 304.325 445.487Z" fill="#2BB5B1"/>
<path d="M199.318 445.47C204.019 445.172 209.06 445.107 214.56 445.141C209.899 445.395 204.779 445.549 199.318 445.47Z" fill="#2BB5B1"/>
<path d="M336.31 445.481C339.36 445.186 342.738 445.119 346.568 445.152C343.559 445.404 340.099 445.556 336.31 445.481Z" fill="#2BB5B1"/>
<path d="M352.262 445.469C353.711 445.186 355.443 445.119 357.597 445.151C356.196 445.396 354.37 445.541 352.262 445.469Z" fill="#2BB5B1"/>
</g>
<defs>
<clipPath id="clip0_3_2">
<rect width="1024" height="1024" fill="white"/>
</clipPath>
</defs>
</svg>
