<svg width="43" height="35" viewBox="0 0 43 35" fill="none" xmlns="http://www.w3.org/2000/svg">
<path d="M1.10257 33.3524C1.83762 33.2606 3.52821 32.9114 4.41026 32.2499C5.51283 31.423 6.33975 30.8717 6.89103 30.8717C7.44231 30.8717 7.71795 30.8717 9.3718 31.9742C11.0256 33.0768 12.4039 32.8012 13.2308 32.5255C14.0577 32.2499 15.7115 31.1473 18.1923 31.423C20.6731 31.6986 21.7756 32.8012 22.6026 32.8012C23.4295 32.8012 24.8077 32.8012 25.9103 31.6986C27.0128 30.596 28.1154 30.3204 29.218 31.423C30.3205 32.5255 31.9744 32.8012 32.5256 32.8012C33.0769 32.8012 34.1795 32.8012 36.3846 31.1474C38.5897 29.4937 40.2436 33.3527 42.4487 33.0769" stroke="#275A95"/>
<path d="M10.7528 11.0256C11.8526 9.09615 20.1246 0 20.1246 0V28.9423H8.54765C8.36385 26.921 7.95508 21.9889 8.27201 18.4679C8.54489 15.4359 9.65286 12.9551 10.7528 11.0256Z" fill="url(#paint0_linear_1_2)"/>
<path d="M22.0513 27.2885V5.78845C28.1154 12.4038 32.8013 18.7436 37.2115 24.532C29.2179 24.532 24.9915 26.0021 22.0513 27.2885Z" fill="url(#paint1_linear_1_2)"/>
<path d="M40.2436 29.4936C41.1571 29.4936 41.8974 28.7532 41.8974 27.8397C41.8974 26.9263 41.1571 26.1859 40.2436 26.1859C39.3301 26.1859 38.5898 26.9263 38.5898 27.8397C38.5898 28.7532 39.3301 29.4936 40.2436 29.4936Z" fill="#397DB3"/>
<defs>
<linearGradient id="paint0_linear_1_2" x1="15.4359" y1="-1.3782" x2="20.3974" y2="30.8718" gradientUnits="userSpaceOnUse">
<stop stop-color="#4A97D6"/>
<stop offset="0.53125" stop-color="#399BE6"/>
<stop offset="1" stop-color="#2C79BB"/>
</linearGradient>
<linearGradient id="paint1_linear_1_2" x1="22.0513" y1="4.96153" x2="33.3526" y2="27.5641" gradientUnits="userSpaceOnUse">
<stop stop-color="#3F99DF"/>
<stop offset="0.5" stop-color="#3088D2"/>
<stop offset="1" stop-color="#2B66A1"/>
</linearGradient>
</defs>
</svg>
