<svg width="39" height="31" viewBox="0 0 39 31" fill="none" xmlns="http://www.w3.org/2000/svg">
<path d="M1 30.2499C1.66667 30.1666 3.2 29.8499 4 29.2499C5 28.4999 5.75 27.9999 6.25 27.9999C6.75 27.9999 7 27.9999 8.5 28.9999C10 29.9999 11.25 29.7499 12 29.4999C12.75 29.2499 14.25 28.2499 16.5 28.4999C18.75 28.7499 19.75 29.7499 20.5 29.7499C21.25 29.7499 22.5 29.7499 23.5 28.7499C24.5 27.7499 25.5 27.4999 26.5 28.4999C27.5 29.4999 29 29.7499 29.5 29.7499C30 29.7499 31 29.7499 33 28.25C35 26.7501 36.5 30.2501 38.5 30" stroke="#275A95"/>
<path d="M9.75251 10C10.75 8.25 18.2525 0 18.2525 0V26.25H7.75251C7.58581 24.4167 7.21506 19.9434 7.50251 16.75C7.75001 14 8.75491 11.75 9.75251 10Z" fill="url(#paint0_linear_8_304)"/>
<path d="M20 24.75V5.25C25.5 11.25 29.75 17 33.75 22.25C26.5 22.25 22.6667 23.5833 20 24.75Z" fill="url(#paint1_linear_8_304)"/>
<path d="M36.5 26.75C37.3285 26.75 38 26.0785 38 25.25C38 24.4215 37.3285 23.75 36.5 23.75C35.6715 23.75 35 24.4215 35 25.25C35 26.0785 35.6715 26.75 36.5 26.75Z" fill="#397DB3"/>
<defs>
<linearGradient id="paint0_linear_8_304" x1="14" y1="-1.25" x2="18.5" y2="28" gradientUnits="userSpaceOnUse">
<stop stop-color="#4A97D6"/>
<stop offset="0.53125" stop-color="#399BE6"/>
<stop offset="1" stop-color="#2C79BB"/>
</linearGradient>
<linearGradient id="paint1_linear_8_304" x1="20" y1="4.5" x2="30.25" y2="25" gradientUnits="userSpaceOnUse">
<stop stop-color="#3F99DF"/>
<stop offset="0.5" stop-color="#3088D2"/>
<stop offset="1" stop-color="#2B66A1"/>
</linearGradient>
</defs>
</svg>
