<svg width="150" height="49" viewBox="0 0 150 49" fill="none" xmlns="http://www.w3.org/2000/svg">
<path d="M46.9778 19.7582C46.9778 20.6332 46.7695 21.4196 46.3528 22.1123C45.9414 22.7998 45.3528 23.3416 44.582 23.7374C43.8112 24.128 42.8997 24.3207 41.8528 24.3207C41.22 24.3207 40.5403 24.253 39.8112 24.1124V29.0603C39.8112 29.6514 39.8867 30.1019 40.0403 30.4144C40.1914 30.7217 40.358 30.9249 40.5403 31.0291C40.72 31.1332 40.8112 31.1697 40.8112 31.1436H37.207C37.207 31.1697 37.2955 31.1332 37.4778 31.0291C37.6575 30.9249 37.8216 30.7244 37.9674 30.4249C38.1133 30.1202 38.1862 29.6645 38.1862 29.0603V17.6957C38.1862 17.0915 38.1133 16.6332 37.9674 16.3207C37.8216 16.003 37.6575 15.7869 37.4778 15.6749C37.2955 15.5577 37.207 15.5134 37.207 15.5394H41.6549C42.4258 15.5394 43.056 15.5915 43.5508 15.6957C44.0508 15.7946 44.4909 15.9405 44.8737 16.1332C45.5534 16.4821 46.0742 16.9848 46.4362 17.6436C46.7955 18.2973 46.9778 19.003 46.9778 19.7582ZM45.2383 20.0498C45.2383 18.9821 44.9049 18.1123 44.2383 17.4457C43.5716 16.779 42.6862 16.4457 41.582 16.4457H39.8112V23.2269C40.4622 23.3519 41.1445 23.4144 41.8528 23.4144C42.9153 23.4144 43.7435 23.1098 44.3424 22.4978C44.9388 21.8806 45.2383 21.0655 45.2383 20.0498Z" fill="white"/>
<path d="M55.435 31.4144C54.9555 31.3988 54.5495 31.2712 54.216 31.029C53.883 30.7868 53.69 30.5082 53.643 30.1957C53.3725 30.5863 53.013 30.8884 52.5705 31.1019C52.125 31.3102 51.685 31.4144 51.2475 31.4144C50.5445 31.4144 49.9584 31.2165 49.487 30.8207C49.0209 30.4196 48.7891 29.891 48.7891 29.2373C48.7891 27.5576 50.362 26.7165 53.508 26.7165V26.4769C53.508 25.6436 53.3855 25.029 53.143 24.6332C52.815 24.0785 52.2735 23.7998 51.518 23.7998C50.927 23.7998 50.4375 23.9743 50.0495 24.3207C49.6667 24.6696 49.4766 25.1201 49.4766 25.6748C49.3854 25.529 49.3125 25.3988 49.2578 25.279C49.2084 25.154 49.1849 24.9847 49.1849 24.7686C49.1849 24.2269 49.4401 23.7477 49.9558 23.3311C50.4685 22.9144 51.138 22.7061 51.966 22.7061C53.146 22.7061 53.987 23.0993 54.487 23.8832C54.6535 24.128 54.7735 24.4326 54.8515 24.7998C54.927 25.1618 54.966 25.6384 54.966 26.2269V28.9248C54.966 29.391 55.0965 29.753 55.362 30.0082C55.625 30.266 55.9975 30.3936 56.4765 30.3936H56.7785L55.435 31.4144ZM53.508 27.404C52.2995 27.404 51.482 27.5576 51.06 27.8623C50.6355 28.1618 50.4245 28.5681 50.4245 29.0811C50.4245 29.5056 50.539 29.8389 50.768 30.0811C50.9975 30.3259 51.2995 30.4457 51.6745 30.4457C51.9585 30.4457 52.229 30.378 52.487 30.2373C52.742 30.0993 52.961 29.9092 53.143 29.6644C53.3855 29.3519 53.508 28.9222 53.508 28.3727V27.404Z" fill="white"/>
<path d="M60.036 24.2477C60.39 23.7842 60.8015 23.4118 61.2755 23.1332C61.7545 22.8493 62.257 22.7061 62.786 22.7061C63.5985 22.7061 64.2495 22.9665 64.744 23.4873C65.2365 24.0082 65.4835 24.7634 65.4835 25.7477V28.8936C65.4835 29.5342 65.549 30.0186 65.6815 30.3519C65.8195 30.6852 65.9735 30.9144 66.14 31.0394C66.3065 31.1566 66.39 31.1905 66.39 31.1436H63.1295C63.1295 31.1905 63.2075 31.1592 63.369 31.0498C63.536 30.9326 63.687 30.7061 63.8275 30.3727C63.9655 30.0394 64.036 29.5394 64.036 28.8727V26.2894C64.036 25.7764 63.9655 25.3701 63.8275 25.0707C63.687 24.766 63.507 24.516 63.286 24.3207C62.937 24.029 62.52 23.8832 62.036 23.8832C61.494 23.8832 61.0255 24.0655 60.6295 24.4248C60.2335 24.779 60.036 25.2738 60.036 25.904V28.8727C60.036 29.5264 60.1035 30.0186 60.244 30.3519C60.382 30.6852 60.5385 30.9144 60.713 31.0394C60.885 31.1566 60.9735 31.1905 60.9735 31.1436H57.7025C57.7025 31.1905 57.786 31.1592 57.9525 31.0498C58.119 30.9326 58.265 30.7035 58.39 30.3623C58.52 30.0238 58.588 29.5264 58.588 28.8727V25.4561C58.588 24.8181 58.4835 24.3832 58.2755 24.154C58.0725 23.9196 57.843 23.7998 57.588 23.7998L60.036 22.7061V24.2477Z" fill="white"/>
<path d="M75.0265 31.4144C74.5475 31.3988 74.1415 31.2712 73.808 31.029C73.4745 30.7868 73.282 30.5082 73.235 30.1957C72.964 30.5863 72.605 30.8884 72.162 31.1019C71.717 31.3102 71.2765 31.4144 70.839 31.4144C70.136 31.4144 69.55 31.2165 69.079 30.8207C68.6125 30.4196 68.381 29.891 68.381 29.2373C68.381 27.5576 69.954 26.7165 73.0995 26.7165V26.4769C73.0995 25.6436 72.977 25.029 72.735 24.6332C72.407 24.0785 71.865 23.7998 71.11 23.7998C70.519 23.7998 70.0295 23.9743 69.6415 24.3207C69.2585 24.6696 69.0685 25.1201 69.0685 25.6748C68.977 25.529 68.9045 25.3988 68.8495 25.279C68.8 25.154 68.7765 24.9847 68.7765 24.7686C68.7765 24.2269 69.032 23.7477 69.5475 23.3311C70.0605 22.9144 70.73 22.7061 71.558 22.7061C72.7375 22.7061 73.579 23.0993 74.079 23.8832C74.2455 24.128 74.365 24.4326 74.4435 24.7998C74.519 25.1618 74.558 25.6384 74.558 26.2269V28.9248C74.558 29.391 74.688 29.753 74.954 30.0082C75.217 30.266 75.589 30.3936 76.0685 30.3936H76.3705L75.0265 31.4144ZM73.0995 27.404C71.8915 27.404 71.0735 27.5576 70.6515 27.8623C70.227 28.1618 70.0165 28.5681 70.0165 29.0811C70.0165 29.5056 70.131 29.8389 70.36 30.0811C70.589 30.3259 70.8915 30.4457 71.2665 30.4457C71.55 30.4457 71.821 30.378 72.079 30.2373C72.334 30.0993 72.5525 29.9092 72.735 29.6644C72.977 29.3519 73.0995 28.9222 73.0995 28.3727V27.404Z" fill="white"/>
<path d="M78.1805 17.1957C78.1805 16.5655 78.076 16.1306 77.868 15.8936C77.6645 15.6592 77.4355 15.5394 77.1805 15.5394H77.045L79.6285 14.3623V28.8727C79.6285 29.5394 79.696 30.0394 79.8365 30.3727C79.9745 30.7061 80.1285 30.9326 80.295 31.0498C80.4615 31.1592 80.545 31.1905 80.545 31.1436H77.274C77.274 31.1905 77.3575 31.1592 77.524 31.0498C77.691 30.9326 77.839 30.7035 77.972 30.3623C78.11 30.0238 78.1805 29.5264 78.1805 28.8727V17.1957Z" fill="white"/>
<path d="M82.3535 27.2686C82.3535 26.4847 82.5435 25.7425 82.9265 25.0394C83.3145 24.3311 83.8485 23.766 84.5305 23.3415C85.2105 22.9196 85.968 22.7061 86.8015 22.7061C87.5985 22.7061 88.3225 22.8936 88.968 23.2686C89.619 23.6384 90.1295 24.141 90.4995 24.779C90.8745 25.4118 91.062 26.1071 91.062 26.8623C91.062 27.6488 90.8665 28.391 90.4785 29.0915C90.0955 29.7946 89.5645 30.3571 88.885 30.779C88.2025 31.2009 87.4475 31.4144 86.614 31.4144C85.8145 31.4144 85.088 31.2295 84.437 30.8623C83.791 30.4873 83.2805 29.9847 82.9055 29.3519C82.536 28.7217 82.3535 28.0264 82.3535 27.2686ZM89.4265 27.5186C89.4265 26.8806 89.304 26.253 89.062 25.6332C88.825 25.016 88.4835 24.5134 88.041 24.1227C87.6035 23.7269 87.0985 23.529 86.5305 23.529C85.7235 23.529 85.0985 23.8311 84.6555 24.4352C84.2105 25.0394 83.989 25.766 83.989 26.6123C83.989 27.2451 84.106 27.8727 84.343 28.4977C84.5855 29.1175 84.9265 29.6227 85.364 30.0186C85.8065 30.4092 86.3145 30.6019 86.885 30.6019C87.6895 30.6019 88.3145 30.2998 88.76 29.6957C89.2025 29.0915 89.4265 28.3675 89.4265 27.5186Z" fill="white"/>
<path d="M101.02 22.8936V23.7998H99.135C99.6765 24.4613 99.9475 25.141 99.9475 25.8415C99.9475 26.4248 99.804 26.9717 99.52 27.4769C99.2335 27.9847 98.8225 28.391 98.2805 28.6957C97.744 28.9951 97.1245 29.1436 96.416 29.1436C96.046 29.1436 95.6815 29.1175 95.3225 29.0602C94.7805 29.3597 94.51 29.7009 94.51 30.0811C94.51 30.2269 94.546 30.3701 94.6245 30.5082C94.7 30.6488 94.812 30.7451 94.9575 30.7998C95.171 30.891 95.4475 30.9561 95.7805 30.9977C96.114 31.0342 96.4605 31.0602 96.8225 31.0811C97.1815 31.0967 97.4395 31.1019 97.593 31.1019C98.773 31.1436 99.6085 31.3675 100.104 31.779C100.604 32.1879 100.854 32.6774 100.854 33.2477C100.854 33.8571 100.658 34.4144 100.27 34.9144C99.8875 35.4196 99.3325 35.8207 98.6035 36.1123C97.8795 36.4092 97.0435 36.5602 96.093 36.5602C95.398 36.5602 94.7935 36.4613 94.2805 36.2686C93.765 36.0733 93.3745 35.8155 93.1035 35.4977C92.8325 35.1774 92.6975 34.8363 92.6975 34.4769C92.6975 33.9899 92.9005 33.5394 93.312 33.1227C93.7285 32.7113 94.2495 32.3988 94.8745 32.1852C94.3745 32.1566 93.9735 31.9899 93.6765 31.6852C93.385 31.3858 93.239 31.0655 93.239 30.7165C93.239 30.3363 93.3665 30.0056 93.6245 29.7269C93.8795 29.4509 94.252 29.1514 94.739 28.8311C94.1895 28.5889 93.77 28.2113 93.4785 27.6957C93.192 27.1826 93.0515 26.6384 93.0515 26.0602C93.0515 25.5056 93.1895 24.9717 93.468 24.4561C93.752 23.9431 94.1685 23.5238 94.718 23.1957C95.273 22.8701 95.929 22.7061 96.687 22.7061C97.075 22.7061 97.481 22.7686 97.9055 22.8936H101.02ZM96.437 23.529C95.8745 23.529 95.411 23.7321 95.0515 24.1332C94.6895 24.529 94.51 25.0368 94.51 25.654C94.51 26.4248 94.7075 27.0576 95.1035 27.5498C95.5045 28.0446 95.994 28.2894 96.5725 28.2894C97.1765 28.2894 97.648 28.0889 97.989 27.6852C98.3275 27.2842 98.4995 26.753 98.4995 26.0915C98.4995 25.3363 98.296 24.7217 97.895 24.2477C97.4995 23.7686 97.0125 23.529 96.437 23.529ZM96.0515 32.4561C95.489 32.4561 95.0305 32.628 94.6765 32.9769C94.3225 33.3233 94.145 33.7087 94.145 34.1332C94.145 34.542 94.3745 34.8936 94.8325 35.1852C95.296 35.4821 95.916 35.6332 96.687 35.6332C97.6085 35.6332 98.3225 35.4587 98.8225 35.1123C99.3275 34.7634 99.5825 34.3337 99.5825 33.8207C99.5825 33.3675 99.338 33.029 98.8535 32.7998C98.3745 32.5707 97.5985 32.4561 96.5305 32.4561H96.0515Z" fill="white"/>
<path d="M105.483 30.4665L102.827 24.4561C102.569 23.8806 102.321 23.4847 102.087 23.2686C101.858 23.0472 101.673 22.9222 101.535 22.8936H104.848C104.707 22.9222 104.569 22.9873 104.431 23.0915C104.298 23.1957 104.233 23.3884 104.233 23.6644C104.233 23.9222 104.308 24.2061 104.462 24.5186L106.296 28.7582L107.931 24.7477C108.035 24.4769 108.087 24.2009 108.087 23.9144C108.087 23.6384 108.03 23.4092 107.921 23.2269C107.809 23.0472 107.623 22.9352 107.368 22.8936H110.399C110.233 22.9222 110.017 23.0498 109.754 23.279C109.488 23.503 109.228 23.9222 108.973 24.5394L105.89 31.7061C105.478 32.6644 105.176 33.417 104.983 33.9665C104.788 34.5134 104.601 35.0837 104.421 35.6748C104.343 35.9665 104.267 36.2087 104.191 36.404H101.879C102.28 36.2087 102.78 35.6566 103.379 34.7477C103.975 33.8441 104.593 32.6175 105.233 31.0707L105.483 30.4665Z" fill="white"/>
<path d="M119.183 17.6539C119.183 17.0497 119.11 16.5914 118.964 16.2789C118.818 15.9664 118.653 15.7581 118.474 15.6539C118.291 15.5497 118.203 15.5133 118.203 15.5393H121.808C121.808 15.5133 121.716 15.5497 121.536 15.6539C121.354 15.7581 121.187 15.9664 121.036 16.2789C120.883 16.5914 120.808 17.0497 120.808 17.6539V30.2372H124.526C125.206 30.2372 125.791 30.0992 126.286 29.8206C126.778 29.5367 127.13 29.1747 127.339 28.7372L126.933 31.1435H118.203C118.203 31.1904 118.291 31.1591 118.474 31.0497C118.653 30.9325 118.818 30.7034 118.964 30.3622C119.11 30.0237 119.183 29.5263 119.183 28.8726V17.6539Z" fill="white"/>
<path d="M135.478 31.4144C134.998 31.3988 134.593 31.2712 134.259 31.029C133.926 30.7868 133.733 30.5082 133.686 30.1957C133.416 30.5863 133.056 30.8884 132.613 31.1019C132.168 31.3102 131.728 31.4144 131.29 31.4144C130.587 31.4144 130.001 31.2165 129.53 30.8207C129.064 30.4196 128.832 29.891 128.832 29.2373C128.832 27.5576 130.405 26.7165 133.551 26.7165V26.4769C133.551 25.6436 133.429 25.029 133.186 24.6332C132.858 24.0785 132.317 23.7998 131.561 23.7998C130.97 23.7998 130.48 23.9743 130.092 24.3207C129.709 24.6696 129.52 25.1201 129.52 25.6748C129.429 25.529 129.355 25.3988 129.301 25.279C129.251 25.154 129.228 24.9847 129.228 24.7686C129.228 24.2269 129.483 23.7477 129.999 23.3311C130.512 22.9144 131.181 22.7061 132.009 22.7061C133.189 22.7061 134.03 23.0993 134.53 23.8832C134.696 24.128 134.817 24.4326 134.895 24.7998C134.97 25.1618 135.009 25.6384 135.009 26.2269V28.9248C135.009 29.391 135.139 29.753 135.405 30.0082C135.668 30.266 136.041 30.3936 136.52 30.3936H136.822L135.478 31.4144ZM133.551 27.404C132.342 27.404 131.524 27.5576 131.103 27.8623C130.678 28.1618 130.467 28.5681 130.467 29.0811C130.467 29.5056 130.582 29.8389 130.811 30.0811C131.041 30.3259 131.342 30.4457 131.717 30.4457C132.001 30.4457 132.272 30.378 132.53 30.2373C132.785 30.0993 133.004 29.9092 133.186 29.6644C133.429 29.3519 133.551 28.9222 133.551 28.3727V27.404Z" fill="white"/>
<path d="M138.632 17.1957C138.632 16.5655 138.528 16.1306 138.319 15.8936C138.116 15.6592 137.887 15.5394 137.632 15.5394H137.496L140.079 14.3623V24.1852C140.267 23.8806 140.595 23.5576 141.069 23.2165C141.548 22.878 142.173 22.7061 142.944 22.7061C143.611 22.7061 144.207 22.8727 144.736 23.2061C145.262 23.5394 145.676 24.003 145.975 24.5915C146.28 25.1826 146.434 25.8389 146.434 26.5602C146.434 27.4847 146.241 28.305 145.861 29.0186C145.486 29.7269 144.996 30.2946 144.392 30.7165C143.709 31.18 142.939 31.4144 142.079 31.4144C141.475 31.4144 140.832 31.2842 140.152 31.029C139.832 30.9118 139.59 30.8519 139.423 30.8519C139.166 30.8519 138.903 31.003 138.632 31.2998V17.1957ZM140.079 28.3727C140.079 28.8597 140.132 29.2556 140.236 29.5602C140.345 29.8597 140.53 30.0863 140.788 30.2373C141.163 30.4821 141.645 30.6019 142.236 30.6019C142.965 30.6019 143.572 30.2972 144.059 29.6852C144.551 29.0681 144.798 28.2556 144.798 27.2477C144.798 26.2894 144.574 25.4613 144.132 24.7582C143.686 24.0576 143.041 23.7061 142.194 23.7061C141.874 23.7061 141.548 23.7946 141.215 23.9665C140.881 24.141 140.605 24.3806 140.392 24.6852C140.183 24.9847 140.079 25.3259 140.079 25.7061V28.3727Z" fill="white"/>
<path d="M3.5 39.7499C4.16667 39.6666 5.7 39.3499 6.5 38.7499C7.5 37.9999 8.25 37.4999 8.75 37.4999C9.25 37.4999 9.5 37.4999 11 38.4999C12.5 39.4999 13.75 39.2499 14.5 38.9999C15.25 38.7499 16.75 37.7499 19 37.9999C21.25 38.2499 22.25 39.2499 23 39.2499C23.75 39.2499 25 39.2499 26 38.2499C27 37.2499 28 36.9999 29 37.9999C30 38.9999 31.5 39.2499 32 39.2499C32.5 39.2499 33.5 39.2499 35.5 37.75C37.5 36.2501 39 39.7501 41 39.5" stroke="white"/>
<path d="M12.2525 19.5C13.25 17.75 20.7525 9.5 20.7525 9.5V35.75H10.2525C10.0858 33.9167 9.71506 29.4434 10.0025 26.25C10.25 23.5 11.255 21.25 12.2525 19.5Z" fill="url(#paint0_linear_3_234)"/>
<path d="M22.5 34.25V14.75C28 20.75 32.25 26.5 36.25 31.75C29 31.75 25.1667 33.0833 22.5 34.25Z" fill="url(#paint1_linear_3_234)"/>
<path d="M39 36.25C39.8285 36.25 40.5 35.5785 40.5 34.75C40.5 33.9215 39.8285 33.25 39 33.25C38.1715 33.25 37.5 33.9215 37.5 34.75C37.5 35.5785 38.1715 36.25 39 36.25Z" fill="white"/>
<defs>
<linearGradient id="paint0_linear_3_234" x1="16.5" y1="8.25" x2="21" y2="37.5" gradientUnits="userSpaceOnUse">
<stop stop-color="white"/>
<stop offset="0.0001" stop-color="white"/>
<stop offset="1" stop-color="white"/>
</linearGradient>
<linearGradient id="paint1_linear_3_234" x1="22.5" y1="14" x2="32.75" y2="34.5" gradientUnits="userSpaceOnUse">
<stop stop-color="white"/>
<stop offset="0.5" stop-color="white"/>
<stop offset="1" stop-color="white"/>
</linearGradient>
</defs>
</svg>
