<svg width="300" height="98" viewBox="0 0 300 98" fill="none" xmlns="http://www.w3.org/2000/svg">
<path d="M93.9557 39.5164C93.9557 41.2664 93.5391 42.8393 92.7057 44.2247C91.8828 45.5997 90.7057 46.6831 89.1641 47.4747C87.6224 48.256 85.7995 48.6414 83.7057 48.6414C82.4401 48.6414 81.0807 48.506 79.6224 48.2247V58.1206C79.6224 59.3028 79.7734 60.2039 80.0807 60.8289C80.3828 61.4435 80.7161 61.8497 81.0807 62.0581C81.4401 62.2664 81.6224 62.3393 81.6224 62.2872H74.4141C74.4141 62.3393 74.5911 62.2664 74.9557 62.0581C75.3151 61.8497 75.6432 61.4487 75.9349 60.8497C76.2266 60.2403 76.3724 59.3289 76.3724 58.1206V35.3914C76.3724 34.1831 76.2266 33.2664 75.9349 32.6414C75.6432 32.006 75.3151 31.5737 74.9557 31.3497C74.5911 31.1153 74.4141 31.0268 74.4141 31.0789H83.3099C84.8516 31.0789 86.112 31.1831 87.1016 31.3914C88.1016 31.5893 88.9818 31.881 89.7474 32.2664C91.1068 32.9643 92.1484 33.9695 92.8724 35.2872C93.5911 36.5945 93.9557 38.006 93.9557 39.5164ZM90.4766 40.0997C90.4766 37.9643 89.8099 36.2247 88.4766 34.8914C87.1432 33.5581 85.3724 32.8914 83.1641 32.8914H79.6224V46.4539C80.9245 46.7039 82.2891 46.8289 83.7057 46.8289C85.8307 46.8289 87.487 46.2195 88.6849 44.9956C89.8776 43.7612 90.4766 42.131 90.4766 40.0997Z" fill="white"/>
<path d="M110.87 62.8288C109.911 62.7975 109.099 62.5423 108.432 62.0579C107.766 61.5736 107.38 61.0163 107.286 60.3913C106.745 61.1725 106.026 61.7767 105.141 62.2038C104.25 62.6204 103.37 62.8288 102.495 62.8288C101.089 62.8288 99.9167 62.4329 98.974 61.6413C98.0417 60.8392 97.5781 59.7819 97.5781 58.4746C97.5781 55.1152 100.724 53.4329 107.016 53.4329V52.9538C107.016 51.2871 106.771 50.0579 106.286 49.2663C105.63 48.1569 104.547 47.5996 103.036 47.5996C101.854 47.5996 100.875 47.9486 100.099 48.6413C99.3333 49.3392 98.9531 50.2402 98.9531 51.3496C98.7708 51.0579 98.625 50.7975 98.5156 50.5579C98.4167 50.3079 98.3698 49.9694 98.3698 49.5371C98.3698 48.4538 98.8802 47.4954 99.9115 46.6621C100.937 45.8288 102.276 45.4121 103.932 45.4121C106.292 45.4121 107.974 46.1986 108.974 47.7663C109.307 48.2559 109.547 48.8652 109.703 49.5996C109.854 50.3236 109.932 51.2767 109.932 52.4538V57.8496C109.932 58.7819 110.193 59.5059 110.724 60.0163C111.25 60.5319 111.995 60.7871 112.953 60.7871H113.557L110.87 62.8288ZM107.016 54.8079C104.599 54.8079 102.964 55.1152 102.12 55.7246C101.271 56.3236 100.849 57.1361 100.849 58.1621C100.849 59.0111 101.078 59.6777 101.536 60.1621C101.995 60.6517 102.599 60.8913 103.349 60.8913C103.917 60.8913 104.458 60.7559 104.974 60.4746C105.484 60.1986 105.922 59.8184 106.286 59.3288C106.771 58.7038 107.016 57.8444 107.016 56.7454V54.8079Z" fill="white"/>
<path d="M120.072 48.4954C120.78 47.5684 121.603 46.8236 122.551 46.2663C123.509 45.6986 124.514 45.4121 125.572 45.4121C127.197 45.4121 128.499 45.9329 129.488 46.9746C130.473 48.0163 130.967 49.5267 130.967 51.4954V57.7871C130.967 59.0684 131.098 60.0371 131.363 60.7038C131.639 61.3704 131.947 61.8288 132.28 62.0788C132.613 62.3132 132.78 62.3809 132.78 62.2871H126.259C126.259 62.3809 126.415 62.3184 126.738 62.0996C127.072 61.8652 127.374 61.4121 127.655 60.7454C127.931 60.0788 128.072 59.0788 128.072 57.7454V52.5788C128.072 51.5527 127.931 50.7402 127.655 50.1413C127.374 49.5319 127.014 49.0319 126.572 48.6413C125.874 48.0579 125.04 47.7663 124.072 47.7663C122.988 47.7663 122.051 48.1309 121.259 48.8496C120.467 49.5579 120.072 50.5475 120.072 51.8079V57.7454C120.072 59.0527 120.207 60.0371 120.488 60.7038C120.764 61.3704 121.077 61.8288 121.426 62.0788C121.77 62.3132 121.947 62.3809 121.947 62.2871H115.405C115.405 62.3809 115.572 62.3184 115.905 62.0996C116.238 61.8652 116.53 61.4069 116.78 60.7246C117.04 60.0475 117.176 59.0527 117.176 57.7454V50.9121C117.176 49.6361 116.967 48.7663 116.551 48.3079C116.145 47.8392 115.686 47.5996 115.176 47.5996L120.072 45.4121V48.4954Z" fill="white"/>
<path d="M150.053 62.8288C149.095 62.7975 148.283 62.5423 147.616 62.0579C146.949 61.5736 146.564 61.0163 146.47 60.3913C145.928 61.1725 145.21 61.7767 144.324 62.2038C143.434 62.6204 142.553 62.8288 141.678 62.8288C140.272 62.8288 139.1 62.4329 138.158 61.6413C137.225 60.8392 136.762 59.7819 136.762 58.4746C136.762 55.1152 139.908 53.4329 146.199 53.4329V52.9538C146.199 51.2871 145.954 50.0579 145.47 49.2663C144.814 48.1569 143.73 47.5996 142.22 47.5996C141.038 47.5996 140.059 47.9486 139.283 48.6413C138.517 49.3392 138.137 50.2402 138.137 51.3496C137.954 51.0579 137.809 50.7975 137.699 50.5579C137.6 50.3079 137.553 49.9694 137.553 49.5371C137.553 48.4538 138.064 47.4954 139.095 46.6621C140.121 45.8288 141.46 45.4121 143.116 45.4121C145.475 45.4121 147.158 46.1986 148.158 47.7663C148.491 48.2559 148.73 48.8652 148.887 49.5996C149.038 50.3236 149.116 51.2767 149.116 52.4538V57.8496C149.116 58.7819 149.376 59.5059 149.908 60.0163C150.434 60.5319 151.178 60.7871 152.137 60.7871H152.741L150.053 62.8288ZM146.199 54.8079C143.783 54.8079 142.147 55.1152 141.303 55.7246C140.454 56.3236 140.033 57.1361 140.033 58.1621C140.033 59.0111 140.262 59.6777 140.72 60.1621C141.178 60.6517 141.783 60.8913 142.533 60.8913C143.1 60.8913 143.642 60.7559 144.158 60.4746C144.668 60.1986 145.105 59.8184 145.47 59.3288C145.954 58.7038 146.199 57.8444 146.199 56.7454V54.8079Z" fill="white"/>
<path d="M156.361 34.3913C156.361 33.1309 156.152 32.2611 155.736 31.7871C155.329 31.3184 154.871 31.0788 154.361 31.0788H154.09L159.257 28.7246V57.7454C159.257 59.0788 159.392 60.0788 159.673 60.7454C159.949 61.4121 160.257 61.8652 160.59 62.0996C160.923 62.3184 161.09 62.3809 161.09 62.2871H154.548C154.548 62.3809 154.715 62.3184 155.048 62.0996C155.382 61.8652 155.678 61.4069 155.944 60.7246C156.22 60.0475 156.361 59.0527 156.361 57.7454V34.3913Z" fill="white"/>
<path d="M164.707 54.5371C164.707 52.9694 165.087 51.485 165.853 50.0788C166.629 48.6621 167.697 47.5319 169.061 46.6829C170.421 45.8392 171.936 45.4121 173.603 45.4121C175.197 45.4121 176.645 45.7871 177.936 46.5371C179.238 47.2767 180.259 48.2819 180.999 49.5579C181.749 50.8236 182.124 52.2142 182.124 53.7246C182.124 55.2975 181.733 56.7819 180.957 58.1829C180.191 59.5892 179.129 60.7142 177.77 61.5579C176.405 62.4017 174.895 62.8288 173.228 62.8288C171.629 62.8288 170.176 62.459 168.874 61.7246C167.582 60.9746 166.561 59.9694 165.811 58.7038C165.072 57.4434 164.707 56.0527 164.707 54.5371ZM178.853 55.0371C178.853 53.7611 178.608 52.5059 178.124 51.2663C177.65 50.0319 176.967 49.0267 176.082 48.2454C175.207 47.4538 174.197 47.0579 173.061 47.0579C171.447 47.0579 170.197 47.6621 169.311 48.8704C168.421 50.0788 167.978 51.5319 167.978 53.2246C167.978 54.4902 168.212 55.7454 168.686 56.9954C169.171 58.235 169.853 59.2454 170.728 60.0371C171.613 60.8184 172.629 61.2038 173.77 61.2038C175.379 61.2038 176.629 60.5996 177.52 59.3913C178.405 58.1829 178.853 56.735 178.853 55.0371Z" fill="white"/>
<path d="M202.04 45.7871V47.5996H198.27C199.353 48.9225 199.895 50.2819 199.895 51.6829C199.895 52.8496 199.608 53.9434 199.04 54.9538C198.467 55.9694 197.645 56.7819 196.561 57.3913C195.488 57.9902 194.249 58.2871 192.832 58.2871C192.092 58.2871 191.363 58.235 190.645 58.1204C189.561 58.7194 189.02 59.4017 189.02 60.1621C189.02 60.4538 189.092 60.7402 189.249 61.0163C189.4 61.2975 189.624 61.4902 189.915 61.5996C190.342 61.7819 190.895 61.9121 191.561 61.9954C192.228 62.0684 192.921 62.1204 193.645 62.1621C194.363 62.1934 194.879 62.2038 195.186 62.2038C197.546 62.2871 199.217 62.735 200.207 63.5579C201.207 64.3757 201.707 65.3548 201.707 66.4954C201.707 67.7142 201.316 68.8288 200.54 69.8288C199.775 70.8392 198.665 71.6413 197.207 72.2246C195.759 72.8184 194.087 73.1204 192.186 73.1204C190.796 73.1204 189.587 72.9225 188.561 72.5371C187.53 72.1465 186.749 71.6309 186.207 70.9954C185.665 70.3548 185.395 69.6725 185.395 68.9538C185.395 67.9798 185.801 67.0788 186.624 66.2454C187.457 65.4225 188.499 64.7975 189.749 64.3704C188.749 64.3132 187.947 63.9798 187.353 63.3704C186.77 62.7715 186.478 62.1309 186.478 61.4329C186.478 60.6725 186.733 60.0111 187.249 59.4538C187.759 58.9017 188.504 58.3027 189.478 57.6621C188.379 57.1777 187.54 56.4225 186.957 55.3913C186.384 54.3652 186.103 53.2767 186.103 52.1204C186.103 51.0111 186.379 49.9434 186.936 48.9121C187.504 47.8861 188.337 47.0475 189.436 46.3913C190.546 45.7402 191.858 45.4121 193.374 45.4121C194.15 45.4121 194.962 45.5371 195.811 45.7871H202.04ZM192.874 47.0579C191.749 47.0579 190.822 47.4642 190.103 48.2663C189.379 49.0579 189.02 50.0736 189.02 51.3079C189.02 52.8496 189.415 54.1152 190.207 55.0996C191.009 56.0892 191.988 56.5788 193.145 56.5788C194.353 56.5788 195.296 56.1777 195.978 55.3704C196.655 54.5684 196.999 53.5059 196.999 52.1829C196.999 50.6725 196.592 49.4434 195.79 48.4954C194.999 47.5371 194.025 47.0579 192.874 47.0579ZM192.103 64.9121C190.978 64.9121 190.061 65.2559 189.353 65.9538C188.645 66.6465 188.29 67.4173 188.29 68.2663C188.29 69.084 188.749 69.7871 189.665 70.3704C190.592 70.9642 191.832 71.2663 193.374 71.2663C195.217 71.2663 196.645 70.9173 197.645 70.2246C198.655 69.5267 199.165 68.6673 199.165 67.6413C199.165 66.735 198.676 66.0579 197.707 65.5996C196.749 65.1413 195.197 64.9121 193.061 64.9121H192.103Z" fill="white"/>
<path d="M210.966 60.9329L205.654 48.9121C205.138 47.7611 204.643 46.9694 204.174 46.5371C203.716 46.0944 203.346 45.8444 203.07 45.7871H209.695C209.414 45.8444 209.138 45.9746 208.862 46.1829C208.596 46.3913 208.466 46.7767 208.466 47.3288C208.466 47.8444 208.617 48.4121 208.924 49.0371L212.591 57.5163L215.862 49.4954C216.07 48.9538 216.174 48.4017 216.174 47.8288C216.174 47.2767 216.06 46.8184 215.841 46.4538C215.617 46.0944 215.247 45.8704 214.737 45.7871H220.799C220.466 45.8444 220.034 46.0996 219.508 46.5579C218.977 47.0059 218.456 47.8444 217.945 49.0788L211.779 63.4121C210.956 65.3288 210.352 66.834 209.966 67.9329C209.576 69.0267 209.201 70.1673 208.841 71.3496C208.685 71.9329 208.534 72.4173 208.383 72.8079H203.758C204.56 72.4173 205.56 71.3132 206.758 69.4954C207.951 67.6882 209.185 65.235 210.466 62.1413L210.966 60.9329Z" fill="white"/>
<path d="M238.365 35.3078C238.365 34.0995 238.219 33.1828 237.927 32.5578C237.635 31.9328 237.307 31.5162 236.948 31.3078C236.583 31.0995 236.406 31.0266 236.406 31.0787H243.615C243.615 31.0266 243.432 31.0995 243.073 31.3078C242.708 31.5162 242.375 31.9328 242.073 32.5578C241.766 33.1828 241.615 34.0995 241.615 35.3078V60.4745H249.052C250.411 60.4745 251.583 60.1985 252.573 59.6412C253.557 59.0735 254.26 58.3495 254.677 57.4745L253.865 62.287H236.406C236.406 62.3808 236.583 62.3183 236.948 62.0995C237.307 61.8651 237.635 61.4068 237.927 60.7245C238.219 60.0474 238.365 59.0526 238.365 57.7453V35.3078Z" fill="white"/>
<path d="M270.956 62.8288C269.997 62.7975 269.185 62.5423 268.518 62.0579C267.852 61.5736 267.466 61.0163 267.372 60.3913C266.831 61.1725 266.112 61.7767 265.227 62.2038C264.336 62.6204 263.456 62.8288 262.581 62.8288C261.174 62.8288 260.003 62.4329 259.06 61.6413C258.128 60.8392 257.664 59.7819 257.664 58.4746C257.664 55.1152 260.81 53.4329 267.102 53.4329V52.9538C267.102 51.2871 266.857 50.0579 266.372 49.2663C265.716 48.1569 264.633 47.5996 263.122 47.5996C261.94 47.5996 260.961 47.9486 260.185 48.6413C259.419 49.3392 259.039 50.2402 259.039 51.3496C258.857 51.0579 258.711 50.7975 258.602 50.5579C258.503 50.3079 258.456 49.9694 258.456 49.5371C258.456 48.4538 258.966 47.4954 259.997 46.6621C261.023 45.8288 262.362 45.4121 264.018 45.4121C266.378 45.4121 268.06 46.1986 269.06 47.7663C269.393 48.2559 269.633 48.8652 269.789 49.5996C269.94 50.3236 270.018 51.2767 270.018 52.4538V57.8496C270.018 58.7819 270.279 59.5059 270.81 60.0163C271.336 60.5319 272.081 60.7871 273.039 60.7871H273.643L270.956 62.8288ZM267.102 54.8079C264.685 54.8079 263.049 55.1152 262.206 55.7246C261.357 56.3236 260.935 57.1361 260.935 58.1621C260.935 59.0111 261.164 59.6777 261.622 60.1621C262.081 60.6517 262.685 60.8913 263.435 60.8913C264.003 60.8913 264.544 60.7559 265.06 60.4746C265.57 60.1986 266.008 59.8184 266.372 59.3288C266.857 58.7038 267.102 57.8444 267.102 56.7454V54.8079Z" fill="white"/>
<path d="M277.263 34.3913C277.263 33.1309 277.055 32.2611 276.638 31.7871C276.232 31.3184 275.773 31.0788 275.263 31.0788H274.992L280.159 28.7246V48.3704C280.534 47.7611 281.19 47.1152 282.138 46.4329C283.096 45.7559 284.346 45.4121 285.888 45.4121C287.221 45.4121 288.414 45.7454 289.471 46.4121C290.523 47.0788 291.352 48.0059 291.951 49.1829C292.56 50.3652 292.867 51.6777 292.867 53.1204C292.867 54.9694 292.482 56.61 291.721 58.0371C290.971 59.4538 289.992 60.5892 288.784 61.4329C287.419 62.36 285.878 62.8288 284.159 62.8288C282.951 62.8288 281.664 62.5684 280.305 62.0579C279.664 61.8236 279.18 61.7038 278.846 61.7038C278.331 61.7038 277.805 62.0059 277.263 62.5996V34.3913ZM280.159 56.7454C280.159 57.7194 280.263 58.5111 280.471 59.1204C280.69 59.7194 281.06 60.1725 281.576 60.4746C282.326 60.9642 283.289 61.2038 284.471 61.2038C285.93 61.2038 287.143 60.5944 288.117 59.3704C289.102 58.1361 289.596 56.5111 289.596 54.4954C289.596 52.5788 289.148 50.9225 288.263 49.5163C287.372 48.1152 286.081 47.4121 284.388 47.4121C283.747 47.4121 283.096 47.5892 282.43 47.9329C281.763 48.2819 281.211 48.7611 280.784 49.3704C280.367 49.9694 280.159 50.6517 280.159 51.4121V56.7454Z" fill="white"/>
<path d="M7 79.4998C8.33333 79.3331 11.4 78.6998 13 77.4998C15 75.9998 16.5 74.9998 17.5 74.9998C18.5 74.9998 19 74.9998 22 76.9998C25 78.9998 27.5 78.4998 29 77.9998C30.5 77.4998 33.5 75.4998 38 75.9998C42.5 76.4998 44.5 78.4998 46 78.4998C47.5 78.4998 50 78.4998 52 76.4998C54 74.4998 56 73.9998 58 75.9998C60 77.9998 63 78.4998 64 78.4998C65 78.4998 67 78.4998 71 75.5C75 72.5002 78 79.5002 82 79" stroke="white" stroke-width="1.5"/>
<path d="M24.505 39C26.5 35.5 41.505 19 41.505 19V71.5H20.505C20.1716 67.8333 19.4301 58.8867 20.005 52.5C20.5 47 22.5099 42.5 24.505 39Z" fill="url(#paint0_linear_3_170)"/>
<path d="M45 68.5V29.5C56 41.5 64.5 53 72.5 63.5C58 63.5 50.3333 66.1667 45 68.5Z" fill="url(#paint1_linear_3_170)"/>
<path d="M78 72.5C79.6569 72.5 81 71.1569 81 69.5C81 67.8431 79.6569 66.5 78 66.5C76.3431 66.5 75 67.8431 75 69.5C75 71.1569 76.3431 72.5 78 72.5Z" fill="white"/>
<defs>
<linearGradient id="paint0_linear_3_170" x1="33" y1="16.5" x2="42" y2="75" gradientUnits="userSpaceOnUse">
<stop stop-color="white"/>
<stop offset="0.0001" stop-color="white"/>
<stop offset="1" stop-color="white"/>
</linearGradient>
<linearGradient id="paint1_linear_3_170" x1="45" y1="28" x2="65.5" y2="69" gradientUnits="userSpaceOnUse">
<stop stop-color="white"/>
<stop offset="0.5" stop-color="white"/>
<stop offset="1" stop-color="white"/>
</linearGradient>
</defs>
</svg>
